<svg width="16" height="17" viewBox="0 0 16 17" fill="none" xmlns="http://www.w3.org/2000/svg">
<g id="Iconly/Bold/Calling">
<g id="Calling">
<path id="Calling_2" fill-rule="evenodd" clip-rule="evenodd" d="M10.8016 10.1786C11.1096 10.0016 11.4575 9.80182 11.8963 9.89481C12.2937 9.97835 13.895 11.2511 14.2659 11.6301C14.5098 11.8787 14.6443 12.1354 14.6661 12.3922C14.7021 13.4001 13.2109 14.6647 12.9602 14.8081C12.6279 15.0464 12.2421 15.1667 11.8073 15.1667C11.3636 15.1667 10.8697 15.0417 10.3296 14.7904C7.4029 13.574 2.88507 9.05669 1.70365 6.16335C1.21314 5.08616 1.20974 4.19847 1.69481 3.53014C1.88911 3.21704 3.1113 1.79278 4.09979 1.83421C4.36203 1.85663 4.61815 1.99111 4.86816 2.23493C5.24725 2.60577 6.52039 4.20662 6.60396 4.60394C6.69567 5.04609 6.4939 5.39655 6.3159 5.70558L6.31566 5.706C6.13301 6.02368 5.97491 6.29867 6.1019 6.64897C6.82204 8.41282 8.08635 9.67679 9.85747 10.3994C10.2026 10.5244 10.4771 10.3662 10.7943 10.1828L10.8016 10.1786ZM9.8535 1.83696C9.59585 1.80449 9.36428 1.9936 9.33629 2.25086C9.30766 2.50811 9.49342 2.73925 9.7498 2.76791C11.8581 3.00287 13.4963 4.63999 13.7329 6.75022C13.7603 6.98964 13.9626 7.16666 14.198 7.16666C14.2152 7.16666 14.233 7.16539 14.2508 7.16348C14.5078 7.13482 14.6929 6.90304 14.6637 6.64515C14.3774 4.09683 12.3995 2.11905 9.8535 1.83696ZM11.6758 6.76218C11.7227 7.00147 11.9312 7.16666 12.1662 7.16666C12.1981 7.16666 12.2301 7.16326 12.2627 7.15782C12.5337 7.10412 12.7103 6.84172 12.6573 6.57047C12.387 5.18232 11.3158 4.11163 9.92941 3.84107C9.65974 3.79416 9.39618 3.96479 9.34252 4.23671C9.29022 4.50795 9.46751 4.77104 9.73785 4.82338C10.7235 5.01509 11.4836 5.77646 11.6758 6.76218Z" fill="white"/>
</g>
</g>
</svg>
