<svg width="14" height="14" viewBox="0 0 14 14" fill="none" xmlns="http://www.w3.org/2000/svg">
<path fill-rule="evenodd" clip-rule="evenodd" d="M9.45143 8.46875C9.72091 8.31394 10.0253 8.13909 10.4092 8.22045C10.757 8.29355 12.1581 9.40725 12.4827 9.73886C12.6961 9.95637 12.8138 10.181 12.8328 10.4057C12.8643 11.2876 11.5595 12.3941 11.3401 12.5195C11.0494 12.7281 10.7118 12.8333 10.3313 12.8333C9.94317 12.8333 9.511 12.724 9.03841 12.5041C6.47752 11.4397 2.52442 7.4871 1.49068 4.95543C1.06148 4.01289 1.05851 3.23615 1.48295 2.65137C1.65296 2.3774 2.72238 1.13118 3.5873 1.16743C3.81676 1.18704 4.04087 1.30471 4.25963 1.51806C4.59133 1.84254 5.70533 3.24328 5.77845 3.59094C5.8587 3.97782 5.68215 4.28448 5.5264 4.55488L5.52619 4.55524C5.36637 4.83322 5.22803 5.07383 5.33915 5.38035C5.96927 6.92371 7.07554 8.02969 8.62527 8.66201C8.92725 8.77136 9.16741 8.63289 9.44502 8.47243L9.45143 8.46875ZM8.6218 1.16983C8.39635 1.14142 8.19373 1.3069 8.16923 1.53199C8.14418 1.75709 8.30673 1.95934 8.53106 1.98441C10.3758 2.19001 11.8092 3.62248 12.0163 5.46894C12.0402 5.67843 12.2173 5.83332 12.4232 5.83332C12.4382 5.83332 12.4538 5.83221 12.4694 5.83054C12.6943 5.80546 12.8563 5.60266 12.8307 5.377C12.5802 3.14722 10.8495 1.41666 8.6218 1.16983ZM10.2163 5.4794C10.2573 5.68878 10.4398 5.83332 10.6454 5.83332C10.6734 5.83332 10.7013 5.83035 10.7298 5.82559C10.967 5.7786 11.1215 5.549 11.0751 5.31166C10.8386 4.09702 9.90129 3.16017 8.68821 2.92343C8.45226 2.88238 8.22165 3.03169 8.17469 3.26962C8.12893 3.50695 8.28405 3.73715 8.52061 3.78295C9.38301 3.95069 10.0481 4.6169 10.2163 5.4794Z" fill="white"/>
</svg>
