<svg width="18" height="18" viewBox="0 0 18 18" fill="none" xmlns="http://www.w3.org/2000/svg">
<g clip-path="url(#clip0_3_163)">
<path d="M8.96843 18.0059L8.44562 17.5578C7.72489 16.9543 1.43167 11.5192 1.43167 7.5436C1.43167 3.38117 4.806 0.00683594 8.96843 0.00683594C13.1309 0.00683594 16.5052 3.38117 16.5052 7.5436C16.5052 11.5192 10.212 16.9543 9.49423 17.5607L8.96843 18.0059ZM8.96843 1.6365C5.70759 1.6402 3.06507 4.28272 3.06137 7.54356C3.06137 10.0411 6.9332 14.0309 8.96843 15.8571C11.0037 14.0302 14.8755 10.0381 14.8755 7.54356C14.8718 4.28272 12.2293 1.64023 8.96843 1.6365Z" fill="#501414"/>
<path d="M8.96853 10.5308C7.31857 10.5308 5.98102 9.19325 5.98102 7.54329C5.98102 5.89334 7.31857 4.55579 8.96853 4.55579C10.6185 4.55579 11.956 5.89334 11.956 7.54329C11.956 9.19325 10.6185 10.5308 8.96853 10.5308ZM8.96853 6.04951C8.14355 6.04951 7.47477 6.71828 7.47477 7.54326C7.47477 8.36824 8.14355 9.03701 8.96853 9.03701C9.7935 9.03701 10.4623 8.36824 10.4623 7.54326C10.4623 6.71828 9.79354 6.04951 8.96853 6.04951Z" fill="#501414"/>
</g>
<defs>
<clipPath id="clip0_3_163">
<rect width="18" height="18" fill="white"/>
</clipPath>
</defs>
</svg>
