<svg width="385" height="197" viewBox="0 0 385 197" fill="none" xmlns="http://www.w3.org/2000/svg">
<path d="M108.354 4.4949V2H5V165H379V2H268.639V4.4949" stroke="white" stroke-width="3"/>
<path d="M69.074 69V24.2H96.754V30.76H76.242V43.656H94.834V50.056H76.242V69H69.074ZM106.199 69V24.2H135.159V30.536H113.367V42.632H132.183V48.616H113.367V62.6H135.351V69H106.199ZM145.387 69V24.2H162.315C165.429 24.2 168.117 24.744 170.379 25.832C172.661 26.8987 174.421 28.424 175.659 30.408C176.917 32.392 177.547 34.7493 177.547 37.48C177.547 39.6987 177.067 41.6613 176.107 43.368C175.168 45.0747 173.845 46.4827 172.139 47.592C170.432 48.68 168.459 49.416 166.219 49.8L179.723 69H171.051L158.667 50.92H152.555V69H145.387ZM152.555 44.968H161.131C164.032 44.968 166.283 44.3493 167.883 43.112C169.504 41.8747 170.315 40.104 170.315 37.8C170.315 35.432 169.589 33.5867 168.139 32.264C166.709 30.9413 164.544 30.28 161.643 30.28H152.555V44.968ZM187.887 69V24.2H216.847V30.536H195.055V42.632H213.871V48.616H195.055V62.6H217.039V69H187.887ZM247.874 69.96C244.503 69.96 241.378 69.3733 238.498 68.2C235.639 67.0053 233.143 65.352 231.01 63.24C228.898 61.128 227.245 58.6533 226.05 55.816C224.877 52.9787 224.29 49.9067 224.29 46.6C224.29 43.272 224.877 40.1893 226.05 37.352C227.245 34.5147 228.898 32.04 231.01 29.928C233.143 27.816 235.639 26.1733 238.498 25C241.378 23.8267 244.503 23.24 247.874 23.24C251.223 23.24 254.327 23.8373 257.186 25.032C260.045 26.2267 262.541 27.8907 264.674 30.024C266.807 32.1573 268.461 34.6427 269.634 37.48C270.829 40.296 271.426 43.336 271.426 46.6C271.426 49.9067 270.829 52.9787 269.634 55.816C268.461 58.6533 266.807 61.128 264.674 63.24C262.541 65.352 260.045 67.0053 257.186 68.2C254.327 69.3733 251.223 69.96 247.874 69.96ZM247.874 63.176C250.135 63.176 252.237 62.792 254.178 62.024C256.141 61.2347 257.847 60.1147 259.298 58.664C260.749 57.192 261.879 55.4427 262.69 53.416C263.522 51.368 263.938 49.096 263.938 46.6C263.938 43.2507 263.223 40.3387 261.794 37.864C260.386 35.368 258.466 33.4373 256.034 32.072C253.602 30.7067 250.882 30.024 247.874 30.024C245.613 30.024 243.501 30.4187 241.538 31.208C239.597 31.976 237.89 33.0853 236.418 34.536C234.967 35.9867 233.826 37.736 232.994 39.784C232.183 41.8107 231.778 44.0827 231.778 46.6C231.778 49.9493 232.493 52.872 233.922 55.368C235.351 57.8427 237.271 59.7627 239.682 61.128C242.114 62.4933 244.845 63.176 247.874 63.176ZM298.086 69.96C294.096 69.96 290.758 69.1493 288.07 67.528C285.403 65.9067 283.387 63.7093 282.022 60.936C280.678 58.1413 280.006 55.0053 280.006 51.528V24.2H287.174V51.464C287.174 55.4107 288.155 58.3547 290.118 60.296C292.08 62.216 294.736 63.176 298.086 63.176C301.435 63.176 304.091 62.216 306.054 60.296C308.016 58.3547 308.998 55.4107 308.998 51.464V24.2H316.198V51.528C316.198 54.984 315.515 58.1093 314.15 60.904C312.806 63.6773 310.79 65.8853 308.102 67.528C305.435 69.1493 302.096 69.96 298.086 69.96ZM19.574 149V104.2H36.502C39.6167 104.2 42.3047 104.744 44.566 105.832C46.8487 106.899 48.6087 108.424 49.846 110.408C51.1047 112.392 51.734 114.749 51.734 117.48C51.734 119.699 51.254 121.661 50.294 123.368C49.3553 125.075 48.0327 126.483 46.326 127.592C44.6193 128.68 42.646 129.416 40.406 129.8L53.91 149H45.238L32.854 130.92H26.742V149H19.574ZM26.742 124.968H35.318C38.2193 124.968 40.47 124.349 42.07 123.112C43.6913 121.875 44.502 120.104 44.502 117.8C44.502 115.432 43.7767 113.587 42.326 112.264C40.8967 110.941 38.7313 110.28 35.83 110.28H26.742V124.968ZM62.074 149V104.2H91.034V110.536H69.242V122.632H88.058V128.616H69.242V142.6H91.226V149H62.074ZM115.854 149.96C112.76 149.96 109.731 149.523 106.766 148.648C103.822 147.752 101.336 146.472 99.3095 144.808L102.83 139.336C103.896 140.253 105.134 141.043 106.542 141.704C107.971 142.365 109.486 142.877 111.086 143.24C112.686 143.581 114.286 143.752 115.886 143.752C118.808 143.752 121.166 143.197 122.958 142.088C124.771 140.979 125.678 139.357 125.678 137.224C125.678 135.624 125.059 134.269 123.822 133.16C122.606 132.051 120.344 131.027 117.038 130.088L112.43 128.744C108.206 127.528 105.123 125.917 103.182 123.912C101.262 121.907 100.302 119.411 100.302 116.424C100.302 114.44 100.696 112.648 101.486 111.048C102.296 109.448 103.427 108.061 104.878 106.888C106.35 105.715 108.078 104.819 110.062 104.2C112.046 103.581 114.222 103.272 116.59 103.272C119.598 103.272 122.392 103.709 124.974 104.584C127.555 105.459 129.688 106.632 131.374 108.104L127.726 113.416C126.808 112.584 125.731 111.869 124.494 111.272C123.278 110.675 121.966 110.216 120.558 109.896C119.15 109.576 117.72 109.416 116.27 109.416C114.478 109.416 112.888 109.683 111.502 110.216C110.136 110.728 109.07 111.475 108.302 112.456C107.534 113.437 107.15 114.632 107.15 116.04C107.15 117.064 107.406 117.96 107.918 118.728C108.43 119.496 109.304 120.2 110.542 120.84C111.8 121.459 113.528 122.088 115.726 122.728L120.59 124.168C124.728 125.384 127.758 126.973 129.678 128.936C131.598 130.877 132.558 133.405 132.558 136.52C132.558 139.187 131.896 141.533 130.574 143.56C129.272 145.565 127.374 147.133 124.878 148.264C122.382 149.395 119.374 149.96 115.854 149.96ZM141.449 149V104.2H148.617V149H141.449ZM160.324 149V104.2H174.34C178.799 104.2 182.735 105.16 186.148 107.08C189.561 108.979 192.228 111.613 194.148 114.984C196.089 118.355 197.06 122.237 197.06 126.632C197.06 129.896 196.505 132.904 195.396 135.656C194.308 138.387 192.751 140.744 190.724 142.728C188.697 144.712 186.297 146.259 183.524 147.368C180.751 148.456 177.689 149 174.34 149H160.324ZM167.492 142.312H173.476C175.887 142.312 178.073 141.96 180.036 141.256C182.02 140.531 183.716 139.485 185.124 138.12C186.553 136.755 187.652 135.112 188.42 133.192C189.188 131.251 189.572 129.064 189.572 126.632C189.572 123.368 188.9 120.563 187.556 118.216C186.233 115.848 184.367 114.035 181.956 112.776C179.545 111.496 176.719 110.856 173.476 110.856H167.492V142.312ZM205.949 149V104.2H234.909V110.536H213.117V122.632H231.933V128.616H213.117V142.6H235.101V149H205.949ZM245.137 149V104.2H251.985L274.609 136.744V104.2H281.585V149H274.736L252.145 116.072V149H245.137ZM313.678 149.96C309.027 149.96 304.963 149 301.486 147.08C298.008 145.16 295.299 142.451 293.358 138.952C291.438 135.432 290.478 131.325 290.478 126.632C290.478 123.219 291.043 120.093 292.174 117.256C293.326 114.397 294.936 111.923 297.006 109.832C299.096 107.741 301.56 106.12 304.398 104.968C307.235 103.816 310.35 103.24 313.742 103.24C317.155 103.24 320.099 103.667 322.574 104.52C325.07 105.373 327.246 106.589 329.102 108.168L325.39 114.024C323.982 112.723 322.339 111.752 320.462 111.112C318.584 110.472 316.515 110.152 314.254 110.152C311.758 110.152 309.507 110.536 307.502 111.304C305.496 112.072 303.779 113.171 302.35 114.6C300.942 116.008 299.854 117.725 299.086 119.752C298.339 121.757 297.966 124.029 297.966 126.568C297.966 130.024 298.638 132.979 299.982 135.432C301.347 137.885 303.267 139.763 305.742 141.064C308.238 142.344 311.182 142.984 314.574 142.984C316.835 142.984 319.011 142.653 321.102 141.992C323.214 141.309 325.187 140.211 327.022 138.696L330.35 144.744C328.195 146.429 325.731 147.72 322.958 148.616C320.206 149.512 317.112 149.96 313.678 149.96ZM337.887 149V104.2H366.847V110.536H345.055V122.632H363.871V128.616H345.055V142.6H367.039V149H337.887Z" fill="white"/>
<circle cx="298" cy="25" r="7" fill="#31C13F"/>
<path d="M15.3225 190L11.2665 183.784L14.6505 178.48H16.1385L12.7545 183.736L17.0025 190H15.3225ZM7.45048 190V178.48H8.79448V183.232H12.2025V184.48H8.79448V190H7.45048ZM22.7312 190.12L22.1552 188.824C22.9712 188.616 23.5672 188.268 23.9432 187.78C24.3272 187.284 24.5712 186.576 24.6752 185.656C24.7872 184.736 24.8432 183.528 24.8432 182.032V178.48H33.3632V190H32.0192V179.728H26.1872V182.032C26.1872 183.328 26.1392 184.44 26.0432 185.368C25.9552 186.288 25.7872 187.06 25.5392 187.684C25.2992 188.308 24.9512 188.816 24.4952 189.208C24.0472 189.592 23.4592 189.896 22.7312 190.12ZM41.5027 195.4C41.2067 195.4 40.9067 195.36 40.6027 195.28C40.3067 195.2 39.9827 195.048 39.6307 194.824L39.9907 193.6C40.2307 193.776 40.4867 193.904 40.7587 193.984C41.0387 194.064 41.2787 194.104 41.4787 194.104C42.1507 194.104 42.6547 193.932 42.9907 193.588C43.3267 193.252 43.6147 192.744 43.8547 192.064L44.4547 190.336L39.8467 178.48H41.3587L45.2227 188.512L48.9907 178.48H50.4307L45.2467 192.208C44.9187 193.072 44.5707 193.732 44.2027 194.188C43.8427 194.652 43.4427 194.968 43.0027 195.136C42.5627 195.312 42.0627 195.4 41.5027 195.4ZM62.3272 190.36C61.3592 190.36 60.4912 190.2 59.7232 189.88C58.9632 189.552 58.3152 189.072 57.7792 188.44C57.2512 187.808 56.8472 187.032 56.5672 186.112C56.2952 185.184 56.1592 184.12 56.1592 182.92C56.1592 181.608 56.2432 180.428 56.4112 179.38C56.5872 178.332 56.8712 177.42 57.2632 176.644C57.6632 175.86 58.1992 175.216 58.8712 174.712C59.5432 174.2 60.3752 173.832 61.3672 173.608L66.8872 172.36L67.1752 173.704L61.8232 174.904C60.7352 175.152 59.8912 175.556 59.2912 176.116C58.6912 176.668 58.2552 177.364 57.9832 178.204C57.7192 179.036 57.5432 179.992 57.4552 181.072C57.9592 180.184 58.6272 179.472 59.4592 178.936C60.2992 178.392 61.3112 178.12 62.4952 178.12C63.6232 178.12 64.6152 178.4 65.4712 178.96C66.3272 179.512 66.9952 180.252 67.4752 181.18C67.9632 182.108 68.2072 183.128 68.2072 184.24C68.2072 185.072 68.0672 185.86 67.7872 186.604C67.5072 187.34 67.1032 187.992 66.5752 188.56C66.0552 189.12 65.4352 189.56 64.7152 189.88C64.0032 190.2 63.2072 190.36 62.3272 190.36ZM62.2552 189.064C63.1352 189.064 63.9152 188.868 64.5952 188.476C65.2752 188.076 65.8072 187.516 66.1912 186.796C66.5752 186.076 66.7672 185.224 66.7672 184.24C66.7672 183.256 66.5752 182.404 66.1912 181.684C65.8072 180.956 65.2752 180.396 64.5952 180.004C63.9152 179.612 63.1352 179.416 62.2552 179.416C61.3752 179.416 60.5952 179.612 59.9152 180.004C59.2352 180.396 58.7032 180.956 58.3192 181.684C57.9352 182.404 57.7432 183.256 57.7432 184.24C57.7432 185.224 57.9352 186.076 58.3192 186.796C58.7032 187.516 59.2352 188.076 59.9152 188.476C60.5952 188.868 61.3752 189.064 62.2552 189.064ZM75.1699 190V178.48H76.5139V183.232H83.7379V178.48H85.0819V190H83.7379V184.48H76.5139V190H75.1699ZM93.002 190V178.48H94.346V188.752H97.13C98.25 188.752 99.082 188.556 99.626 188.164C100.17 187.764 100.442 187.152 100.442 186.328C100.442 185.512 100.182 184.896 99.662 184.48C99.15 184.064 98.378 183.856 97.346 183.856H94.034V182.608H97.418C98.802 182.608 99.89 182.936 100.682 183.592C101.482 184.24 101.882 185.152 101.882 186.328C101.882 187.104 101.682 187.768 101.282 188.32C100.89 188.864 100.338 189.28 99.626 189.568C98.922 189.856 98.106 190 97.178 190H93.002ZM104.066 190V178.48H105.41V190H104.066ZM113.319 190V178.48H114.663V187.792L122.295 178.48H123.375V190H122.031V180.592L114.327 190H113.319ZM118.335 176.08C117.551 176.08 116.859 175.9 116.259 175.54C115.659 175.18 115.195 174.692 114.867 174.076C114.539 173.452 114.391 172.744 114.423 171.952H115.647C115.615 172.84 115.843 173.56 116.331 174.112C116.827 174.656 117.495 174.928 118.335 174.928C119.175 174.928 119.835 174.656 120.315 174.112C120.803 173.56 121.023 172.84 120.975 171.952H122.223C122.247 172.736 122.091 173.44 121.755 174.064C121.427 174.688 120.963 175.18 120.363 175.54C119.771 175.9 119.095 176.08 118.335 176.08ZM147.462 190V184.48H144.366V183.232H147.462V178.48H148.806V183.232H151.878V184.48H148.806V190H147.462ZM140.046 190L143.862 183.832L140.79 178.48H142.278L145.35 183.784L141.654 190H140.046ZM154.542 190L150.894 183.784L154.014 178.48H155.454L152.382 183.736L156.198 190H154.542ZM162.807 190V178.48H164.151V187.792L171.783 178.48H172.863V190H171.519V180.592L163.815 190H162.807ZM179.916 190.12L179.34 188.824C180.156 188.616 180.752 188.268 181.128 187.78C181.512 187.284 181.756 186.576 181.86 185.656C181.972 184.736 182.028 183.528 182.028 182.032V178.48H190.548V190H189.204V179.728H183.372V182.032C183.372 183.328 183.324 184.44 183.228 185.368C183.14 186.288 182.972 187.06 182.724 187.684C182.484 188.308 182.136 188.816 181.68 189.208C181.232 189.592 180.644 189.896 179.916 190.12ZM203.464 190.36C202.304 190.36 201.264 190.084 200.344 189.532C199.432 188.972 198.712 188.228 198.184 187.3C197.656 186.372 197.392 185.352 197.392 184.24C197.392 183.408 197.544 182.624 197.848 181.888C198.152 181.144 198.576 180.492 199.12 179.932C199.672 179.364 200.316 178.92 201.052 178.6C201.788 178.28 202.592 178.12 203.464 178.12C204.624 178.12 205.66 178.4 206.572 178.96C207.492 179.512 208.216 180.252 208.744 181.18C209.272 182.108 209.536 183.128 209.536 184.24C209.536 185.072 209.384 185.86 209.08 186.604C208.776 187.34 208.352 187.992 207.808 188.56C207.264 189.12 206.62 189.56 205.876 189.88C205.14 190.2 204.336 190.36 203.464 190.36ZM203.464 189.064C204.368 189.064 205.168 188.868 205.864 188.476C206.56 188.076 207.104 187.516 207.496 186.796C207.896 186.076 208.096 185.224 208.096 184.24C208.096 183.256 207.896 182.404 207.496 181.684C207.104 180.956 206.56 180.396 205.864 180.004C205.168 179.612 204.368 179.416 203.464 179.416C202.56 179.416 201.76 179.612 201.064 180.004C200.368 180.396 199.82 180.956 199.42 181.684C199.028 182.404 198.832 183.256 198.832 184.24C198.832 185.224 199.028 186.076 199.42 186.796C199.82 187.516 200.368 188.076 201.064 188.476C201.76 188.868 202.56 189.064 203.464 189.064ZM216.374 190V178.48H217.718V187.792L225.35 178.48H226.43V190H225.086V180.592L217.382 190H216.374ZM221.39 176.08C220.606 176.08 219.914 175.9 219.314 175.54C218.714 175.18 218.25 174.692 217.922 174.076C217.594 173.452 217.446 172.744 217.478 171.952H218.702C218.67 172.84 218.898 173.56 219.386 174.112C219.882 174.656 220.55 174.928 221.39 174.928C222.23 174.928 222.89 174.656 223.37 174.112C223.858 173.56 224.078 172.84 224.03 171.952H225.278C225.302 172.736 225.146 173.44 224.81 174.064C224.482 174.688 224.018 175.18 223.418 175.54C222.826 175.9 222.15 176.08 221.39 176.08ZM252.293 190L248.237 183.784L251.621 178.48H253.109L249.725 183.736L253.973 190H252.293ZM244.421 190V178.48H245.765V183.232H249.173V184.48H245.765V190H244.421ZM265.324 190.36C264.164 190.36 263.124 190.084 262.204 189.532C261.292 188.972 260.572 188.228 260.044 187.3C259.516 186.372 259.252 185.352 259.252 184.24C259.252 183.408 259.404 182.624 259.708 181.888C260.012 181.144 260.436 180.492 260.98 179.932C261.532 179.364 262.176 178.92 262.912 178.6C263.648 178.28 264.452 178.12 265.324 178.12C266.484 178.12 267.52 178.4 268.432 178.96C269.352 179.512 270.076 180.252 270.604 181.18C271.132 182.108 271.396 183.128 271.396 184.24C271.396 185.072 271.244 185.86 270.94 186.604C270.636 187.34 270.212 187.992 269.668 188.56C269.124 189.12 268.48 189.56 267.736 189.88C267 190.2 266.196 190.36 265.324 190.36ZM265.324 189.064C266.228 189.064 267.028 188.868 267.724 188.476C268.42 188.076 268.964 187.516 269.356 186.796C269.756 186.076 269.956 185.224 269.956 184.24C269.956 183.256 269.756 182.404 269.356 181.684C268.964 180.956 268.42 180.396 267.724 180.004C267.028 179.612 266.228 179.416 265.324 179.416C264.42 179.416 263.62 179.612 262.924 180.004C262.228 180.396 261.68 180.956 261.28 181.684C260.888 182.404 260.692 183.256 260.692 184.24C260.692 185.224 260.888 186.076 261.28 186.796C261.68 187.516 262.228 188.076 262.924 188.476C263.62 188.868 264.42 189.064 265.324 189.064ZM278.234 190V178.48H279.458H279.53L285.218 186.328L284.618 186.352L290.114 178.48H291.362V190H290.018V180.376L290.258 180.496L285.362 187.336H284.258L279.218 180.472L279.434 180.352V190H278.234ZM299.277 190V178.48H309.165V190H307.821V179.728H300.621V190H299.277ZM316.222 190.12L315.646 188.824C316.462 188.616 317.058 188.268 317.434 187.78C317.818 187.284 318.062 186.576 318.166 185.656C318.278 184.736 318.334 183.528 318.334 182.032V178.48H326.854V190H325.51V179.728H319.678V182.032C319.678 183.328 319.63 184.44 319.534 185.368C319.446 186.288 319.278 187.06 319.03 187.684C318.79 188.308 318.442 188.816 317.986 189.208C317.538 189.592 316.95 189.896 316.222 190.12ZM339.818 190.36C338.618 190.36 337.558 190.108 336.638 189.604C335.718 189.092 334.998 188.38 334.478 187.468C333.958 186.556 333.698 185.496 333.698 184.288C333.698 183.408 333.846 182.592 334.142 181.84C334.438 181.088 334.854 180.436 335.39 179.884C335.926 179.324 336.55 178.892 337.262 178.588C337.982 178.276 338.762 178.12 339.602 178.12C340.49 178.12 341.282 178.28 341.978 178.6C342.682 178.912 343.266 179.352 343.73 179.92C344.202 180.488 344.546 181.152 344.762 181.912C344.978 182.672 345.042 183.496 344.954 184.384H335.186C335.138 185.32 335.302 186.14 335.678 186.844C336.054 187.54 336.61 188.084 337.346 188.476C338.082 188.868 338.962 189.064 339.986 189.064C340.602 189.064 341.214 188.956 341.822 188.74C342.438 188.516 342.962 188.2 343.394 187.792L344.174 188.92C343.782 189.248 343.342 189.52 342.854 189.736C342.366 189.952 341.862 190.108 341.342 190.204C340.83 190.308 340.322 190.36 339.818 190.36ZM335.234 183.136H343.514C343.466 181.96 343.114 181.048 342.458 180.4C341.802 179.744 340.85 179.416 339.602 179.416C338.394 179.416 337.398 179.744 336.614 180.4C335.83 181.048 335.37 181.96 335.234 183.136ZM359.708 190L355.652 183.784L359.036 178.48H360.524L357.14 183.736L361.388 190H359.708ZM351.836 190V178.48H353.18V183.232H356.588V184.48H353.18V190H351.836ZM372.835 190.36C371.627 190.36 370.559 190.096 369.631 189.568C368.703 189.032 367.975 188.304 367.447 187.384C366.927 186.464 366.667 185.416 366.667 184.24C366.667 183.344 366.823 182.524 367.135 181.78C367.447 181.036 367.887 180.392 368.455 179.848C369.031 179.296 369.707 178.872 370.483 178.576C371.259 178.272 372.107 178.12 373.027 178.12C373.715 178.12 374.347 178.208 374.923 178.384C375.499 178.552 376.043 178.824 376.555 179.2L375.739 180.304C375.395 180.016 374.979 179.796 374.491 179.644C374.003 179.492 373.483 179.416 372.931 179.416C371.947 179.416 371.095 179.608 370.375 179.992C369.655 180.368 369.095 180.916 368.695 181.636C368.303 182.348 368.107 183.208 368.107 184.216C368.107 185.728 368.539 186.916 369.403 187.78C370.267 188.636 371.435 189.064 372.907 189.064C373.531 189.064 374.111 188.952 374.647 188.728C375.191 188.504 375.611 188.232 375.907 187.912L376.819 188.944C376.235 189.384 375.611 189.732 374.947 189.988C374.283 190.236 373.579 190.36 372.835 190.36Z" fill="white"/>
</svg>
