<svg width="30" height="30" viewBox="0 0 30 30" fill="none" xmlns="http://www.w3.org/2000/svg">
<rect width="30" height="30" rx="15" fill="#501414"/>
<path fill-rule="evenodd" clip-rule="evenodd" d="M18.6192 8C19.6622 8 20.6656 8.41222 21.4037 9.15189C22.1426 9.89 22.5556 10.8856 22.5556 11.9278V18.0722C22.5556 20.2422 20.79 22 18.6192 22H10.9356C8.76478 22 7 20.2422 7 18.0722V11.9278C7 9.75778 8.757 8 10.9356 8H18.6192ZM19.8567 13.0867L19.9189 13.0245C20.1048 12.7989 20.1048 12.4722 19.9104 12.2467C19.8023 12.1308 19.6537 12.06 19.4989 12.0445C19.3356 12.0359 19.18 12.0911 19.0626 12.2L15.5556 15C15.1045 15.3741 14.4582 15.3741 14 15L10.5 12.2C10.2582 12.0211 9.92371 12.0445 9.72226 12.2545C9.51226 12.4645 9.48893 12.7989 9.66704 13.0322L9.76893 13.1334L13.3078 15.8945C13.7434 16.2367 14.2715 16.4234 14.8245 16.4234C15.3759 16.4234 15.9134 16.2367 16.3482 15.8945L19.8567 13.0867Z" fill="white"/>
</svg>
