<svg width="32" height="33" viewBox="0 0 32 33" fill="none" xmlns="http://www.w3.org/2000/svg">
<g clip-path="url(#clip0_88_14)">
<g opacity="0.954">
<mask id="path-1-outside-1_88_14" maskUnits="userSpaceOnUse" x="-1.03125" y="3.75" width="34" height="25" fill="black">
<rect fill="white" x="-1.03125" y="3.75" width="34" height="25"/>
<path fill-rule="evenodd" clip-rule="evenodd" d="M31.9688 6.84375C31.9688 7.01044 31.9688 7.17706 31.9688 7.34375C31.8408 7.54288 31.6533 7.62619 31.4062 7.59375C31.4167 10.5105 31.4062 13.4272 31.375 16.3438C31.1886 16.8936 30.8761 16.9769 30.4375 16.5938C30.4062 13.6146 30.3958 10.6355 30.4062 7.65625C29.4871 7.65275 28.5704 7.69438 27.6562 7.78125C27.6458 11.7605 27.6562 15.7396 27.6875 19.7188C28.4489 18.8545 29.3551 18.1982 30.4062 17.75C31.2344 17.5386 31.7552 17.8407 31.9688 18.6562C31.9688 19.1354 31.9688 19.6146 31.9688 20.0938C31.808 20.9273 31.6101 21.7606 31.375 22.5938C31.3438 24.1353 31.3333 25.6769 31.3438 27.2188C31.6138 27.1718 31.8221 27.2552 31.9688 27.4688C31.9688 27.6354 31.9688 27.8021 31.9688 27.9688C31.8744 28.0522 31.7702 28.1252 31.6562 28.1875C25.1562 28.2292 18.6562 28.2292 12.1562 28.1875C12.0446 28.1384 11.9509 28.0656 11.875 27.9688C11.8438 24.6355 11.8333 21.3021 11.8438 17.9688C10.3021 17.9688 8.76044 17.9688 7.21875 17.9688C7.21875 21.0521 7.21875 24.1354 7.21875 27.2188C8.36475 27.2083 9.51062 27.2188 10.6562 27.25C10.8448 27.3456 10.9281 27.5018 10.9062 27.7188C10.9165 27.9486 10.8123 28.1048 10.5938 28.1875C7.15625 28.2292 3.71875 28.2292 0.28125 28.1875C0.167309 28.1252 0.0631419 28.0522 -0.03125 27.9688C-0.03125 27.8021 -0.03125 27.6354 -0.03125 27.4688C0.115442 27.2552 0.323776 27.1718 0.59375 27.2188C0.59375 23.3021 0.59375 19.3854 0.59375 15.4688C0.34176 15.4884 0.133426 15.4051 -0.03125 15.2188C-0.03125 15.0521 -0.03125 14.8854 -0.03125 14.7188C1.35623 13.8792 2.81457 13.1709 4.34375 12.5938C4.33334 11.5936 4.34376 10.5936 4.375 9.59375C4.66667 9.34375 4.95833 9.34375 5.25 9.59375C5.32749 10.445 5.36916 11.2992 5.375 12.1562C9.99862 10.2888 14.759 8.86175 19.6562 7.875C14.9616 6.64929 10.1908 5.95137 5.34375 5.78125C5.35416 6.53154 5.34374 7.28156 5.3125 8.03125C5.27083 8.32294 5.10417 8.48956 4.8125 8.53125C4.63556 8.50262 4.48973 8.41925 4.375 8.28125C4.34376 7.42731 4.33334 6.57317 4.34375 5.71875C3.80594 5.74948 3.60802 5.49948 3.75 4.96875C3.82588 4.87195 3.91963 4.79903 4.03125 4.75C10.1611 4.85321 16.1715 5.75946 22.0625 7.46875C25.2367 6.91313 28.4346 6.63189 31.6562 6.625C31.7702 6.68733 31.8744 6.76025 31.9688 6.84375ZM26.5938 7.84375C26.6666 10.8541 26.677 13.8749 26.625 16.9062C25.7287 15.3582 24.8121 15.3374 23.875 16.8438C23.8229 13.9685 23.8333 11.0935 23.9062 8.21875C24.8079 8.0775 25.7037 7.9525 26.5938 7.84375ZM22.7188 8.34375C22.7812 8.34375 22.8438 8.34375 22.9062 8.34375C22.9167 12.2396 22.9062 16.1355 22.875 20.0312C22.2549 19.4111 21.5361 18.9424 20.7188 18.625C19.925 18.4122 19.4146 18.6934 19.1875 19.4688C19.0406 20.8065 19.1969 22.1086 19.6562 23.375C19.1672 23.2522 18.6672 23.2105 18.1562 23.25C17.7827 23.3317 17.5223 23.5504 17.375 23.9062C17.3145 24.3949 17.3562 24.8741 17.5 25.3438C17.7558 26.0119 18.0995 26.6265 18.5312 27.1875C17.8024 27.2188 17.0732 27.2292 16.3438 27.2188C16.3438 21.3646 16.3438 15.5104 16.3438 9.65625C17.2602 9.448 18.1769 9.23962 19.0938 9.03125C19.1458 11.8852 19.1771 14.7394 19.1875 17.5938C19.4792 17.9271 19.7708 17.9271 20.0625 17.5938C20.0729 14.6769 20.1042 11.7602 20.1562 8.84375C21.0167 8.66931 21.8709 8.50262 22.7188 8.34375ZM15.2812 9.90625C15.4061 15.6559 15.4478 21.4267 15.4062 27.2188C14.5312 27.2188 13.6562 27.2188 12.7812 27.2188C12.7812 24.1354 12.7812 21.0521 12.7812 17.9688C13.2935 17.9669 13.4914 17.7169 13.375 17.2188C13.3438 17.1042 13.2708 17.0312 13.1562 17C10.0938 16.9583 7.03125 16.9583 3.96875 17C3.85417 17.0312 3.78125 17.1042 3.75 17.2188C3.63356 17.7169 3.83147 17.9669 4.34375 17.9688C4.34375 21.0521 4.34375 24.1354 4.34375 27.2188C3.40625 27.2188 2.46875 27.2188 1.53125 27.2188C1.52083 23.1354 1.53125 19.052 1.5625 14.9688C4.83269 13.3438 8.21813 12 11.7188 10.9375C12.9108 10.5825 14.0983 10.2387 15.2812 9.90625ZM25.1562 16.7812C25.316 16.8464 25.4514 16.9506 25.5625 17.0938C26.2882 18.4131 26.6424 19.8298 26.625 21.3438C26.7222 21.7607 26.9826 21.8962 27.4062 21.75C28.0441 20.7577 28.8358 19.9036 29.7812 19.1875C30.118 18.9774 30.4721 18.8004 30.8438 18.6562C30.8907 18.711 30.9219 18.7735 30.9375 18.8438C30.9836 19.3672 30.9628 19.888 30.875 20.4062C30.3773 22.7956 29.5232 25.0456 28.3125 27.1562C25.494 27.2289 22.6711 27.2394 19.8438 27.1875C19.0026 26.3698 18.5026 25.3801 18.3438 24.2188C18.5975 24.2178 18.8475 24.2491 19.0938 24.3125C19.5832 24.4689 20.0519 24.6668 20.5 24.9062C20.9233 24.8671 21.0899 24.6379 21 24.2188C20.3579 22.7589 20.0871 21.2381 20.1875 19.6562C20.2068 19.6058 20.238 19.5641 20.2812 19.5312C20.7884 19.7118 21.2467 19.9721 21.6562 20.3125C22.1771 20.75 22.6562 21.2292 23.0938 21.75C23.3277 21.8081 23.5465 21.7768 23.75 21.6562C23.8072 20.2039 24.1197 18.808 24.6875 17.4688C24.8331 17.2299 24.9894 17.0007 25.1562 16.7812ZM5.28125 17.9688C5.59375 17.9688 5.90625 17.9688 6.21875 17.9688C6.21875 21.0521 6.21875 24.1354 6.21875 27.2188C5.90625 27.2188 5.59375 27.2188 5.28125 27.2188C5.28125 24.1354 5.28125 21.0521 5.28125 17.9688ZM30.3438 25.3438C30.4059 25.9574 30.4267 26.5824 30.4062 27.2188C30.091 27.2392 29.7785 27.2184 29.4688 27.1562C29.8112 26.5756 30.1029 25.9714 30.3438 25.3438Z"/>
</mask>
<path fill-rule="evenodd" clip-rule="evenodd" d="M31.9688 6.84375C31.9688 7.01044 31.9688 7.17706 31.9688 7.34375C31.8408 7.54288 31.6533 7.62619 31.4062 7.59375C31.4167 10.5105 31.4062 13.4272 31.375 16.3438C31.1886 16.8936 30.8761 16.9769 30.4375 16.5938C30.4062 13.6146 30.3958 10.6355 30.4062 7.65625C29.4871 7.65275 28.5704 7.69438 27.6562 7.78125C27.6458 11.7605 27.6562 15.7396 27.6875 19.7188C28.4489 18.8545 29.3551 18.1982 30.4062 17.75C31.2344 17.5386 31.7552 17.8407 31.9688 18.6562C31.9688 19.1354 31.9688 19.6146 31.9688 20.0938C31.808 20.9273 31.6101 21.7606 31.375 22.5938C31.3438 24.1353 31.3333 25.6769 31.3438 27.2188C31.6138 27.1718 31.8221 27.2552 31.9688 27.4688C31.9688 27.6354 31.9688 27.8021 31.9688 27.9688C31.8744 28.0522 31.7702 28.1252 31.6562 28.1875C25.1562 28.2292 18.6562 28.2292 12.1562 28.1875C12.0446 28.1384 11.9509 28.0656 11.875 27.9688C11.8438 24.6355 11.8333 21.3021 11.8438 17.9688C10.3021 17.9688 8.76044 17.9688 7.21875 17.9688C7.21875 21.0521 7.21875 24.1354 7.21875 27.2188C8.36475 27.2083 9.51062 27.2188 10.6562 27.25C10.8448 27.3456 10.9281 27.5018 10.9062 27.7188C10.9165 27.9486 10.8123 28.1048 10.5938 28.1875C7.15625 28.2292 3.71875 28.2292 0.28125 28.1875C0.167309 28.1252 0.0631419 28.0522 -0.03125 27.9688C-0.03125 27.8021 -0.03125 27.6354 -0.03125 27.4688C0.115442 27.2552 0.323776 27.1718 0.59375 27.2188C0.59375 23.3021 0.59375 19.3854 0.59375 15.4688C0.34176 15.4884 0.133426 15.4051 -0.03125 15.2188C-0.03125 15.0521 -0.03125 14.8854 -0.03125 14.7188C1.35623 13.8792 2.81457 13.1709 4.34375 12.5938C4.33334 11.5936 4.34376 10.5936 4.375 9.59375C4.66667 9.34375 4.95833 9.34375 5.25 9.59375C5.32749 10.445 5.36916 11.2992 5.375 12.1562C9.99862 10.2888 14.759 8.86175 19.6562 7.875C14.9616 6.64929 10.1908 5.95137 5.34375 5.78125C5.35416 6.53154 5.34374 7.28156 5.3125 8.03125C5.27083 8.32294 5.10417 8.48956 4.8125 8.53125C4.63556 8.50262 4.48973 8.41925 4.375 8.28125C4.34376 7.42731 4.33334 6.57317 4.34375 5.71875C3.80594 5.74948 3.60802 5.49948 3.75 4.96875C3.82588 4.87195 3.91963 4.79903 4.03125 4.75C10.1611 4.85321 16.1715 5.75946 22.0625 7.46875C25.2367 6.91313 28.4346 6.63189 31.6562 6.625C31.7702 6.68733 31.8744 6.76025 31.9688 6.84375ZM26.5938 7.84375C26.6666 10.8541 26.677 13.8749 26.625 16.9062C25.7287 15.3582 24.8121 15.3374 23.875 16.8438C23.8229 13.9685 23.8333 11.0935 23.9062 8.21875C24.8079 8.0775 25.7037 7.9525 26.5938 7.84375ZM22.7188 8.34375C22.7812 8.34375 22.8438 8.34375 22.9062 8.34375C22.9167 12.2396 22.9062 16.1355 22.875 20.0312C22.2549 19.4111 21.5361 18.9424 20.7188 18.625C19.925 18.4122 19.4146 18.6934 19.1875 19.4688C19.0406 20.8065 19.1969 22.1086 19.6562 23.375C19.1672 23.2522 18.6672 23.2105 18.1562 23.25C17.7827 23.3317 17.5223 23.5504 17.375 23.9062C17.3145 24.3949 17.3562 24.8741 17.5 25.3438C17.7558 26.0119 18.0995 26.6265 18.5312 27.1875C17.8024 27.2188 17.0732 27.2292 16.3438 27.2188C16.3438 21.3646 16.3438 15.5104 16.3438 9.65625C17.2602 9.448 18.1769 9.23962 19.0938 9.03125C19.1458 11.8852 19.1771 14.7394 19.1875 17.5938C19.4792 17.9271 19.7708 17.9271 20.0625 17.5938C20.0729 14.6769 20.1042 11.7602 20.1562 8.84375C21.0167 8.66931 21.8709 8.50262 22.7188 8.34375ZM15.2812 9.90625C15.4061 15.6559 15.4478 21.4267 15.4062 27.2188C14.5312 27.2188 13.6562 27.2188 12.7812 27.2188C12.7812 24.1354 12.7812 21.0521 12.7812 17.9688C13.2935 17.9669 13.4914 17.7169 13.375 17.2188C13.3438 17.1042 13.2708 17.0312 13.1562 17C10.0938 16.9583 7.03125 16.9583 3.96875 17C3.85417 17.0312 3.78125 17.1042 3.75 17.2188C3.63356 17.7169 3.83147 17.9669 4.34375 17.9688C4.34375 21.0521 4.34375 24.1354 4.34375 27.2188C3.40625 27.2188 2.46875 27.2188 1.53125 27.2188C1.52083 23.1354 1.53125 19.052 1.5625 14.9688C4.83269 13.3438 8.21813 12 11.7188 10.9375C12.9108 10.5825 14.0983 10.2387 15.2812 9.90625ZM25.1562 16.7812C25.316 16.8464 25.4514 16.9506 25.5625 17.0938C26.2882 18.4131 26.6424 19.8298 26.625 21.3438C26.7222 21.7607 26.9826 21.8962 27.4062 21.75C28.0441 20.7577 28.8358 19.9036 29.7812 19.1875C30.118 18.9774 30.4721 18.8004 30.8438 18.6562C30.8907 18.711 30.9219 18.7735 30.9375 18.8438C30.9836 19.3672 30.9628 19.888 30.875 20.4062C30.3773 22.7956 29.5232 25.0456 28.3125 27.1562C25.494 27.2289 22.6711 27.2394 19.8438 27.1875C19.0026 26.3698 18.5026 25.3801 18.3438 24.2188C18.5975 24.2178 18.8475 24.2491 19.0938 24.3125C19.5832 24.4689 20.0519 24.6668 20.5 24.9062C20.9233 24.8671 21.0899 24.6379 21 24.2188C20.3579 22.7589 20.0871 21.2381 20.1875 19.6562C20.2068 19.6058 20.238 19.5641 20.2812 19.5312C20.7884 19.7118 21.2467 19.9721 21.6562 20.3125C22.1771 20.75 22.6562 21.2292 23.0938 21.75C23.3277 21.8081 23.5465 21.7768 23.75 21.6562C23.8072 20.2039 24.1197 18.808 24.6875 17.4688C24.8331 17.2299 24.9894 17.0007 25.1562 16.7812ZM5.28125 17.9688C5.59375 17.9688 5.90625 17.9688 6.21875 17.9688C6.21875 21.0521 6.21875 24.1354 6.21875 27.2188C5.90625 27.2188 5.59375 27.2188 5.28125 27.2188C5.28125 24.1354 5.28125 21.0521 5.28125 17.9688ZM30.3438 25.3438C30.4059 25.9574 30.4267 26.5824 30.4062 27.2188C30.091 27.2392 29.7785 27.2184 29.4688 27.1562C29.8112 26.5756 30.1029 25.9714 30.3438 25.3438Z" fill="#501414"/>
<path fill-rule="evenodd" clip-rule="evenodd" d="M31.9688 6.84375C31.9688 7.01044 31.9688 7.17706 31.9688 7.34375C31.8408 7.54288 31.6533 7.62619 31.4062 7.59375C31.4167 10.5105 31.4062 13.4272 31.375 16.3438C31.1886 16.8936 30.8761 16.9769 30.4375 16.5938C30.4062 13.6146 30.3958 10.6355 30.4062 7.65625C29.4871 7.65275 28.5704 7.69438 27.6562 7.78125C27.6458 11.7605 27.6562 15.7396 27.6875 19.7188C28.4489 18.8545 29.3551 18.1982 30.4062 17.75C31.2344 17.5386 31.7552 17.8407 31.9688 18.6562C31.9688 19.1354 31.9688 19.6146 31.9688 20.0938C31.808 20.9273 31.6101 21.7606 31.375 22.5938C31.3438 24.1353 31.3333 25.6769 31.3438 27.2188C31.6138 27.1718 31.8221 27.2552 31.9688 27.4688C31.9688 27.6354 31.9688 27.8021 31.9688 27.9688C31.8744 28.0522 31.7702 28.1252 31.6562 28.1875C25.1562 28.2292 18.6562 28.2292 12.1562 28.1875C12.0446 28.1384 11.9509 28.0656 11.875 27.9688C11.8438 24.6355 11.8333 21.3021 11.8438 17.9688C10.3021 17.9688 8.76044 17.9688 7.21875 17.9688C7.21875 21.0521 7.21875 24.1354 7.21875 27.2188C8.36475 27.2083 9.51062 27.2188 10.6562 27.25C10.8448 27.3456 10.9281 27.5018 10.9062 27.7188C10.9165 27.9486 10.8123 28.1048 10.5938 28.1875C7.15625 28.2292 3.71875 28.2292 0.28125 28.1875C0.167309 28.1252 0.0631419 28.0522 -0.03125 27.9688C-0.03125 27.8021 -0.03125 27.6354 -0.03125 27.4688C0.115442 27.2552 0.323776 27.1718 0.59375 27.2188C0.59375 23.3021 0.59375 19.3854 0.59375 15.4688C0.34176 15.4884 0.133426 15.4051 -0.03125 15.2188C-0.03125 15.0521 -0.03125 14.8854 -0.03125 14.7188C1.35623 13.8792 2.81457 13.1709 4.34375 12.5938C4.33334 11.5936 4.34376 10.5936 4.375 9.59375C4.66667 9.34375 4.95833 9.34375 5.25 9.59375C5.32749 10.445 5.36916 11.2992 5.375 12.1562C9.99862 10.2888 14.759 8.86175 19.6562 7.875C14.9616 6.64929 10.1908 5.95137 5.34375 5.78125C5.35416 6.53154 5.34374 7.28156 5.3125 8.03125C5.27083 8.32294 5.10417 8.48956 4.8125 8.53125C4.63556 8.50262 4.48973 8.41925 4.375 8.28125C4.34376 7.42731 4.33334 6.57317 4.34375 5.71875C3.80594 5.74948 3.60802 5.49948 3.75 4.96875C3.82588 4.87195 3.91963 4.79903 4.03125 4.75C10.1611 4.85321 16.1715 5.75946 22.0625 7.46875C25.2367 6.91313 28.4346 6.63189 31.6562 6.625C31.7702 6.68733 31.8744 6.76025 31.9688 6.84375ZM26.5938 7.84375C26.6666 10.8541 26.677 13.8749 26.625 16.9062C25.7287 15.3582 24.8121 15.3374 23.875 16.8438C23.8229 13.9685 23.8333 11.0935 23.9062 8.21875C24.8079 8.0775 25.7037 7.9525 26.5938 7.84375ZM22.7188 8.34375C22.7812 8.34375 22.8438 8.34375 22.9062 8.34375C22.9167 12.2396 22.9062 16.1355 22.875 20.0312C22.2549 19.4111 21.5361 18.9424 20.7188 18.625C19.925 18.4122 19.4146 18.6934 19.1875 19.4688C19.0406 20.8065 19.1969 22.1086 19.6562 23.375C19.1672 23.2522 18.6672 23.2105 18.1562 23.25C17.7827 23.3317 17.5223 23.5504 17.375 23.9062C17.3145 24.3949 17.3562 24.8741 17.5 25.3438C17.7558 26.0119 18.0995 26.6265 18.5312 27.1875C17.8024 27.2188 17.0732 27.2292 16.3438 27.2188C16.3438 21.3646 16.3438 15.5104 16.3438 9.65625C17.2602 9.448 18.1769 9.23962 19.0938 9.03125C19.1458 11.8852 19.1771 14.7394 19.1875 17.5938C19.4792 17.9271 19.7708 17.9271 20.0625 17.5938C20.0729 14.6769 20.1042 11.7602 20.1562 8.84375C21.0167 8.66931 21.8709 8.50262 22.7188 8.34375ZM15.2812 9.90625C15.4061 15.6559 15.4478 21.4267 15.4062 27.2188C14.5312 27.2188 13.6562 27.2188 12.7812 27.2188C12.7812 24.1354 12.7812 21.0521 12.7812 17.9688C13.2935 17.9669 13.4914 17.7169 13.375 17.2188C13.3438 17.1042 13.2708 17.0312 13.1562 17C10.0938 16.9583 7.03125 16.9583 3.96875 17C3.85417 17.0312 3.78125 17.1042 3.75 17.2188C3.63356 17.7169 3.83147 17.9669 4.34375 17.9688C4.34375 21.0521 4.34375 24.1354 4.34375 27.2188C3.40625 27.2188 2.46875 27.2188 1.53125 27.2188C1.52083 23.1354 1.53125 19.052 1.5625 14.9688C4.83269 13.3438 8.21813 12 11.7188 10.9375C12.9108 10.5825 14.0983 10.2387 15.2812 9.90625ZM25.1562 16.7812C25.316 16.8464 25.4514 16.9506 25.5625 17.0938C26.2882 18.4131 26.6424 19.8298 26.625 21.3438C26.7222 21.7607 26.9826 21.8962 27.4062 21.75C28.0441 20.7577 28.8358 19.9036 29.7812 19.1875C30.118 18.9774 30.4721 18.8004 30.8438 18.6562C30.8907 18.711 30.9219 18.7735 30.9375 18.8438C30.9836 19.3672 30.9628 19.888 30.875 20.4062C30.3773 22.7956 29.5232 25.0456 28.3125 27.1562C25.494 27.2289 22.6711 27.2394 19.8438 27.1875C19.0026 26.3698 18.5026 25.3801 18.3438 24.2188C18.5975 24.2178 18.8475 24.2491 19.0938 24.3125C19.5832 24.4689 20.0519 24.6668 20.5 24.9062C20.9233 24.8671 21.0899 24.6379 21 24.2188C20.3579 22.7589 20.0871 21.2381 20.1875 19.6562C20.2068 19.6058 20.238 19.5641 20.2812 19.5312C20.7884 19.7118 21.2467 19.9721 21.6562 20.3125C22.1771 20.75 22.6562 21.2292 23.0938 21.75C23.3277 21.8081 23.5465 21.7768 23.75 21.6562C23.8072 20.2039 24.1197 18.808 24.6875 17.4688C24.8331 17.2299 24.9894 17.0007 25.1562 16.7812ZM5.28125 17.9688C5.59375 17.9688 5.90625 17.9688 6.21875 17.9688C6.21875 21.0521 6.21875 24.1354 6.21875 27.2188C5.90625 27.2188 5.59375 27.2188 5.28125 27.2188C5.28125 24.1354 5.28125 21.0521 5.28125 17.9688ZM30.3438 25.3438C30.4059 25.9574 30.4267 26.5824 30.4062 27.2188C30.091 27.2392 29.7785 27.2184 29.4688 27.1562C29.8112 26.5756 30.1029 25.9714 30.3438 25.3438Z" stroke="#501414" stroke-width="0.6" mask="url(#path-1-outside-1_88_14)"/>
</g>
</g>
<defs>
<clipPath id="clip0_88_14">
<rect width="32" height="32" fill="white" transform="translate(0 0.5)"/>
</clipPath>
</defs>
</svg>
