<svg width="32" height="33" viewBox="0 0 32 33" fill="none" xmlns="http://www.w3.org/2000/svg">
<g clip-path="url(#clip0_88_27)">
<path opacity="0.992" fill-rule="evenodd" clip-rule="evenodd" d="M31.9688 8.15625C31.9688 13.6979 31.9688 19.2396 31.9688 24.7813C31.5222 26.8011 30.3139 28.1449 28.3438 28.8125C27.6508 29.0109 26.9633 29.0109 26.2812 28.8125C25.7472 28.4353 25.5701 27.9249 25.75 27.2813C25.8854 26.8958 26.1458 26.6354 26.5312 26.5C27.5964 26.5351 28.4401 26.1288 29.0625 25.2813C29.2159 25.0293 29.3201 24.7585 29.375 24.4688C29.4778 19.3036 29.4986 14.1369 29.4375 8.96875C29.2812 7.47919 28.4583 6.65625 26.9688 6.5C23.7188 6.46875 20.4688 6.45833 17.2188 6.46875C17.2188 13.1354 17.2188 19.8021 17.2188 26.4688C17.9899 26.4583 18.7607 26.4688 19.5312 26.5C20.2345 26.8339 20.4949 27.386 20.3125 28.1563C20.1771 28.5417 19.9167 28.8021 19.5312 28.9375C17.1562 28.9792 14.7812 28.9792 12.4062 28.9375C11.703 28.6036 11.4426 28.0515 11.625 27.2813C11.7604 26.8958 12.0208 26.6354 12.4062 26.5C13.1768 26.4688 13.9476 26.4583 14.7188 26.4688C14.7188 19.8021 14.7188 13.1354 14.7188 6.46875C11.4687 6.45833 8.21869 6.46875 4.96875 6.5C3.47917 6.65625 2.65625 7.47919 2.5 8.96875C2.43889 14.1369 2.45973 19.3036 2.5625 24.4688C2.78503 25.3788 3.33711 25.9934 4.21875 26.3125C4.61181 26.3903 5.00764 26.4528 5.40625 26.5C6.10952 26.8339 6.36994 27.386 6.1875 28.1563C5.92321 28.773 5.45446 29.0438 4.78125 28.9688C2.67302 28.85 1.18344 27.8292 0.3125 25.9063C0.177023 25.5293 0.0624389 25.1543 -0.03125 24.7813C-0.03125 19.2396 -0.03125 13.6979 -0.03125 8.15625C0.457515 5.86543 1.85335 4.48001 4.15625 4C12.0312 3.95833 19.9062 3.95833 27.7812 4C30.0583 4.50511 31.4541 5.89053 31.9688 8.15625Z" fill="#501414"/>
<path opacity="0.985" fill-rule="evenodd" clip-rule="evenodd" d="M5.59375 11.4688C6.78144 11.4583 7.96894 11.4688 9.15625 11.5C11.4262 12.0902 12.4574 13.5589 12.25 15.9063C11.91 17.4129 11.0037 18.4026 9.53125 18.875C8.78456 18.9619 8.03456 18.9932 7.28125 18.9688C7.29162 19.5316 7.28125 20.0941 7.25 20.6563C6.91606 21.3595 6.364 21.6199 5.59375 21.4375C5.20833 21.3021 4.94792 21.0417 4.8125 20.6563C4.77083 17.8646 4.77083 15.0729 4.8125 12.2813C4.95957 11.8947 5.21999 11.6239 5.59375 11.4688ZM7.28125 13.9688C7.28125 14.8021 7.28125 15.6354 7.28125 16.4688C7.69844 16.4791 8.11512 16.4688 8.53125 16.4375C9.10231 16.4074 9.48775 16.1262 9.6875 15.5938C9.84331 14.6648 9.45787 14.1336 8.53125 14C8.11512 13.9688 7.69844 13.9584 7.28125 13.9688Z" fill="#501414"/>
</g>
<defs>
<clipPath id="clip0_88_27">
<rect width="32" height="32" fill="white" transform="translate(0 0.5)"/>
</clipPath>
</defs>
</svg>
