<svg width="32" height="33" viewBox="0 0 32 33" fill="none" xmlns="http://www.w3.org/2000/svg">
<g clip-path="url(#clip0_88_37)">
<path opacity="0.971" fill-rule="evenodd" clip-rule="evenodd" d="M8.03125 0.46875C8.28125 0.46875 8.53125 0.46875 8.78125 0.46875C9.01181 0.626784 9.18888 0.835117 9.3125 1.09375C9.34375 1.50989 9.35413 1.92656 9.34375 2.34375C11.2188 2.34375 13.0938 2.34375 14.9688 2.34375C14.9508 1.90231 14.982 1.46481 15.0625 1.03125C15.168 0.769676 15.3451 0.582176 15.5938 0.46875C15.8438 0.46875 16.0938 0.46875 16.3438 0.46875C16.5924 0.582176 16.7695 0.769676 16.875 1.03125C16.9555 1.46481 16.9867 1.90231 16.9688 2.34375C18.8438 2.34375 20.7188 2.34375 22.5938 2.34375C22.5834 1.92656 22.5938 1.50989 22.625 1.09375C22.7486 0.835117 22.9257 0.626784 23.1562 0.46875C23.4062 0.46875 23.6562 0.46875 23.9062 0.46875C24.1549 0.582176 24.332 0.769676 24.4375 1.03125C24.524 1.4632 24.5553 1.9007 24.5312 2.34375C27.9139 2.17474 30.2786 3.63307 31.625 6.71875C31.7684 7.15712 31.883 7.59462 31.9688 8.03125C31.9688 8.63544 31.9688 9.23956 31.9688 9.84375C31.3547 13.0098 29.4589 14.8953 26.2812 15.5C25.6983 15.5312 25.1149 15.5416 24.5312 15.5312C24.5312 16.1562 24.5312 16.7812 24.5312 17.4062C27.3902 17.1847 29.5881 18.2681 31.125 20.6562C31.5394 21.4309 31.8206 22.2434 31.9688 23.0938C31.9688 23.6979 31.9688 24.3021 31.9688 24.9062C31.2989 28.0864 29.3614 29.9719 26.1562 30.5625C25.615 30.5938 25.0733 30.6041 24.5312 30.5938C24.5553 31.0368 24.524 31.4743 24.4375 31.9062C24.332 32.1678 24.1549 32.3553 23.9062 32.4688C23.6771 32.4688 23.4479 32.4688 23.2188 32.4688C22.9509 32.3361 22.753 32.1278 22.625 31.8438C22.5938 31.4276 22.5834 31.0109 22.5938 30.5938C20.7188 30.5938 18.8438 30.5938 16.9688 30.5938C16.9867 31.0352 16.9555 31.4727 16.875 31.9062C16.7695 32.1678 16.5924 32.3553 16.3438 32.4688C16.0938 32.4688 15.8438 32.4688 15.5938 32.4688C15.3451 32.3553 15.168 32.1678 15.0625 31.9062C14.982 31.4727 14.9508 31.0352 14.9688 30.5938C13.0938 30.5938 11.2188 30.5938 9.34375 30.5938C9.35413 31.0109 9.34375 31.4276 9.3125 31.8438C9.1845 32.1278 8.98656 32.3361 8.71875 32.4688C8.48956 32.4688 8.26044 32.4688 8.03125 32.4688C7.78256 32.3553 7.6055 32.1678 7.5 31.9062C7.4135 31.4743 7.38225 31.0368 7.40625 30.5938C5.59061 30.6229 3.77811 30.5917 1.96875 30.5C0.925994 30.1553 0.259325 29.4574 -0.03125 28.4062C-0.03125 27.9896 -0.03125 27.5729 -0.03125 27.1562C0.332182 25.9284 1.14468 25.1888 2.40625 24.9375C4.07279 24.9062 5.73946 24.8958 7.40625 24.9062C7.40625 24.3021 7.40625 23.6979 7.40625 23.0938C3.92327 23.2652 1.53786 21.7444 0.25 18.5312C0.143125 18.1512 0.049375 17.7762 -0.03125 17.4062C-0.03125 16.8021 -0.03125 16.1979 -0.03125 15.5938C0.486794 12.8562 2.07013 11.0334 4.71875 10.125C5.60006 9.89937 6.49587 9.80562 7.40625 9.84375C7.40625 9.23956 7.40625 8.63544 7.40625 8.03125C5.73946 8.04169 4.07279 8.03125 2.40625 8C1.14468 7.74869 0.332182 7.00906 -0.03125 5.78125C-0.03125 5.36458 -0.03125 4.94792 -0.03125 4.53125C0.259325 3.48013 0.925994 2.78221 1.96875 2.4375C3.77811 2.34579 5.59061 2.31454 7.40625 2.34375C7.38225 1.9007 7.4135 1.4632 7.5 1.03125C7.6055 0.769676 7.78256 0.582176 8.03125 0.46875ZM2.53125 4.28125C4.15625 4.28125 5.78125 4.28125 7.40625 4.28125C7.40625 4.88542 7.40625 5.48958 7.40625 6.09375C5.73557 6.12334 4.0689 6.09209 2.40625 6C1.91324 5.69014 1.77782 5.26306 2 4.71875C2.15258 4.53415 2.32966 4.38832 2.53125 4.28125ZM9.34375 4.28125C11.2188 4.28125 13.0938 4.28125 14.9688 4.28125C14.9688 4.88542 14.9688 5.48958 14.9688 6.09375C13.0938 6.09375 11.2188 6.09375 9.34375 6.09375C9.34375 5.48958 9.34375 4.88542 9.34375 4.28125ZM16.9688 4.28125C18.8438 4.28125 20.7188 4.28125 22.5938 4.28125C22.5938 4.88542 22.5938 5.48958 22.5938 6.09375C20.7188 6.09375 18.8438 6.09375 16.9688 6.09375C16.9688 5.48958 16.9688 4.88542 16.9688 4.28125ZM24.5312 4.28125C26.9712 4.08977 28.7108 5.08977 29.75 7.28125C30.4613 9.68944 29.7842 11.5957 27.7188 13C26.7205 13.5309 25.658 13.7288 24.5312 13.5938C24.5312 12.9896 24.5312 12.3854 24.5312 11.7812C26.1623 12.0232 27.3393 11.4191 28.0625 9.96875C28.482 8.63594 28.1591 7.52138 27.0938 6.625C26.3083 6.14078 25.4541 5.96369 24.5312 6.09375C24.5312 5.48958 24.5312 4.88542 24.5312 4.28125ZM9.34375 8.03125C11.2188 8.03125 13.0938 8.03125 14.9688 8.03125C14.9688 8.63544 14.9688 9.23956 14.9688 9.84375C13.0938 9.84375 11.2188 9.84375 9.34375 9.84375C9.34375 9.23956 9.34375 8.63544 9.34375 8.03125ZM16.9688 8.03125C18.8438 8.03125 20.7188 8.03125 22.5938 8.03125C22.5938 8.63544 22.5938 9.23956 22.5938 9.84375C20.7188 9.84375 18.8438 9.84375 16.9688 9.84375C16.9688 9.23956 16.9688 8.63544 16.9688 8.03125ZM24.5312 8.03125C24.886 8.02087 25.2402 8.03131 25.5938 8.0625C26.1438 8.256 26.3626 8.64144 26.25 9.21875C26.1354 9.5 25.9375 9.69794 25.6562 9.8125C25.2818 9.84369 24.9068 9.85413 24.5312 9.84375C24.5312 9.23956 24.5312 8.63544 24.5312 8.03125ZM6.28125 11.7812C6.65625 11.7812 7.03125 11.7812 7.40625 11.7812C7.40625 12.3854 7.40625 12.9896 7.40625 13.5938C6.22273 13.4333 5.21231 13.7666 4.375 14.5938C3.67557 15.5294 3.52974 16.5503 3.9375 17.6562C4.32571 18.4819 4.96113 19.0131 5.84375 19.25C6.36131 19.3304 6.88212 19.3617 7.40625 19.3438C7.40625 19.9479 7.40625 20.5521 7.40625 21.1562C4.96027 21.3559 3.22069 20.3559 2.1875 18.1562C1.46365 15.6811 2.1824 13.7541 4.34375 12.375C4.96476 12.0671 5.61059 11.8692 6.28125 11.7812ZM9.34375 11.7812C11.2188 11.7812 13.0938 11.7812 14.9688 11.7812C14.9688 12.3854 14.9688 12.9896 14.9688 13.5938C13.0938 13.5938 11.2188 13.5938 9.34375 13.5938C9.34375 12.9896 9.34375 12.3854 9.34375 11.7812ZM16.9688 11.7812C18.8438 11.7812 20.7188 11.7812 22.5938 11.7812C22.5938 12.3854 22.5938 12.9896 22.5938 13.5938C20.7188 13.5938 18.8438 13.5938 16.9688 13.5938C16.9688 12.9896 16.9688 12.3854 16.9688 11.7812ZM6.53125 15.5312C6.82294 15.5312 7.11456 15.5312 7.40625 15.5312C7.40625 16.1562 7.40625 16.7812 7.40625 17.4062C7.00469 17.4294 6.60887 17.3981 6.21875 17.3125C5.66987 17.0364 5.51362 16.6094 5.75 16.0312C5.94317 15.7429 6.20359 15.5763 6.53125 15.5312ZM9.34375 15.5312C11.2188 15.5312 13.0938 15.5312 14.9688 15.5312C14.9688 16.1562 14.9688 16.7812 14.9688 17.4062C13.0938 17.4062 11.2188 17.4062 9.34375 17.4062C9.34375 16.7812 9.34375 16.1562 9.34375 15.5312ZM16.9688 15.5312C18.8438 15.5312 20.7188 15.5312 22.5938 15.5312C22.5938 16.1562 22.5938 16.7812 22.5938 17.4062C20.7188 17.4062 18.8438 17.4062 16.9688 17.4062C16.9688 16.7812 16.9688 16.1562 16.9688 15.5312ZM9.34375 19.3438C11.2188 19.3438 13.0938 19.3438 14.9688 19.3438C14.9688 19.9479 14.9688 20.5521 14.9688 21.1562C13.0938 21.1562 11.2188 21.1562 9.34375 21.1562C9.34375 20.5521 9.34375 19.9479 9.34375 19.3438ZM16.9688 19.3438C18.8438 19.3438 20.7188 19.3438 22.5938 19.3438C22.5938 19.9479 22.5938 20.5521 22.5938 21.1562C20.7188 21.1562 18.8438 21.1562 16.9688 21.1562C16.9688 20.5521 16.9688 19.9479 16.9688 19.3438ZM24.5312 19.3438C26.8995 19.116 28.6182 20.0535 29.6875 22.1562C30.5148 24.6537 29.8377 26.6224 27.6562 28.0625C26.677 28.5764 25.6353 28.7744 24.5312 28.6562C24.5312 28.0521 24.5312 27.4479 24.5312 26.8438C26.1587 27.0875 27.3358 26.4833 28.0625 25.0312C28.4809 23.6933 28.1579 22.5787 27.0938 21.6875C26.3111 21.1946 25.4569 21.0175 24.5312 21.1562C24.5312 20.5521 24.5312 19.9479 24.5312 19.3438ZM9.34375 23.0938C11.2188 23.0938 13.0938 23.0938 14.9688 23.0938C14.9688 23.6979 14.9688 24.3021 14.9688 24.9062C13.0938 24.9062 11.2188 24.9062 9.34375 24.9062C9.34375 24.3021 9.34375 23.6979 9.34375 23.0938ZM16.9688 23.0938C18.8438 23.0938 20.7188 23.0938 22.5938 23.0938C22.5938 23.6979 22.5938 24.3021 22.5938 24.9062C20.7188 24.9062 18.8438 24.9062 16.9688 24.9062C16.9688 24.3021 16.9688 23.6979 16.9688 23.0938ZM24.5312 23.0938C24.9068 23.0834 25.2818 23.0938 25.6562 23.125C26.1602 23.3518 26.3582 23.7372 26.25 24.2812C26.1296 24.5893 25.9108 24.7871 25.5938 24.875C25.2402 24.9062 24.886 24.9166 24.5312 24.9062C24.5312 24.3021 24.5312 23.6979 24.5312 23.0938ZM2.59375 26.8438C4.19792 26.8438 5.80208 26.8438 7.40625 26.8438C7.40625 27.4479 7.40625 28.0521 7.40625 28.6562C5.78112 28.6667 4.15612 28.6562 2.53125 28.625C1.88895 28.3227 1.7327 27.8539 2.0625 27.2188C2.22946 27.0686 2.40654 26.9436 2.59375 26.8438ZM9.34375 26.8438C11.2188 26.8438 13.0938 26.8438 14.9688 26.8438C14.9688 27.4479 14.9688 28.0521 14.9688 28.6562C13.0938 28.6562 11.2188 28.6562 9.34375 28.6562C9.34375 28.0521 9.34375 27.4479 9.34375 26.8438ZM16.9688 26.8438C18.8438 26.8438 20.7188 26.8438 22.5938 26.8438C22.5938 27.4479 22.5938 28.0521 22.5938 28.6562C20.7188 28.6562 18.8438 28.6562 16.9688 28.6562C16.9688 28.0521 16.9688 27.4479 16.9688 26.8438Z" fill="#501414"/>
</g>
<defs>
<clipPath id="clip0_88_37">
<rect width="32" height="32" fill="white" transform="translate(0 0.5)"/>
</clipPath>
</defs>
</svg>
