<svg width="32" height="33" viewBox="0 0 32 33" fill="none" xmlns="http://www.w3.org/2000/svg">
<g clip-path="url(#clip0_130_209)">
<path opacity="0.97" fill-rule="evenodd" clip-rule="evenodd" d="M18.3438 0.46875C18.9479 0.46875 19.5521 0.46875 20.1562 0.46875C23.0055 0.973397 24.9118 2.5984 25.875 5.34375C26.0917 6.16276 26.2063 6.99606 26.2188 7.84375C28.6508 9.66006 29.5258 12.0559 28.8438 15.0312C31.3444 16.8133 32.2506 19.2092 31.5625 22.2188C30.711 24.6532 29.0131 26.1011 26.4688 26.5625C24.3855 26.5938 22.3022 26.6042 20.2188 26.5938C20.2188 27.9271 20.2188 29.2604 20.2188 30.5938C24.1354 30.5938 28.0521 30.5938 31.9688 30.5938C31.9688 31.2188 31.9688 31.8438 31.9688 32.4688C21.3021 32.4688 10.6354 32.4688 -0.03125 32.4688C-0.03125 31.8438 -0.03125 31.2188 -0.03125 30.5938C3.51042 30.5938 7.05206 30.5938 10.5938 30.5938C10.5938 29.2604 10.5938 27.9271 10.5938 26.5938C8.73944 26.6042 6.88531 26.5938 5.03125 26.5625C2.71979 26.1679 1.16771 24.8657 0.375 22.6562C-0.156469 20.7515 0.156031 19.0015 1.3125 17.4062C1.7771 16.9101 2.26668 16.4517 2.78125 16.0312C2.19511 13.3409 2.99719 11.1743 5.1875 9.53125C5.16984 6.99294 6.22192 5.04504 8.34375 3.6875C10.0586 2.75309 11.8398 2.59684 13.6875 3.21875C14.8827 1.69924 16.4347 0.782569 18.3438 0.46875ZM19.2188 2.34375C21.9846 2.5782 23.6408 4.05736 24.1875 6.78125C24.2472 7.46706 24.1951 8.14412 24.0312 8.8125C24.7945 9.17944 25.4716 9.66906 26.0625 10.2812C27.0447 11.5017 27.3572 12.8767 27 14.4062C26.8029 14.9775 26.5633 15.5296 26.2812 16.0625C26.7793 16.2906 27.2793 16.5198 27.7812 16.75C29.4721 17.8837 30.1283 19.4566 29.75 21.4688C29.2079 23.1984 28.0517 24.2505 26.2812 24.625C24.2605 24.6562 22.2397 24.6667 20.2188 24.6562C20.2083 23.8851 20.2188 23.1143 20.25 22.3438C21.6979 20.8958 23.1458 19.4479 24.5938 18C24.1449 17.5408 23.6866 17.0928 23.2188 16.6562C22.2196 17.6241 21.2301 18.6033 20.25 19.5938C20.2083 18.4479 20.2083 17.3021 20.25 16.1562C21.3672 15.0599 22.4609 13.9454 23.5312 12.8125C23.1268 12.3351 22.6893 11.8872 22.2188 11.4688C21.5529 12.1033 20.8967 12.7491 20.25 13.4062C20.2188 12.3231 20.2083 11.2398 20.2188 10.1562C19.5729 10.1562 18.9271 10.1562 18.2812 10.1562C18.2917 11.2398 18.2812 12.3231 18.25 13.4062C17.6033 12.7491 16.9471 12.1033 16.2812 11.4688C15.8021 11.9062 15.3438 12.3646 14.9062 12.8438C16.0096 13.9783 17.1241 15.1033 18.25 16.2188C18.2917 17.3646 18.2917 18.5104 18.25 19.6562C17.2491 18.6449 16.2387 17.6449 15.2188 16.6562C14.7509 17.0928 14.2926 17.5408 13.8438 18C15.3125 19.4688 16.7812 20.9375 18.25 22.4062C18.2812 23.1559 18.2917 23.9059 18.2812 24.6562C16.2603 24.6667 14.2395 24.6562 12.2188 24.625C10.4717 24.2528 9.31544 23.2215 8.75 21.5312C8.34594 19.5553 8.9605 17.9824 10.5938 16.8125C11.127 16.5378 11.6687 16.2878 12.2188 16.0625C11.0214 14.1493 11.0526 12.2639 12.3125 10.4062C12.8893 9.75331 13.5768 9.25331 14.375 8.90625C13.9214 6.76744 14.4943 4.96537 16.0938 3.5C17.0189 2.78552 18.0606 2.40011 19.2188 2.34375ZM11.0312 4.78125C11.5989 4.76438 12.1614 4.80605 12.7188 4.90625C12.4308 5.86304 12.285 6.84219 12.2812 7.84375C9.81856 9.65794 8.94356 12.0642 9.65625 15.0625C7.27694 16.6868 6.329 18.9263 6.8125 21.7812C7.04763 22.8662 7.53719 23.8141 8.28125 24.625C7.23956 24.6667 6.19792 24.6667 5.15625 24.625C3.25179 24.1474 2.21012 22.9286 2.03125 20.9688C2.10904 19.5939 2.71321 18.5211 3.84375 17.75C4.34063 17.5082 4.84063 17.2791 5.34375 17.0625C4.83978 16.2694 4.56895 15.4048 4.53125 14.4688C4.56297 13.2283 5.04214 12.197 5.96875 11.375C6.41888 11.0772 6.87725 10.7959 7.34375 10.5312C6.837 8.41044 7.462 6.71255 9.21875 5.4375C9.79169 5.10829 10.3959 4.88954 11.0312 4.78125ZM12.5312 26.5938C14.4479 26.5938 16.3646 26.5938 18.2812 26.5938C18.2812 27.9271 18.2812 29.2604 18.2812 30.5938C16.3646 30.5938 14.4479 30.5938 12.5312 30.5938C12.5312 29.2604 12.5312 27.9271 12.5312 26.5938Z" fill="#501414"/>
</g>
<defs>
<clipPath id="clip0_130_209">
<rect width="32" height="32" fill="white" transform="translate(0 0.5)"/>
</clipPath>
</defs>
</svg>
