<svg width="32" height="33" viewBox="0 0 32 33" fill="none" xmlns="http://www.w3.org/2000/svg">
<g clip-path="url(#clip0_88_33)">
<g opacity="0.941">
<mask id="path-1-outside-1_88_33" maskUnits="userSpaceOnUse" x="-1.03125" y="3.2793" width="34" height="26" fill="black">
<rect fill="white" x="-1.03125" y="3.2793" width="34" height="26"/>
<path fill-rule="evenodd" clip-rule="evenodd" d="M31.9688 27.8436C31.9688 28.0103 31.9688 28.1769 31.9688 28.3436C31.8403 28.5029 31.6736 28.5966 31.4688 28.6248C21.1354 28.6665 10.8021 28.6665 0.46875 28.6248C0.263902 28.5966 0.0972356 28.5029 -0.03125 28.3436C-0.03125 28.1769 -0.03125 28.0103 -0.03125 27.8436C0.0403988 27.7201 0.144566 27.6264 0.28125 27.5623C0.718256 27.5311 1.15576 27.5207 1.59375 27.5311C1.57063 27.0059 1.60188 26.4851 1.6875 25.9686C1.80449 25.776 1.95033 25.6093 2.125 25.4686C2.15625 21.3645 2.16667 17.2603 2.15625 13.1561C1.67005 13.1831 1.19089 13.1518 0.71875 13.0623C0.484455 12.86 0.432371 12.6205 0.5625 12.3436C2.25663 9.67052 3.97538 7.01427 5.71875 4.37483C9.13269 4.30243 12.5493 4.27118 15.9688 4.28108C19.3882 4.27118 22.8048 4.30243 26.2188 4.37483C27.9621 7.01427 29.6809 9.67052 31.375 12.3436C31.5051 12.6205 31.4531 12.86 31.2188 13.0623C30.7466 13.1518 30.2674 13.1831 29.7812 13.1561C29.7708 17.2603 29.7812 21.3645 29.8125 25.4686C29.9872 25.6093 30.133 25.776 30.25 25.9686C30.3356 26.4851 30.3669 27.0059 30.3438 27.5311C30.7817 27.5207 31.2192 27.5311 31.6562 27.5623C31.7929 27.6264 31.8971 27.7201 31.9688 27.8436ZM6.28125 5.40608C8.07306 5.39567 9.86469 5.40608 11.6562 5.43733C11.0903 7.62815 10.5487 9.82602 10.0312 12.0311C7.38531 12.0415 4.7395 12.0311 2.09375 11.9998C3.50523 9.80808 4.90106 7.61015 6.28125 5.40608ZM12.7812 5.40608C14.9067 5.38526 17.0317 5.40609 19.1562 5.46858C19.6979 7.63527 20.2396 9.8019 20.7812 11.9686C17.5729 12.0519 14.3646 12.0519 11.1562 11.9686C11.7079 9.7829 12.2496 7.5954 12.7812 5.40608ZM20.2812 5.46858C22.0627 5.38549 23.8543 5.38549 25.6562 5.46858C27.0599 7.64033 28.4557 9.81746 29.8438 11.9998C27.198 12.0311 24.5522 12.0415 21.9062 12.0311C21.3923 9.82958 20.8507 7.64208 20.2812 5.46858ZM3.21875 13.1561C3.69837 13.1457 4.17754 13.1561 4.65625 13.1873C4.1875 13.6561 3.71875 14.1248 3.25 14.5936C3.21877 14.1149 3.20835 13.6357 3.21875 13.1561ZM6.21875 13.1561C6.82325 13.1457 7.42744 13.1561 8.03125 13.1873C9 14.1561 9.96875 15.1248 10.9375 16.0936C10.9688 17.3226 10.9792 18.5518 10.9688 19.7811C8.38544 19.7811 5.80208 19.7811 3.21875 19.7811C3.20834 18.5726 3.21875 17.3642 3.25 16.1561C4.25219 15.1643 5.24178 14.1643 6.21875 13.1561ZM9.59375 13.2186C10.0405 13.1566 10.4988 13.1358 10.9688 13.1561C10.9791 13.6149 10.9688 14.0732 10.9375 14.5311C10.4978 14.0809 10.0499 13.6434 9.59375 13.2186ZM12.0938 13.1561C12.5526 13.1457 13.0109 13.1561 13.4688 13.1873C13.0208 13.6353 12.5729 14.0831 12.125 14.5311C12.0938 14.0732 12.0834 13.6149 12.0938 13.1561ZM15.0938 13.1561C15.6774 13.1457 16.2608 13.1561 16.8438 13.1873C17.8333 14.1769 18.8229 15.1665 19.8125 16.1561C19.8438 19.2185 19.8542 22.281 19.8438 25.3436C17.2604 25.3436 14.6771 25.3436 12.0938 25.3436C12.0833 22.281 12.0938 19.2185 12.125 16.1561C13.1272 15.1643 14.1167 14.1643 15.0938 13.1561ZM18.4688 13.2186C18.9155 13.1566 19.3738 13.1358 19.8438 13.1561C19.8541 13.6149 19.8438 14.0732 19.8125 14.5311C19.3728 14.0809 18.9249 13.6434 18.4688 13.2186ZM20.9688 13.1561C21.4276 13.1457 21.8859 13.1561 22.3438 13.1873C21.8958 13.6353 21.4479 14.0831 21 14.5311C20.9688 14.0732 20.9584 13.6149 20.9688 13.1561ZM23.9062 13.1561C24.5107 13.1457 25.1149 13.1561 25.7188 13.1873C26.7083 14.1769 27.6979 15.1665 28.6875 16.1561C28.7188 17.3642 28.7292 18.5726 28.7188 19.7811C26.1354 19.7811 23.5521 19.7811 20.9688 19.7811C20.9583 18.5518 20.9688 17.3226 21 16.0936C21.9814 15.1226 22.9501 14.1435 23.9062 13.1561ZM27.2812 13.2186C27.7489 13.1566 28.228 13.1358 28.7188 13.1561C28.7291 13.6357 28.7188 14.1149 28.6875 14.5936C28.227 14.1226 27.7582 13.6643 27.2812 13.2186ZM3.21875 20.9061C3.59375 20.9061 3.96875 20.9061 4.34375 20.9061C4.34375 22.3853 4.34375 23.8644 4.34375 25.3436C3.96875 25.3436 3.59375 25.3436 3.21875 25.3436C3.21875 23.8644 3.21875 22.3853 3.21875 20.9061ZM5.46875 20.9061C5.84375 20.9061 6.21875 20.9061 6.59375 20.9061C6.59375 22.3853 6.59375 23.8644 6.59375 25.3436C6.21875 25.3436 5.84375 25.3436 5.46875 25.3436C5.46875 23.8644 5.46875 22.3853 5.46875 20.9061ZM7.65625 20.9061C8.03125 20.9061 8.40625 20.9061 8.78125 20.9061C8.78125 22.3853 8.78125 23.8644 8.78125 25.3436C8.40625 25.3436 8.03125 25.3436 7.65625 25.3436C7.65625 23.8644 7.65625 22.3853 7.65625 20.9061ZM9.90625 20.9061C10.2604 20.9061 10.6146 20.9061 10.9688 20.9061C10.9688 22.3853 10.9688 23.8644 10.9688 25.3436C10.6146 25.3436 10.2604 25.3436 9.90625 25.3436C9.90625 23.8644 9.90625 22.3853 9.90625 20.9061ZM20.9688 20.9061C21.3229 20.9061 21.6771 20.9061 22.0312 20.9061C22.0312 22.3853 22.0312 23.8644 22.0312 25.3436C21.6771 25.3436 21.3229 25.3436 20.9688 25.3436C20.9688 23.8644 20.9688 22.3853 20.9688 20.9061ZM23.1562 20.9061C23.5312 20.9061 23.9062 20.9061 24.2812 20.9061C24.2812 22.3853 24.2812 23.8644 24.2812 25.3436C23.9062 25.3436 23.5312 25.3436 23.1562 25.3436C23.1562 23.8644 23.1562 22.3853 23.1562 20.9061ZM25.3438 20.9061C25.7188 20.9061 26.0938 20.9061 26.4688 20.9061C26.4688 22.3853 26.4688 23.8644 26.4688 25.3436C26.0938 25.3436 25.7188 25.3436 25.3438 25.3436C25.3438 23.8644 25.3438 22.3853 25.3438 20.9061ZM27.5938 20.9061C27.9688 20.9061 28.3438 20.9061 28.7188 20.9061C28.7188 22.3853 28.7188 23.8644 28.7188 25.3436C28.3438 25.3436 27.9688 25.3436 27.5938 25.3436C27.5938 23.8644 27.5938 22.3853 27.5938 20.9061ZM2.71875 26.4061C11.5521 26.4061 20.3854 26.4061 29.2188 26.4061C29.2188 26.7811 29.2188 27.1561 29.2188 27.5311C20.3854 27.5311 11.5521 27.5311 2.71875 27.5311C2.71875 27.1561 2.71875 26.7811 2.71875 26.4061Z"/>
</mask>
<path fill-rule="evenodd" clip-rule="evenodd" d="M31.9688 27.8436C31.9688 28.0103 31.9688 28.1769 31.9688 28.3436C31.8403 28.5029 31.6736 28.5966 31.4688 28.6248C21.1354 28.6665 10.8021 28.6665 0.46875 28.6248C0.263902 28.5966 0.0972356 28.5029 -0.03125 28.3436C-0.03125 28.1769 -0.03125 28.0103 -0.03125 27.8436C0.0403988 27.7201 0.144566 27.6264 0.28125 27.5623C0.718256 27.5311 1.15576 27.5207 1.59375 27.5311C1.57063 27.0059 1.60188 26.4851 1.6875 25.9686C1.80449 25.776 1.95033 25.6093 2.125 25.4686C2.15625 21.3645 2.16667 17.2603 2.15625 13.1561C1.67005 13.1831 1.19089 13.1518 0.71875 13.0623C0.484455 12.86 0.432371 12.6205 0.5625 12.3436C2.25663 9.67052 3.97538 7.01427 5.71875 4.37483C9.13269 4.30243 12.5493 4.27118 15.9688 4.28108C19.3882 4.27118 22.8048 4.30243 26.2188 4.37483C27.9621 7.01427 29.6809 9.67052 31.375 12.3436C31.5051 12.6205 31.4531 12.86 31.2188 13.0623C30.7466 13.1518 30.2674 13.1831 29.7812 13.1561C29.7708 17.2603 29.7812 21.3645 29.8125 25.4686C29.9872 25.6093 30.133 25.776 30.25 25.9686C30.3356 26.4851 30.3669 27.0059 30.3438 27.5311C30.7817 27.5207 31.2192 27.5311 31.6562 27.5623C31.7929 27.6264 31.8971 27.7201 31.9688 27.8436ZM6.28125 5.40608C8.07306 5.39567 9.86469 5.40608 11.6562 5.43733C11.0903 7.62815 10.5487 9.82602 10.0312 12.0311C7.38531 12.0415 4.7395 12.0311 2.09375 11.9998C3.50523 9.80808 4.90106 7.61015 6.28125 5.40608ZM12.7812 5.40608C14.9067 5.38526 17.0317 5.40609 19.1562 5.46858C19.6979 7.63527 20.2396 9.8019 20.7812 11.9686C17.5729 12.0519 14.3646 12.0519 11.1562 11.9686C11.7079 9.7829 12.2496 7.5954 12.7812 5.40608ZM20.2812 5.46858C22.0627 5.38549 23.8543 5.38549 25.6562 5.46858C27.0599 7.64033 28.4557 9.81746 29.8438 11.9998C27.198 12.0311 24.5522 12.0415 21.9062 12.0311C21.3923 9.82958 20.8507 7.64208 20.2812 5.46858ZM3.21875 13.1561C3.69837 13.1457 4.17754 13.1561 4.65625 13.1873C4.1875 13.6561 3.71875 14.1248 3.25 14.5936C3.21877 14.1149 3.20835 13.6357 3.21875 13.1561ZM6.21875 13.1561C6.82325 13.1457 7.42744 13.1561 8.03125 13.1873C9 14.1561 9.96875 15.1248 10.9375 16.0936C10.9688 17.3226 10.9792 18.5518 10.9688 19.7811C8.38544 19.7811 5.80208 19.7811 3.21875 19.7811C3.20834 18.5726 3.21875 17.3642 3.25 16.1561C4.25219 15.1643 5.24178 14.1643 6.21875 13.1561ZM9.59375 13.2186C10.0405 13.1566 10.4988 13.1358 10.9688 13.1561C10.9791 13.6149 10.9688 14.0732 10.9375 14.5311C10.4978 14.0809 10.0499 13.6434 9.59375 13.2186ZM12.0938 13.1561C12.5526 13.1457 13.0109 13.1561 13.4688 13.1873C13.0208 13.6353 12.5729 14.0831 12.125 14.5311C12.0938 14.0732 12.0834 13.6149 12.0938 13.1561ZM15.0938 13.1561C15.6774 13.1457 16.2608 13.1561 16.8438 13.1873C17.8333 14.1769 18.8229 15.1665 19.8125 16.1561C19.8438 19.2185 19.8542 22.281 19.8438 25.3436C17.2604 25.3436 14.6771 25.3436 12.0938 25.3436C12.0833 22.281 12.0938 19.2185 12.125 16.1561C13.1272 15.1643 14.1167 14.1643 15.0938 13.1561ZM18.4688 13.2186C18.9155 13.1566 19.3738 13.1358 19.8438 13.1561C19.8541 13.6149 19.8438 14.0732 19.8125 14.5311C19.3728 14.0809 18.9249 13.6434 18.4688 13.2186ZM20.9688 13.1561C21.4276 13.1457 21.8859 13.1561 22.3438 13.1873C21.8958 13.6353 21.4479 14.0831 21 14.5311C20.9688 14.0732 20.9584 13.6149 20.9688 13.1561ZM23.9062 13.1561C24.5107 13.1457 25.1149 13.1561 25.7188 13.1873C26.7083 14.1769 27.6979 15.1665 28.6875 16.1561C28.7188 17.3642 28.7292 18.5726 28.7188 19.7811C26.1354 19.7811 23.5521 19.7811 20.9688 19.7811C20.9583 18.5518 20.9688 17.3226 21 16.0936C21.9814 15.1226 22.9501 14.1435 23.9062 13.1561ZM27.2812 13.2186C27.7489 13.1566 28.228 13.1358 28.7188 13.1561C28.7291 13.6357 28.7188 14.1149 28.6875 14.5936C28.227 14.1226 27.7582 13.6643 27.2812 13.2186ZM3.21875 20.9061C3.59375 20.9061 3.96875 20.9061 4.34375 20.9061C4.34375 22.3853 4.34375 23.8644 4.34375 25.3436C3.96875 25.3436 3.59375 25.3436 3.21875 25.3436C3.21875 23.8644 3.21875 22.3853 3.21875 20.9061ZM5.46875 20.9061C5.84375 20.9061 6.21875 20.9061 6.59375 20.9061C6.59375 22.3853 6.59375 23.8644 6.59375 25.3436C6.21875 25.3436 5.84375 25.3436 5.46875 25.3436C5.46875 23.8644 5.46875 22.3853 5.46875 20.9061ZM7.65625 20.9061C8.03125 20.9061 8.40625 20.9061 8.78125 20.9061C8.78125 22.3853 8.78125 23.8644 8.78125 25.3436C8.40625 25.3436 8.03125 25.3436 7.65625 25.3436C7.65625 23.8644 7.65625 22.3853 7.65625 20.9061ZM9.90625 20.9061C10.2604 20.9061 10.6146 20.9061 10.9688 20.9061C10.9688 22.3853 10.9688 23.8644 10.9688 25.3436C10.6146 25.3436 10.2604 25.3436 9.90625 25.3436C9.90625 23.8644 9.90625 22.3853 9.90625 20.9061ZM20.9688 20.9061C21.3229 20.9061 21.6771 20.9061 22.0312 20.9061C22.0312 22.3853 22.0312 23.8644 22.0312 25.3436C21.6771 25.3436 21.3229 25.3436 20.9688 25.3436C20.9688 23.8644 20.9688 22.3853 20.9688 20.9061ZM23.1562 20.9061C23.5312 20.9061 23.9062 20.9061 24.2812 20.9061C24.2812 22.3853 24.2812 23.8644 24.2812 25.3436C23.9062 25.3436 23.5312 25.3436 23.1562 25.3436C23.1562 23.8644 23.1562 22.3853 23.1562 20.9061ZM25.3438 20.9061C25.7188 20.9061 26.0938 20.9061 26.4688 20.9061C26.4688 22.3853 26.4688 23.8644 26.4688 25.3436C26.0938 25.3436 25.7188 25.3436 25.3438 25.3436C25.3438 23.8644 25.3438 22.3853 25.3438 20.9061ZM27.5938 20.9061C27.9688 20.9061 28.3438 20.9061 28.7188 20.9061C28.7188 22.3853 28.7188 23.8644 28.7188 25.3436C28.3438 25.3436 27.9688 25.3436 27.5938 25.3436C27.5938 23.8644 27.5938 22.3853 27.5938 20.9061ZM2.71875 26.4061C11.5521 26.4061 20.3854 26.4061 29.2188 26.4061C29.2188 26.7811 29.2188 27.1561 29.2188 27.5311C20.3854 27.5311 11.5521 27.5311 2.71875 27.5311C2.71875 27.1561 2.71875 26.7811 2.71875 26.4061Z" fill="#501414"/>
<path fill-rule="evenodd" clip-rule="evenodd" d="M31.9688 27.8436C31.9688 28.0103 31.9688 28.1769 31.9688 28.3436C31.8403 28.5029 31.6736 28.5966 31.4688 28.6248C21.1354 28.6665 10.8021 28.6665 0.46875 28.6248C0.263902 28.5966 0.0972356 28.5029 -0.03125 28.3436C-0.03125 28.1769 -0.03125 28.0103 -0.03125 27.8436C0.0403988 27.7201 0.144566 27.6264 0.28125 27.5623C0.718256 27.5311 1.15576 27.5207 1.59375 27.5311C1.57063 27.0059 1.60188 26.4851 1.6875 25.9686C1.80449 25.776 1.95033 25.6093 2.125 25.4686C2.15625 21.3645 2.16667 17.2603 2.15625 13.1561C1.67005 13.1831 1.19089 13.1518 0.71875 13.0623C0.484455 12.86 0.432371 12.6205 0.5625 12.3436C2.25663 9.67052 3.97538 7.01427 5.71875 4.37483C9.13269 4.30243 12.5493 4.27118 15.9688 4.28108C19.3882 4.27118 22.8048 4.30243 26.2188 4.37483C27.9621 7.01427 29.6809 9.67052 31.375 12.3436C31.5051 12.6205 31.4531 12.86 31.2188 13.0623C30.7466 13.1518 30.2674 13.1831 29.7812 13.1561C29.7708 17.2603 29.7812 21.3645 29.8125 25.4686C29.9872 25.6093 30.133 25.776 30.25 25.9686C30.3356 26.4851 30.3669 27.0059 30.3438 27.5311C30.7817 27.5207 31.2192 27.5311 31.6562 27.5623C31.7929 27.6264 31.8971 27.7201 31.9688 27.8436ZM6.28125 5.40608C8.07306 5.39567 9.86469 5.40608 11.6562 5.43733C11.0903 7.62815 10.5487 9.82602 10.0312 12.0311C7.38531 12.0415 4.7395 12.0311 2.09375 11.9998C3.50523 9.80808 4.90106 7.61015 6.28125 5.40608ZM12.7812 5.40608C14.9067 5.38526 17.0317 5.40609 19.1562 5.46858C19.6979 7.63527 20.2396 9.8019 20.7812 11.9686C17.5729 12.0519 14.3646 12.0519 11.1562 11.9686C11.7079 9.7829 12.2496 7.5954 12.7812 5.40608ZM20.2812 5.46858C22.0627 5.38549 23.8543 5.38549 25.6562 5.46858C27.0599 7.64033 28.4557 9.81746 29.8438 11.9998C27.198 12.0311 24.5522 12.0415 21.9062 12.0311C21.3923 9.82958 20.8507 7.64208 20.2812 5.46858ZM3.21875 13.1561C3.69837 13.1457 4.17754 13.1561 4.65625 13.1873C4.1875 13.6561 3.71875 14.1248 3.25 14.5936C3.21877 14.1149 3.20835 13.6357 3.21875 13.1561ZM6.21875 13.1561C6.82325 13.1457 7.42744 13.1561 8.03125 13.1873C9 14.1561 9.96875 15.1248 10.9375 16.0936C10.9688 17.3226 10.9792 18.5518 10.9688 19.7811C8.38544 19.7811 5.80208 19.7811 3.21875 19.7811C3.20834 18.5726 3.21875 17.3642 3.25 16.1561C4.25219 15.1643 5.24178 14.1643 6.21875 13.1561ZM9.59375 13.2186C10.0405 13.1566 10.4988 13.1358 10.9688 13.1561C10.9791 13.6149 10.9688 14.0732 10.9375 14.5311C10.4978 14.0809 10.0499 13.6434 9.59375 13.2186ZM12.0938 13.1561C12.5526 13.1457 13.0109 13.1561 13.4688 13.1873C13.0208 13.6353 12.5729 14.0831 12.125 14.5311C12.0938 14.0732 12.0834 13.6149 12.0938 13.1561ZM15.0938 13.1561C15.6774 13.1457 16.2608 13.1561 16.8438 13.1873C17.8333 14.1769 18.8229 15.1665 19.8125 16.1561C19.8438 19.2185 19.8542 22.281 19.8438 25.3436C17.2604 25.3436 14.6771 25.3436 12.0938 25.3436C12.0833 22.281 12.0938 19.2185 12.125 16.1561C13.1272 15.1643 14.1167 14.1643 15.0938 13.1561ZM18.4688 13.2186C18.9155 13.1566 19.3738 13.1358 19.8438 13.1561C19.8541 13.6149 19.8438 14.0732 19.8125 14.5311C19.3728 14.0809 18.9249 13.6434 18.4688 13.2186ZM20.9688 13.1561C21.4276 13.1457 21.8859 13.1561 22.3438 13.1873C21.8958 13.6353 21.4479 14.0831 21 14.5311C20.9688 14.0732 20.9584 13.6149 20.9688 13.1561ZM23.9062 13.1561C24.5107 13.1457 25.1149 13.1561 25.7188 13.1873C26.7083 14.1769 27.6979 15.1665 28.6875 16.1561C28.7188 17.3642 28.7292 18.5726 28.7188 19.7811C26.1354 19.7811 23.5521 19.7811 20.9688 19.7811C20.9583 18.5518 20.9688 17.3226 21 16.0936C21.9814 15.1226 22.9501 14.1435 23.9062 13.1561ZM27.2812 13.2186C27.7489 13.1566 28.228 13.1358 28.7188 13.1561C28.7291 13.6357 28.7188 14.1149 28.6875 14.5936C28.227 14.1226 27.7582 13.6643 27.2812 13.2186ZM3.21875 20.9061C3.59375 20.9061 3.96875 20.9061 4.34375 20.9061C4.34375 22.3853 4.34375 23.8644 4.34375 25.3436C3.96875 25.3436 3.59375 25.3436 3.21875 25.3436C3.21875 23.8644 3.21875 22.3853 3.21875 20.9061ZM5.46875 20.9061C5.84375 20.9061 6.21875 20.9061 6.59375 20.9061C6.59375 22.3853 6.59375 23.8644 6.59375 25.3436C6.21875 25.3436 5.84375 25.3436 5.46875 25.3436C5.46875 23.8644 5.46875 22.3853 5.46875 20.9061ZM7.65625 20.9061C8.03125 20.9061 8.40625 20.9061 8.78125 20.9061C8.78125 22.3853 8.78125 23.8644 8.78125 25.3436C8.40625 25.3436 8.03125 25.3436 7.65625 25.3436C7.65625 23.8644 7.65625 22.3853 7.65625 20.9061ZM9.90625 20.9061C10.2604 20.9061 10.6146 20.9061 10.9688 20.9061C10.9688 22.3853 10.9688 23.8644 10.9688 25.3436C10.6146 25.3436 10.2604 25.3436 9.90625 25.3436C9.90625 23.8644 9.90625 22.3853 9.90625 20.9061ZM20.9688 20.9061C21.3229 20.9061 21.6771 20.9061 22.0312 20.9061C22.0312 22.3853 22.0312 23.8644 22.0312 25.3436C21.6771 25.3436 21.3229 25.3436 20.9688 25.3436C20.9688 23.8644 20.9688 22.3853 20.9688 20.9061ZM23.1562 20.9061C23.5312 20.9061 23.9062 20.9061 24.2812 20.9061C24.2812 22.3853 24.2812 23.8644 24.2812 25.3436C23.9062 25.3436 23.5312 25.3436 23.1562 25.3436C23.1562 23.8644 23.1562 22.3853 23.1562 20.9061ZM25.3438 20.9061C25.7188 20.9061 26.0938 20.9061 26.4688 20.9061C26.4688 22.3853 26.4688 23.8644 26.4688 25.3436C26.0938 25.3436 25.7188 25.3436 25.3438 25.3436C25.3438 23.8644 25.3438 22.3853 25.3438 20.9061ZM27.5938 20.9061C27.9688 20.9061 28.3438 20.9061 28.7188 20.9061C28.7188 22.3853 28.7188 23.8644 28.7188 25.3436C28.3438 25.3436 27.9688 25.3436 27.5938 25.3436C27.5938 23.8644 27.5938 22.3853 27.5938 20.9061ZM2.71875 26.4061C11.5521 26.4061 20.3854 26.4061 29.2188 26.4061C29.2188 26.7811 29.2188 27.1561 29.2188 27.5311C20.3854 27.5311 11.5521 27.5311 2.71875 27.5311C2.71875 27.1561 2.71875 26.7811 2.71875 26.4061Z" stroke="#501414" stroke-width="0.4" mask="url(#path-1-outside-1_88_33)"/>
</g>
</g>
<defs>
<clipPath id="clip0_88_33">
<rect width="32" height="32" fill="white" transform="translate(0 0.5)"/>
</clipPath>
</defs>
</svg>
