<svg width="32" height="33" viewBox="0 0 32 33" fill="none" xmlns="http://www.w3.org/2000/svg">
<g clip-path="url(#clip0_129_171)">
<path opacity="0.959" fill-rule="evenodd" clip-rule="evenodd" d="M14.9687 0.46875C15.6354 0.46875 16.302 0.46875 16.9687 0.46875C18.955 0.748323 20.6528 1.60249 22.0625 3.03125C22.425 3.87304 22.1646 4.39388 21.2812 4.59375C21.0591 4.55909 20.8508 4.48618 20.6562 4.375C18.686 2.4809 16.3943 1.93923 13.7812 2.75C13.3778 2.92044 12.982 3.10794 12.5937 3.3125C12.0617 3.69316 11.5408 4.089 11.0312 4.5C10.0653 4.66726 9.63828 4.26101 9.74997 3.28125C9.96366 2.94231 10.224 2.64022 10.5312 2.375C11.8383 1.33191 13.3175 0.696491 14.9687 0.46875Z" fill="#501414"/>
<path opacity="0.955" fill-rule="evenodd" clip-rule="evenodd" d="M15.2188 4.21887C16.7791 4.0446 18.1333 4.4821 19.2812 5.53137C19.6568 5.96318 19.688 6.42152 19.375 6.90637C19.0836 7.18887 18.7399 7.28262 18.3438 7.18762C17.9202 6.84856 17.4618 6.55688 16.9688 6.31262C16.3021 6.10429 15.6354 6.10429 14.9688 6.31262C14.4872 6.57386 14.0289 6.8655 13.5938 7.18762C12.8547 7.29787 12.4381 6.98537 12.3438 6.25012C12.3579 6.06189 12.4099 5.88481 12.5 5.71887C13.2425 4.91546 14.1487 4.41546 15.2188 4.21887Z" fill="#501414"/>
<path opacity="0.976" fill-rule="evenodd" clip-rule="evenodd" d="M31.9688 6.78105C31.9688 7.19774 31.9688 7.61436 31.9688 8.03105C31.3598 9.7923 30.1307 10.4902 28.2812 10.1248C27.4103 9.8163 26.8061 9.23299 26.4688 8.3748C25.6354 8.33311 24.8021 8.33311 23.9688 8.3748C22.1241 10.209 20.2908 12.0527 18.4688 13.906C19.0796 14.4515 19.7046 14.9827 20.3438 15.4998C22.3854 15.5415 24.4271 15.5415 26.4688 15.4998C27.1079 14.0654 28.2121 13.4612 29.7812 13.6873C30.9176 14.0008 31.6467 14.7195 31.9688 15.8435C31.9688 16.2602 31.9688 16.6769 31.9688 17.0935C31.3598 18.8548 30.1307 19.5527 28.2812 19.1873C27.4103 18.8788 26.8061 18.2955 26.4688 17.4373C25.1771 17.3956 23.8854 17.3956 22.5938 17.4373C23.3333 18.0519 24.0729 18.6665 24.8125 19.281C25.1121 19.7576 25.1017 20.2264 24.7812 20.6873C24.6771 20.7498 24.5729 20.8123 24.4688 20.8748C23.8232 20.906 23.1774 20.9164 22.5312 20.906C22.5312 22.031 22.5312 23.156 22.5312 24.281C24.9116 24.2505 27.2866 24.2818 29.6562 24.3748C29.8421 24.4851 29.9775 24.6414 30.0625 24.8435C30.0833 25.5519 30.1042 26.2602 30.125 26.9685C31.0844 27.3547 31.699 28.0422 31.9688 29.031C31.9688 29.4477 31.9688 29.8644 31.9688 30.281C31.6354 31.406 30.9062 32.1352 29.7812 32.4685C29.3646 32.4685 28.9479 32.4685 28.5312 32.4685C26.8968 31.9099 26.1781 30.764 26.375 29.031C26.6248 28.0313 27.2289 27.3438 28.1875 26.9685C28.2187 26.6985 28.2291 26.4277 28.2188 26.156C26.3229 26.156 24.4271 26.156 22.5312 26.156C22.5417 26.9272 22.5312 27.698 22.5 28.4685C22.4062 28.729 22.2292 28.906 21.9688 28.9998C17.9688 29.0415 13.9688 29.0415 9.96875 28.9998C9.70831 28.906 9.53125 28.729 9.4375 28.4685C9.40625 27.698 9.39581 26.9272 9.40625 26.156C7.51044 26.156 5.61458 26.156 3.71875 26.156C3.70839 26.4277 3.71881 26.6985 3.75 26.9685C5.28203 27.6785 5.86537 28.8661 5.5 30.531C5.12825 31.5385 4.43033 32.1844 3.40625 32.4685C2.98958 32.4685 2.57292 32.4685 2.15625 32.4685C1.03071 32.1347 0.301538 31.4055 -0.03125 30.281C-0.03125 29.8644 -0.03125 29.4477 -0.03125 29.031C0.238476 28.0422 0.853063 27.3547 1.8125 26.9685C1.83333 26.2602 1.85417 25.5519 1.875 24.8435C1.96002 24.6414 2.09544 24.4851 2.28125 24.3748C4.65088 24.2818 7.02588 24.2505 9.40625 24.281C9.40625 23.156 9.40625 22.031 9.40625 20.906C8.76006 20.9164 8.11425 20.906 7.46875 20.8748C6.94281 20.6031 6.76575 20.176 6.9375 19.5935C7 19.4894 7.0625 19.3852 7.125 19.281C7.86456 18.6665 8.60419 18.0519 9.34375 17.4373C8.05206 17.3956 6.76044 17.3956 5.46875 17.4373C4.75874 18.9694 3.57124 19.5527 1.90625 19.1873C0.898775 18.8155 0.252943 18.1176 -0.03125 17.0935C-0.03125 16.6769 -0.03125 16.2602 -0.03125 15.8435C0.526685 14.2094 1.67252 13.4907 3.40625 13.6873C4.40599 13.9371 5.09349 14.5412 5.46875 15.4998C7.51044 15.5415 9.55206 15.5415 11.5938 15.4998C12.2329 14.9827 12.8579 14.4515 13.4688 13.906C11.6467 12.0527 9.81338 10.209 7.96875 8.3748C7.13544 8.33311 6.30206 8.33311 5.46875 8.3748C4.75874 9.90686 3.57124 10.4902 1.90625 10.1248C0.898775 9.75305 0.252943 9.05511 -0.03125 8.03105C-0.03125 7.61436 -0.03125 7.19774 -0.03125 6.78105C0.577661 5.01977 1.80683 4.32186 3.65625 4.6873C4.52721 4.99578 5.13137 5.57911 5.46875 6.4373C6.57294 6.45813 7.67706 6.47897 8.78125 6.4998C8.88544 6.5623 8.98956 6.6248 9.09375 6.6873C11.0634 8.6673 13.0425 10.636 15.0312 12.5935C15.6286 12.0245 16.2328 12.0141 16.8438 12.5623C16.8854 12.604 16.9271 12.604 16.9688 12.5623C18.9705 10.5397 20.9913 8.53974 23.0312 6.5623C24.1714 6.48057 25.3172 6.43891 26.4688 6.4373C27.1079 5.00284 28.2121 4.39868 29.7812 4.6248C30.9176 4.93828 31.6467 5.65703 31.9688 6.78105ZM2.46875 6.53105C3.35327 6.44677 3.73868 6.84261 3.625 7.71855C3.25841 8.32767 2.76883 8.4423 2.15625 8.0623C1.74414 7.43817 1.84831 6.9278 2.46875 6.53105ZM28.8438 6.53105C29.7283 6.44677 30.1137 6.84261 30 7.71855C29.6334 8.32767 29.1438 8.4423 28.5312 8.0623C28.1191 7.43817 28.2233 6.9278 28.8438 6.53105ZM15.9062 14.406C17.7828 15.8756 19.6162 17.4069 21.4062 18.9998C21.0725 19.0879 20.8329 19.2859 20.6875 19.5935C20.6562 22.1143 20.6458 24.6351 20.6562 27.156C20.0312 27.156 19.4062 27.156 18.7812 27.156C18.8113 25.6296 18.78 24.1087 18.6875 22.5935C18.5772 22.4077 18.4209 22.2723 18.2188 22.1873C16.7188 22.1456 15.2188 22.1456 13.7188 22.1873C13.5166 22.2723 13.3603 22.4077 13.25 22.5935C13.1575 24.1087 13.1263 25.6296 13.1562 27.156C12.5312 27.156 11.9062 27.156 11.2812 27.156C11.2917 24.6351 11.2812 22.1143 11.25 19.5935C11.1046 19.2859 10.865 19.0879 10.5312 18.9998C12.3165 17.4536 14.1082 15.9224 15.9062 14.406ZM2.46875 15.5935C3.35327 15.5092 3.73868 15.9051 3.625 16.781C3.25841 17.3902 2.76883 17.5048 2.15625 17.1248C1.74414 16.5007 1.84831 15.9903 2.46875 15.5935ZM28.8438 15.5935C29.7283 15.5092 30.1137 15.9051 30 16.781C29.6334 17.3902 29.1438 17.5048 28.5312 17.1248C28.1191 16.5007 28.2233 15.9903 28.8438 15.5935ZM15.0312 24.031C15.6562 24.031 16.2812 24.031 16.9062 24.031C16.9062 25.0727 16.9062 26.1144 16.9062 27.156C16.2812 27.156 15.6562 27.156 15.0312 27.156C15.0312 26.1144 15.0312 25.0727 15.0312 24.031ZM2.46875 28.781C3.35327 28.6967 3.73868 29.0926 3.625 29.9685C3.25841 30.5777 2.76883 30.6923 2.15625 30.3123C1.74414 29.6882 1.84831 29.1778 2.46875 28.781ZM28.8438 28.781C29.7283 28.6967 30.1137 29.0926 30 29.9685C29.6334 30.5777 29.1438 30.6923 28.5312 30.3123C28.1191 29.6882 28.2233 29.1778 28.8438 28.781Z" fill="#501414"/>
<path opacity="0.931" fill-rule="evenodd" clip-rule="evenodd" d="M15.5938 7.96883C16.6034 7.84302 17.0304 8.28052 16.875 9.28133C16.6033 9.80727 16.1762 9.98433 15.5938 9.81258C15.0678 9.54083 14.8908 9.11377 15.0625 8.53133C15.168 8.26977 15.3451 8.08227 15.5938 7.96883Z" fill="#501414"/>
</g>
<defs>
<clipPath id="clip0_129_171">
<rect width="32" height="32" fill="white" transform="translate(0 0.5)"/>
</clipPath>
</defs>
</svg>
