<svg width="32" height="33" viewBox="0 0 32 33" fill="none" xmlns="http://www.w3.org/2000/svg">
<g clip-path="url(#clip0_130_205)">
<path opacity="0.97" fill-rule="evenodd" clip-rule="evenodd" d="M5.03125 0.46875C12.3229 0.46875 19.6146 0.46875 26.9062 0.46875C28.1466 0.782345 28.8862 1.57401 29.125 2.84375C29.7187 12.0927 30.2916 21.3427 30.8438 30.5938C31.2188 30.5938 31.5938 30.5938 31.9688 30.5938C31.9688 31.2188 31.9688 31.8438 31.9688 32.4688C30.6146 32.4688 29.2604 32.4688 27.9062 32.4688C27.9062 31.8438 27.9062 31.2188 27.9062 30.5938C28.2396 30.5938 28.5729 30.5938 28.9062 30.5938C28.3614 21.4046 27.7885 12.2171 27.1875 3.03125C27.0763 2.77426 26.8993 2.57634 26.6562 2.4375C26.3271 2.36306 25.9937 2.33181 25.6562 2.34375C25.6667 10.0312 25.6562 17.7188 25.625 25.4062C25.3648 26.6664 24.6044 27.4268 23.3438 27.6875C21.9688 27.7292 20.5938 27.7292 19.2188 27.6875C18.0121 27.4391 17.2516 26.7204 16.9375 25.5312C16.8449 17.8032 16.8137 10.0741 16.8438 2.34375C16.2604 2.34375 15.6771 2.34375 15.0938 2.34375C15.1238 10.0741 15.0926 17.8032 15 25.5312C14.6837 26.7226 13.9233 27.4414 12.7188 27.6875C11.3438 27.7292 9.96875 27.7292 8.59375 27.6875C7.33306 27.4268 6.57269 26.6664 6.3125 25.4062C6.28125 17.7188 6.27081 10.0312 6.28125 2.34375C5.94379 2.33181 5.61046 2.36306 5.28125 2.4375C5.03824 2.57634 4.86116 2.77426 4.75 3.03125C4.14899 12.2171 3.57608 21.4046 3.03125 30.5938C3.36458 30.5938 3.69792 30.5938 4.03125 30.5938C4.03125 31.2188 4.03125 31.8438 4.03125 32.4688C2.67708 32.4688 1.32292 32.4688 -0.03125 32.4688C-0.03125 31.8438 -0.03125 31.2188 -0.03125 30.5938C0.34375 30.5938 0.71875 30.5938 1.09375 30.5938C1.6459 21.3427 2.21881 12.0927 2.8125 2.84375C3.05128 1.57401 3.79086 0.782345 5.03125 0.46875ZM8.21875 2.34375C9.86456 2.34375 11.5104 2.34375 13.1562 2.34375C13.1562 8.28125 13.1562 14.2188 13.1562 20.1562C11.5104 20.1562 9.86456 20.1562 8.21875 20.1562C8.21875 14.2188 8.21875 8.28125 8.21875 2.34375ZM18.7812 2.34375C20.4271 2.34375 22.0729 2.34375 23.7188 2.34375C23.7188 8.28125 23.7188 14.2188 23.7188 20.1562C22.0729 20.1562 20.4271 20.1562 18.7812 20.1562C18.7812 14.2188 18.7812 8.28125 18.7812 2.34375ZM8.21875 22.0938C9.86456 22.0938 11.5104 22.0938 13.1562 22.0938C13.1667 23.0523 13.1562 24.0106 13.125 24.9688C13.0591 25.3629 12.8403 25.6233 12.4688 25.75C11.2604 25.7917 10.0521 25.7917 8.84375 25.75C8.5625 25.6354 8.36456 25.4375 8.25 25.1562C8.21875 24.1356 8.20831 23.1148 8.21875 22.0938ZM18.7812 22.0938C20.4271 22.0938 22.0729 22.0938 23.7188 22.0938C23.7292 23.1148 23.7188 24.1356 23.6875 25.1562C23.5729 25.4375 23.375 25.6354 23.0938 25.75C21.8854 25.7917 20.6771 25.7917 19.4688 25.75C19.0972 25.6233 18.8784 25.3629 18.8125 24.9688C18.7812 24.0106 18.7708 23.0523 18.7812 22.0938Z" fill="#501414"/>
</g>
<defs>
<clipPath id="clip0_130_205">
<rect width="32" height="32" fill="white" transform="translate(0 0.5)"/>
</clipPath>
</defs>
</svg>
