<svg width="32" height="33" viewBox="0 0 32 33" fill="none" xmlns="http://www.w3.org/2000/svg">
<g clip-path="url(#clip0_88_41)">
<path opacity="0.973" fill-rule="evenodd" clip-rule="evenodd" d="M9.53125 2.78101C13.8698 2.75018 18.2031 2.78143 22.5312 2.87476C22.6636 2.98295 22.7573 3.11836 22.8125 3.28101C22.8542 7.0102 22.8542 10.7393 22.8125 14.4685C22.6868 14.823 22.4368 15.0105 22.0625 15.031C21.6882 15.0105 21.4382 14.823 21.3125 14.4685C21.2812 11.0936 21.2708 7.71858 21.2812 4.34352C17.7396 4.34352 14.1979 4.34352 10.6563 4.34352C10.6667 7.71858 10.6563 11.0936 10.625 14.4685C10.3945 14.9474 10.0299 15.1036 9.53125 14.9373C9.3295 14.8396 9.19406 14.6833 9.125 14.4685C9.08331 10.7393 9.08331 7.0102 9.125 3.28101C9.20656 3.06468 9.34194 2.89801 9.53125 2.78101Z" fill="#501414"/>
<path opacity="0.963" fill-rule="evenodd" clip-rule="evenodd" d="M12.7812 5.78125C14.9064 5.77083 17.0314 5.78125 19.1562 5.8125C19.3791 5.85624 19.5562 5.97083 19.6875 6.15625C19.791 8.94269 19.8118 11.7344 19.75 14.5313C19.4869 14.9541 19.1224 15.0895 18.6562 14.9375C18.4272 14.8333 18.2917 14.6562 18.25 14.4063C18.2187 12.073 18.2083 9.73969 18.2187 7.40625C16.7187 7.40625 15.2187 7.40625 13.7187 7.40625C13.7292 9.73969 13.7187 12.073 13.6875 14.4063C13.4424 14.9803 13.0361 15.1366 12.4687 14.875C12.3958 14.8021 12.3229 14.7292 12.25 14.6563C12.1465 11.8698 12.1257 9.07813 12.1875 6.28125C12.3226 6.03095 12.5205 5.86429 12.7812 5.78125Z" fill="#501414"/>
<path opacity="0.964" fill-rule="evenodd" clip-rule="evenodd" d="M31.9688 26.0938C31.9688 27.323 31.9688 28.5521 31.9688 29.7813C31.8557 29.9462 31.7099 30.0816 31.5312 30.1875C21.1562 30.2292 10.7812 30.2292 0.40625 30.1875C0.227649 30.0816 0.081815 29.9462 -0.03125 29.7813C-0.03125 28.5521 -0.03125 27.323 -0.03125 26.0938C0.0714713 25.9426 0.196471 25.8071 0.34375 25.6875C0.712919 25.6025 1.08792 25.5712 1.46875 25.5938C1.43818 21.6526 1.46943 17.7151 1.5625 13.7813C1.68365 13.6184 1.8399 13.5038 2.03125 13.4375C3.17708 13.3958 4.32292 13.3958 5.46875 13.4375C5.76471 13.5043 5.96262 13.6813 6.0625 13.9688C6.09374 14.8018 6.10416 15.6352 6.09375 16.4688C12.6771 16.4688 19.2604 16.4688 25.8438 16.4688C25.8333 15.6352 25.8438 14.8018 25.875 13.9688C25.9749 13.6813 26.1728 13.5043 26.4688 13.4375C27.6146 13.3958 28.7604 13.3958 29.9062 13.4375C30.0976 13.5038 30.2539 13.6184 30.375 13.7813C30.4681 17.7151 30.4993 21.6526 30.4688 25.5938C30.7819 25.5834 31.0944 25.5938 31.4062 25.625C31.6622 25.7043 31.8497 25.8605 31.9688 26.0938ZM3.03125 15.0313C3.53125 15.0313 4.03125 15.0313 4.53125 15.0313C4.53125 18.5521 4.53125 22.073 4.53125 25.5938C4.03125 25.5938 3.53125 25.5938 3.03125 25.5938C3.03125 22.073 3.03125 18.5521 3.03125 15.0313ZM27.4062 15.0313C27.9062 15.0313 28.4062 15.0313 28.9062 15.0313C28.9062 18.5521 28.9062 22.073 28.9062 25.5938C28.4062 25.5938 27.9062 25.5938 27.4062 25.5938C27.4062 22.073 27.4062 18.5521 27.4062 15.0313ZM6.09375 18.0313C6.57294 18.0313 7.05206 18.0313 7.53125 18.0313C7.53125 20.5521 7.53125 23.073 7.53125 25.5938C7.05206 25.5938 6.57294 25.5938 6.09375 25.5938C6.09375 23.073 6.09375 20.5521 6.09375 18.0313ZM9.15625 18.0313C9.63544 18.0313 10.1146 18.0313 10.5938 18.0313C10.5938 20.5521 10.5938 23.073 10.5938 25.5938C10.1146 25.5938 9.63544 25.5938 9.15625 25.5938C9.15625 23.073 9.15625 20.5521 9.15625 18.0313ZM12.2188 18.0313C12.6979 18.0313 13.1771 18.0313 13.6562 18.0313C13.6562 20.5521 13.6562 23.073 13.6562 25.5938C13.1771 25.5938 12.6979 25.5938 12.2188 25.5938C12.2188 23.073 12.2188 20.5521 12.2188 18.0313ZM15.2188 18.0313C15.7188 18.0313 16.2188 18.0313 16.7188 18.0313C16.7188 20.5521 16.7188 23.073 16.7188 25.5938C16.2188 25.5938 15.7188 25.5938 15.2188 25.5938C15.2188 23.073 15.2188 20.5521 15.2188 18.0313ZM18.2812 18.0313C18.7604 18.0313 19.2396 18.0313 19.7188 18.0313C19.7188 20.5521 19.7188 23.073 19.7188 25.5938C19.2396 25.5938 18.7604 25.5938 18.2812 25.5938C18.2812 23.073 18.2812 20.5521 18.2812 18.0313ZM21.3438 18.0313C21.8229 18.0313 22.3021 18.0313 22.7812 18.0313C22.7812 20.5521 22.7812 23.073 22.7812 25.5938C22.3021 25.5938 21.8229 25.5938 21.3438 25.5938C21.3438 23.073 21.3438 20.5521 21.3438 18.0313ZM24.4062 18.0313C24.8854 18.0313 25.3646 18.0313 25.8438 18.0313C25.8438 20.5521 25.8438 23.073 25.8438 25.5938C25.3646 25.5938 24.8854 25.5938 24.4062 25.5938C24.4062 23.073 24.4062 20.5521 24.4062 18.0313ZM1.53125 27.2188C11.1562 27.2188 20.7812 27.2188 30.4062 27.2188C30.4062 27.698 30.4062 28.1771 30.4062 28.6563C20.7812 28.6563 11.1562 28.6563 1.53125 28.6563C1.53125 28.1771 1.53125 27.698 1.53125 27.2188Z" fill="#501414"/>
</g>
<defs>
<clipPath id="clip0_88_41">
<rect width="32" height="32" fill="white" transform="translate(0 0.5)"/>
</clipPath>
</defs>
</svg>
