<svg width="32" height="33" viewBox="0 0 32 33" fill="none" xmlns="http://www.w3.org/2000/svg">
<g clip-path="url(#clip0_99_99)">
<path opacity="0.963" fill-rule="evenodd" clip-rule="evenodd" d="M31.9688 11.9063C31.9688 12.1563 31.9688 12.4063 31.9688 12.6563C31.5884 13.2586 31.0676 13.4149 30.4062 13.1251C25.0221 7.58802 18.5429 5.67133 10.9688 7.37508C7.27456 8.41883 4.12874 10.3355 1.53125 13.1251C0.831813 13.441 0.310977 13.2639 -0.03125 12.5938C-0.03125 12.3646 -0.03125 12.1355 -0.03125 11.9063C0.364394 11.3536 0.822725 10.8432 1.34375 10.3751C6.94163 5.43879 13.4208 3.70962 20.7812 5.18758C25.0481 6.21079 28.6834 8.30452 31.6875 11.4688C31.7992 11.6101 31.893 11.7559 31.9688 11.9063Z" fill="#501414"/>
<path opacity="0.96" fill-rule="evenodd" clip-rule="evenodd" d="M14.6563 11.094C19.7031 10.8117 23.9218 12.52 27.3125 16.219C27.6417 17.1025 27.3501 17.6442 26.4375 17.844C26.204 17.8143 25.9852 17.7414 25.7813 17.6252C22.358 13.9217 18.1496 12.5258 13.1563 13.4377C10.3707 14.1004 8.03734 15.4962 6.15628 17.6252C5.38481 18.0137 4.83272 17.8157 4.50003 17.0315C4.45425 16.7478 4.49592 16.477 4.62503 16.219C7.30472 13.228 10.6485 11.5197 14.6563 11.094Z" fill="#501414"/>
<path opacity="0.96" fill-rule="evenodd" clip-rule="evenodd" d="M15.4063 17.4688C18.3173 17.3782 20.7235 18.4198 22.625 20.5938C23.0815 21.2886 22.9669 21.8615 22.2813 22.3126C21.9632 22.3642 21.6507 22.3433 21.3438 22.2501C18.9063 19.4376 16.0105 18.8334 12.6563 20.4376C11.8931 20.9504 11.2056 21.5546 10.5938 22.2501C9.5252 22.5343 9.01476 22.1281 9.06251 21.0313C10.0335 19.6029 11.3356 18.5924 12.9688 18.0001C13.7681 17.7216 14.5806 17.5445 15.4063 17.4688Z" fill="#501414"/>
<path opacity="0.964" fill-rule="evenodd" clip-rule="evenodd" d="M15.5312 23.9064C16.7576 23.7744 17.6013 24.2744 18.0625 25.4064C18.3646 26.7294 17.8959 27.6564 16.6562 28.1877C15.3324 28.4893 14.4053 28.0206 13.875 26.7814C13.5767 25.3219 14.1288 24.3636 15.5312 23.9064ZM15.9062 25.9689C16.1163 26.0129 16.1371 26.0962 15.9687 26.2189C15.8349 26.1604 15.814 26.0771 15.9062 25.9689Z" fill="#501414"/>
</g>
<defs>
<clipPath id="clip0_99_99">
<rect width="32" height="32" fill="white" transform="translate(0 0.5)"/>
</clipPath>
</defs>
</svg>
