<svg width="32" height="33" viewBox="0 0 32 33" fill="none" xmlns="http://www.w3.org/2000/svg">
<g clip-path="url(#clip0_129_181)">
<path opacity="0.967" fill-rule="evenodd" clip-rule="evenodd" d="M9.28127 3.28125C13.7188 3.27083 18.1563 3.28125 22.5938 3.3125C24.1509 3.66119 24.9946 4.62994 25.125 6.21875C25.1667 12.7604 25.1667 19.3021 25.125 25.8438C25.0673 26.9078 24.5985 27.7307 23.7188 28.3125C23.4461 28.4802 23.1544 28.5949 22.8438 28.6562C22.829 29.2856 22.5061 29.619 21.875 29.6562C21.3586 29.5982 21.0357 29.317 20.9063 28.8125C17.5936 28.7604 14.2811 28.7708 10.9688 28.8438C10.7253 29.5488 10.2461 29.7884 9.53127 29.5625C9.17783 29.3662 9.01114 29.0641 9.03127 28.6562C7.81533 28.3465 7.07577 27.5757 6.81252 26.3438C6.77083 19.4479 6.77083 12.5521 6.81252 5.65625C7.16027 4.36044 7.98314 3.56878 9.28127 3.28125ZM9.46877 5.21875C13.7813 5.20833 18.0938 5.21875 22.4063 5.25C22.8856 5.42715 23.146 5.7709 23.1875 6.28125C23.2292 12.7813 23.2292 19.2812 23.1875 25.7812C23.1083 26.3189 22.8063 26.6626 22.2813 26.8125C18.0521 26.8542 13.823 26.8542 9.59377 26.8125C9.19745 26.7078 8.9162 26.4683 8.75002 26.0938C8.70833 19.3854 8.70833 12.6771 8.75002 5.96875C8.8762 5.60311 9.11577 5.35311 9.46877 5.21875ZM15.7188 8.96875C16.3845 8.91606 16.7595 9.21813 16.8438 9.875C16.7036 10.5784 16.287 10.8493 15.5938 10.6875C15.0163 10.3304 14.9017 9.86163 15.25 9.28125C15.3856 9.13606 15.5419 9.03188 15.7188 8.96875Z" fill="#501414"/>
<path opacity="0.953" fill-rule="evenodd" clip-rule="evenodd" d="M1.21875 6.65631C1.89236 6.62234 2.27777 6.93487 2.375 7.59381C2.31021 8.94318 2.77896 10.0578 3.78125 10.9376C4.05549 11.1164 4.34716 11.2622 4.65625 11.3751C5.14785 11.8233 5.22076 12.3337 4.875 12.9063C4.48216 13.2362 4.05507 13.2883 3.59375 13.0626C2.10424 12.3447 1.13549 11.1885 0.6875 9.59381C0.58004 8.93906 0.48629 8.28281 0.40625 7.62506C0.467293 7.11681 0.738125 6.79387 1.21875 6.65631Z" fill="#501414"/>
<path opacity="0.952" fill-rule="evenodd" clip-rule="evenodd" d="M30.3438 6.65635C31.0311 6.62521 31.427 6.9481 31.5313 7.6251C31.5459 9.18429 31.0771 10.5697 30.125 11.7814C29.4859 12.4915 28.7047 12.9707 27.7813 13.2189C26.9346 13.047 26.6533 12.547 26.9375 11.7189C27.0521 11.6043 27.1667 11.4897 27.2813 11.3751C28.2765 10.984 28.9536 10.2862 29.3125 9.28135C29.4394 8.61848 29.5436 7.95185 29.625 7.28135C29.7621 6.94829 30.0017 6.73994 30.3438 6.65635Z" fill="#501414"/>
<path opacity="0.96" fill-rule="evenodd" clip-rule="evenodd" d="M15.4687 7.03124C17.0589 6.92462 18.1318 7.61212 18.6875 9.09374C18.9774 10.3984 18.5919 11.4505 17.5312 12.25C15.9936 13.0477 14.6706 12.7872 13.5625 11.4687C12.7917 10.0322 12.9896 8.75093 14.1562 7.62499C14.553 7.32318 14.9905 7.12531 15.4687 7.03124ZM15.7187 8.96874C15.5419 9.03187 15.3856 9.13606 15.25 9.28124C14.9017 9.86162 15.0163 10.3304 15.5937 10.6875C16.2869 10.8492 16.7036 10.5784 16.8437 9.87499C16.7594 9.21812 16.3844 8.91606 15.7187 8.96874Z" fill="#501414"/>
<path opacity="0.951" fill-rule="evenodd" clip-rule="evenodd" d="M-0.03125 16.3438C-0.03125 16.1146 -0.03125 15.8855 -0.03125 15.6563C0.113718 15.335 0.363718 15.1371 0.71875 15.0625C1.63542 15.0208 2.55208 15.0208 3.46875 15.0625C4.23225 15.3308 4.451 15.8413 4.125 16.5938C4.00385 16.7566 3.8476 16.8712 3.65625 16.9375C2.63542 16.9792 1.61458 16.9792 0.59375 16.9375C0.3097 16.8095 0.101366 16.6116 -0.03125 16.3438Z" fill="#501414"/>
<path opacity="0.951" fill-rule="evenodd" clip-rule="evenodd" d="M31.9687 15.6563C31.9687 15.8855 31.9687 16.1146 31.9687 16.3438C31.8361 16.6116 31.6278 16.8095 31.3437 16.9375C30.3229 16.9792 29.3021 16.9792 28.2812 16.9375C27.6625 16.6019 27.5062 16.1123 27.8125 15.4688C27.968 15.2297 28.1867 15.0943 28.4687 15.0625C29.3854 15.0208 30.3021 15.0208 31.2187 15.0625C31.5738 15.1371 31.8238 15.335 31.9687 15.6563Z" fill="#501414"/>
<path opacity="0.961" fill-rule="evenodd" clip-rule="evenodd" d="M11.2188 15.6563C14.3646 15.6458 17.5105 15.6563 20.6563 15.6875C21.4069 16.0228 21.584 16.5541 21.1875 17.2813C21.0464 17.4019 20.8901 17.4956 20.7188 17.5625C17.5313 17.6042 14.3438 17.6042 11.1563 17.5625C10.5105 17.2508 10.3334 16.7612 10.625 16.0938C10.7831 15.8822 10.981 15.7364 11.2188 15.6563Z" fill="#501414"/>
<path opacity="0.954" fill-rule="evenodd" clip-rule="evenodd" d="M3.90625 18.8435C4.81177 18.822 5.19718 19.2595 5.0625 20.156C4.9962 20.3474 4.88162 20.5037 4.71875 20.6248C3.58722 21.0271 2.86847 21.8083 2.5625 22.9685C2.49465 23.6214 2.39048 24.2672 2.25 24.906C1.682 25.4885 1.1195 25.4885 0.5625 24.906C0.491191 24.7459 0.439108 24.5793 0.40625 24.406C0.464656 23.4657 0.641737 22.549 0.9375 21.656C1.55724 20.3173 2.54682 19.3798 3.90625 18.8435Z" fill="#501414"/>
<path opacity="0.954" fill-rule="evenodd" clip-rule="evenodd" d="M27.5312 18.8438C28.186 18.8689 28.7693 19.0877 29.2812 19.5C30.2172 20.1947 30.8526 21.1009 31.1875 22.2188C31.3454 22.9419 31.4599 23.6711 31.5312 24.4062C31.3913 25.1401 30.9538 25.4421 30.2187 25.3125C30.0061 25.225 29.829 25.0896 29.6875 24.9062C29.547 24.2674 29.4429 23.6216 29.375 22.9688C29.069 21.8086 28.3502 21.0273 27.2187 20.625C26.8678 20.3145 26.7532 19.9291 26.875 19.4688C27.0066 19.1598 27.2254 18.9515 27.5312 18.8438Z" fill="#501414"/>
<path opacity="0.961" fill-rule="evenodd" clip-rule="evenodd" d="M11.2188 19.3438C14.3646 19.3333 17.5105 19.3438 20.6563 19.375C21.4069 19.7103 21.584 20.2416 21.1875 20.9688C21.0464 21.0894 20.8901 21.1831 20.7188 21.25C17.5313 21.2917 14.3438 21.2917 11.1563 21.25C10.5105 20.9383 10.3334 20.4487 10.625 19.7813C10.7831 19.5697 10.981 19.4239 11.2188 19.3438Z" fill="#501414"/>
<path opacity="0.961" fill-rule="evenodd" clip-rule="evenodd" d="M11.2188 23.0938C14.3646 23.0833 17.5105 23.0938 20.6563 23.125C21.4069 23.4603 21.584 23.9916 21.1875 24.7188C21.0464 24.8394 20.8901 24.9331 20.7188 25C17.5313 25.0417 14.3438 25.0417 11.1563 25C10.5105 24.6883 10.3334 24.1987 10.625 23.5313C10.7831 23.3197 10.981 23.1739 11.2188 23.0938Z" fill="#501414"/>
</g>
<defs>
<clipPath id="clip0_129_181">
<rect width="32" height="32" fill="white" transform="translate(0 0.5)"/>
</clipPath>
</defs>
</svg>
