<svg width="32" height="33" viewBox="0 0 32 33" fill="none" xmlns="http://www.w3.org/2000/svg">
<g clip-path="url(#clip0_129_117)">
<path opacity="0.969" fill-rule="evenodd" clip-rule="evenodd" d="M6.28125 0.46875C6.67706 0.46875 7.07294 0.46875 7.46875 0.46875C15.4691 3.35446 23.4691 6.26071 31.4688 9.1875C31.6923 9.31713 31.859 9.49419 31.9688 9.71875C31.9688 9.94794 31.9688 10.1771 31.9688 10.4062C31.8846 10.5854 31.7596 10.7416 31.5938 10.875C30.3438 11.4583 29.0938 12.0417 27.8438 12.625C27.7377 12.7867 27.6752 12.9638 27.6562 13.1562C28.5778 13.46 29.4944 13.7829 30.4062 14.125C30.5208 14.2396 30.6354 14.3542 30.75 14.4688C30.7976 14.6283 30.8496 14.7846 30.9062 14.9375C30.3592 16.5785 29.7863 18.2139 29.1875 19.8438C29.0017 20.4421 28.5954 20.7026 27.9688 20.625C27.0729 20.3021 26.1771 19.9792 25.2812 19.6562C24.5488 20.8355 23.4863 21.3251 22.0938 21.125C19.4495 20.2019 16.8141 19.254 14.1875 18.2812C14.0699 18.3183 14.0074 18.4017 14 18.5312C13.5856 20.0037 13.1585 21.4724 12.7188 22.9375C13.837 23.8999 14.1391 25.077 13.625 26.4688C12.9358 27.756 11.8629 28.2873 10.4062 28.0625C9.4065 27.8127 8.719 27.2086 8.34375 26.25C7.42731 26.2188 6.51062 26.2083 5.59375 26.2188C5.60416 27.1565 5.59374 28.094 5.5625 29.0312C5.29824 30.0664 4.66283 30.7643 3.65625 31.125C3.05623 31.2119 2.45206 31.2432 1.84375 31.2188C1.95689 31.7834 1.76939 32.2001 1.28125 32.4688C1.03125 32.4688 0.78125 32.4688 0.53125 32.4688C0.438317 32.3873 0.33415 32.3144 0.21875 32.25C0.143964 32.1241 0.0606302 32.0094 -0.03125 31.9062C-0.03125 27.4896 -0.03125 23.0729 -0.03125 18.6562C0.255078 18.1389 0.692575 17.9618 1.28125 18.125C1.77779 18.3789 1.96529 18.7852 1.84375 19.3438C3.0879 19.1047 4.13998 19.4381 5 20.3438C5.27111 20.6985 5.45861 21.0944 5.5625 21.5312C5.59374 22.4685 5.60416 23.406 5.59375 24.3438C6.51062 24.3542 7.42731 24.3438 8.34375 24.3125C8.81581 23.2111 9.64913 22.5756 10.8438 22.4062C11.3407 20.7904 11.7991 19.1654 12.2188 17.5312C9.46381 16.5608 6.71381 15.5712 3.96875 14.5625C2.61272 13.8818 2.06064 12.788 2.3125 11.2812C2.61779 10.3582 2.94071 9.44156 3.28125 8.53125C2.80326 7.75556 2.66784 6.92219 2.875 6.03125C3.37983 4.57919 3.92149 3.14169 4.5 1.71875C4.95091 1.08956 5.54466 0.672896 6.28125 0.46875ZM6.59375 2.40625C6.871 2.38813 7.14187 2.41938 7.40625 2.5C14.4271 5.0625 21.4479 7.625 28.4688 10.1875C27.8021 10.5 27.1354 10.8125 26.4688 11.125C26.375 11.2188 26.2812 11.3125 26.1875 11.4062C25.7794 12.4848 25.3836 13.5681 25 14.6562C24.9547 14.7599 24.8818 14.7911 24.7812 14.75C18.1863 12.3573 11.6029 9.94063 5.03125 7.5C4.76096 7.23056 4.66721 6.90769 4.75 6.53125C5.20461 5.25071 5.68377 3.97987 6.1875 2.71875C6.31031 2.59061 6.44575 2.48644 6.59375 2.40625ZM4.96875 9.59375C11.4099 11.9353 17.8474 14.2894 24.2812 16.6562C24.0417 17.3021 23.8021 17.9479 23.5625 18.5938C23.3501 19.1232 22.9646 19.3211 22.4062 19.1875C16.5569 17.0502 10.7027 14.9252 4.84375 12.8125C4.43619 12.6447 4.20703 12.3426 4.15625 11.9062C4.41511 11.1296 4.68595 10.3588 4.96875 9.59375ZM26.9688 14.9688C27.54 15.1523 28.1025 15.3606 28.6562 15.5938C28.2976 16.524 27.9643 17.4615 27.6562 18.4062C27.0681 18.2276 26.4848 18.0296 25.9062 17.8125C26.2668 16.8662 26.6209 15.9184 26.9688 14.9688ZM1.84375 21.2188C2.26441 21.2016 2.68108 21.2329 3.09375 21.3125C3.35417 21.4062 3.53125 21.5833 3.625 21.8438C3.69583 22.987 3.72708 24.1328 3.71875 25.2812C3.72708 26.4297 3.69583 27.5755 3.625 28.7188C3.53125 28.9792 3.35417 29.1562 3.09375 29.25C2.68108 29.3296 2.26441 29.3609 1.84375 29.3438C1.84375 26.6354 1.84375 23.9271 1.84375 21.2188ZM10.7188 24.4062C11.6033 24.3219 11.9887 24.7178 11.875 25.5938C11.5084 26.2029 11.0188 26.3175 10.4062 25.9375C9.99413 25.3134 10.0983 24.803 10.7188 24.4062Z" fill="#501414"/>
<path opacity="0.918" fill-rule="evenodd" clip-rule="evenodd" d="M7.71876 4.71875C8.82401 4.72088 9.18857 5.24171 8.81251 6.28125C8.47232 6.65079 8.06607 6.74454 7.59376 6.5625C7.09907 6.26158 6.94282 5.8345 7.12501 5.28125C7.27538 5.03697 7.47326 4.84947 7.71876 4.71875Z" fill="#501414"/>
<path opacity="0.929" fill-rule="evenodd" clip-rule="evenodd" d="M11.2187 6.03113C12.2037 5.94288 12.6099 6.38038 12.4375 7.34363C12.1657 7.86957 11.7387 8.04663 11.1562 7.87488C10.6025 7.54313 10.4463 7.07438 10.6875 6.46863C10.8415 6.28232 11.0185 6.13648 11.2187 6.03113Z" fill="#501414"/>
</g>
<defs>
<clipPath id="clip0_129_117">
<rect width="32" height="32" fill="white" transform="translate(0 0.5)"/>
</clipPath>
</defs>
</svg>
