<svg width="32" height="33" viewBox="0 0 32 33" fill="none" xmlns="http://www.w3.org/2000/svg">
<g clip-path="url(#clip0_99_82)">
<path opacity="0.949" d="M32.0687 7.96875V7.95491L32.065 7.94158C31.8898 7.32091 31.4918 6.89054 30.8794 6.65659L30.8727 6.65403L30.8658 6.65245L25.8159 5.51315C25.7808 4.55601 25.7295 3.60136 25.6623 2.6492L25.6614 2.63673L25.6574 2.62486C25.5344 2.25276 25.3439 1.95089 25.0836 1.72379C24.8233 1.49671 24.498 1.34865 24.1121 1.2767L24.1034 1.27507L24.0945 1.275C18.6773 1.23333 13.2602 1.23333 7.84298 1.275L7.83413 1.27507L7.82542 1.2767C7.43946 1.34865 7.11423 1.49671 6.85391 1.72379C6.59359 1.95089 6.40308 2.25276 6.28005 2.62486L6.27613 2.63673L6.27525 2.6492C6.20797 3.60142 6.15671 4.55613 6.1216 5.51334C4.43961 5.89684 2.7564 6.27652 1.07197 6.6524L1.06486 6.65399L1.05806 6.65659C0.445667 6.89054 0.0477261 7.32091 -0.127489 7.94158L-0.13125 7.95491V7.96875V7.97058V7.97241V7.97424V7.97608V7.97791V7.97974V7.98157V7.9834V7.98523V7.98706V7.98889V7.99072V7.99256V7.99439V7.99622V7.99805V7.99988V8.00171V8.00354V8.00537V8.0072V8.00903V8.01087V8.0127V8.01453V8.01636V8.01819V8.02002V8.02185V8.02368V8.02551V8.02735V8.02918V8.03101V8.03284V8.03467V8.0365V8.03833V8.04016V8.04199V8.04382V8.04566V8.04749V8.04932V8.05115V8.05298V8.05481V8.05664V8.05847V8.0603V8.06214V8.06397V8.0658V8.06763V8.06946V8.07129V8.07312V8.07495V8.07678V8.07861V8.08045V8.08228V8.08411V8.08594V8.08777V8.0896V8.09143V8.09326V8.09509V8.09693V8.09876V8.10059V8.10242V8.10425V8.10608V8.10791V8.10974V8.11157V8.1134V8.11524V8.11707V8.1189V8.12073V8.12256V8.12439V8.12622V8.12805V8.12988V8.13172V8.13355V8.13538V8.13721V8.13904V8.14087V8.1427V8.14453V8.14636V8.14819V8.15003V8.15186V8.15369V8.15552V8.15735V8.15918V8.16101V8.16284V8.16467V8.16651V8.16834V8.17017V8.172V8.17383V8.17566V8.17749V8.17932V8.18115V8.18298V8.18482V8.18665V8.18848V8.19031V8.19214V8.19397V8.1958V8.19763V8.19946V8.2013V8.20313V8.20496V8.20679V8.20862V8.21045V8.21228V8.21411V8.21594V8.21777V8.21961V8.22144V8.22327V8.2251V8.22693V8.22876V8.23059V8.23242V8.23425V8.23609V8.23792V8.23975V8.24158V8.24341V8.24524V8.24707V8.2489V8.25073V8.25256V8.2544V8.25623V8.25806V8.25989V8.26172V8.26355V8.26538V8.26721V8.26904V8.27088V8.27271V8.27454V8.27637V8.2782V8.28003V8.28186V8.28369V8.28552V8.28735V8.28919V8.29102V8.29285V8.29468V8.29651V8.29834V8.30017V8.302V8.30383V8.30567V8.3075V8.30933V8.31116V8.31299V8.31482V8.31665V8.31848V8.32031V8.32214V8.32398V8.32581V8.32764V8.32947V8.3313V8.33313V8.33496V8.33679V8.33862V8.34046V8.34229V8.34412V8.34595V8.34778V8.34961V8.35144V8.35327V8.3551V8.35694V8.35877V8.3606V8.36243V8.36426V8.36609V8.36792V8.36975V8.37158V8.37341V8.37525V8.37708V8.37891V8.38074V8.38257V8.3844V8.38623V8.38806V8.38989V8.39173V8.39356V8.39539V8.39722V8.39905V8.40088V8.40271V8.40454V8.40637V8.4082V8.41004V8.41187V8.4137V8.41553V8.41736V8.41919V8.42102V8.42285V8.42468V8.42652V8.42835V8.43018V8.43201V8.43384V8.43567V8.4375V8.43933V8.44116V8.44299V8.44483V8.44666V8.44849V8.45032V8.45215V8.45398V8.45581V8.45764V8.45947V8.46131V8.46314V8.46497V8.4668V8.46863V8.47046V8.47229V8.47412V8.47595V8.47778V8.47962V8.48145V8.48328V8.48511V8.48694V8.48877V8.4906V8.49243V8.49426V8.4961V8.49793V8.49976V8.50159V8.50342V8.50525V8.50708V8.50891V8.51074V8.51257V8.51441V8.51624V8.51807V8.5199V8.52173V8.52356V8.52539V8.52722V8.52905V8.53089V8.53272V8.53455V8.53638V8.53821V8.54004V8.54187V8.5437V8.54553V8.54736V8.5492V8.55103V8.55286V8.55469V8.55652V8.55835V8.56018V8.56201V8.56384V8.56568V8.56751V8.56934V8.57117V8.573V8.57483V8.57666V8.57849V8.58032V8.58215V8.58399V8.58582V8.58765V8.58948V8.59131V8.59314V8.59497V8.5968V8.59863V8.60047V8.6023V8.60413V8.60596V8.60779V8.60962V8.61145V8.61328V8.61511V8.61694V8.61878V8.62061V8.62244V8.62427V8.6261V8.62793V8.62976V8.63159V8.63342V8.63526V8.63709V8.63892V8.64075V8.64258V8.64441V8.64624V8.64807V8.6499V8.65173V8.65357V8.6554V8.65723V8.65906V8.66089V8.66272V8.66455V8.66638V8.66821V8.67005V8.67188V8.67371V8.67554V8.67737V8.6792V8.68103V8.68286V8.68469V8.68652V8.68836V8.69019V8.69202V8.69385V8.69568V8.69751V8.69934V8.70117V8.703V8.70484V8.70667V8.7085V8.71033V8.71216V8.71399V8.71582V8.71765V8.71948V8.72131V8.72315V8.72498V8.72681V8.72864V8.73047V8.7323V8.73413V8.73596V8.73779V8.73963V8.74146V8.74329V8.74512V8.74695V8.74878V8.75061V8.75244V8.75427V8.7561V8.75794V8.75977V8.7616V8.76343V8.76526V8.76709V8.76892V8.77075V8.77258V8.77442V8.77625V8.77808V8.77991V8.78174V8.78357V8.7854V8.78723V8.78906V8.79089V8.79273V8.79456V8.79639V8.79822V8.80005V8.80188V8.80371V8.80554V8.80737V8.80921V8.81104V8.81287V8.8147V8.81653V8.81836V8.82019V8.82202V8.82385V8.82569V8.82752V8.82935V8.83118V8.83301V8.83484V8.83667V8.8385V8.84033V8.84216V8.844V8.84583V8.84766V8.84949V8.85132V8.85315V8.85498V8.85681V8.85864V8.86048V8.86231V8.86414V8.86597V8.8678V8.86963V8.87146V8.87329V8.87512V8.87695V8.87879V8.88062V8.88245V8.88428V8.88611V8.88794V8.88977V8.8916V8.89343V8.89527V8.8971V8.89893V8.90076V8.90259V8.90442V8.90625V8.91724L-0.128864 8.92797C1.33732 15.5187 2.785 22.1217 4.21419 28.7373C4.32178 29.4052 4.5727 29.9022 4.97995 30.2091C5.38779 30.5164 5.93483 30.6196 6.606 30.5367L6.60605 30.5372L6.61493 30.5352C8.3362 30.1623 10.0535 29.7819 11.7669 29.3941C12.5422 30.5611 13.6249 31.2967 15.01 31.5977L15.01 31.598L15.0172 31.599C16.1143 31.7552 17.099 31.6465 17.9678 31.268C18.8185 30.8975 19.5516 30.2711 20.1681 29.3944C22.021 29.8382 23.8862 30.2292 25.7635 30.5672L25.7733 30.5689L25.7832 30.5687C26.1837 30.5607 26.5331 30.4644 26.8272 30.2758C27.1213 30.0871 27.3542 29.8099 27.5276 29.4496L27.5325 29.4394L27.535 29.4284C28.2384 26.328 28.9259 23.2239 29.5975 20.1158C29.6534 19.878 29.6303 19.6471 29.5282 19.4267L29.5202 19.4094L29.5063 19.3962C29.259 19.1614 29.0102 19.0376 28.7661 19.0762C28.522 19.1147 28.3239 19.3092 28.162 19.6087L28.1553 19.6212L28.1523 19.6351C27.483 22.7324 26.7979 25.8258 26.0971 28.9153C25.9414 29.048 25.7654 29.0855 25.5577 29.0286L25.5577 29.0284L25.5521 29.0272C23.9615 28.6887 22.3726 28.3426 20.7854 27.9888C20.8392 27.8188 20.8856 27.647 20.9246 27.4735L22.4707 27.4437L24.0957 27.4125L24.1039 27.4123L24.112 27.4108C24.8622 27.2718 25.3802 26.842 25.6558 26.1298L25.6622 26.1131L25.6625 26.0952C25.755 19.7628 25.7864 13.4282 25.7568 7.09137C27.2949 7.40621 28.8298 7.73986 30.3615 8.09232C30.4565 8.17083 30.5145 8.25606 30.5423 8.34731C30.5717 8.44408 30.57 8.55683 30.5294 8.68947L30.5291 8.68938L30.5274 8.69701C30.1011 10.6104 29.6947 12.5277 29.3082 14.449L29.3066 14.4571L29.3063 14.4654C29.3011 14.6228 29.3331 14.7639 29.4084 14.8831C29.4837 15.0023 29.5972 15.0917 29.7415 15.1542L29.7413 15.1547L29.7508 15.1577C29.9822 15.2318 30.1931 15.2373 30.3739 15.1562C30.5551 15.075 30.6881 14.9148 30.7798 14.6947L30.7834 14.6861L30.7853 14.677C31.1947 12.7487 31.6217 10.8328 32.0661 8.92899L32.0687 8.91777V8.90625V8.90442V8.90259V8.90076V8.89893V8.8971V8.89527V8.89343V8.8916V8.88977V8.88794V8.88611V8.88428V8.88245V8.88062V8.87879V8.87695V8.87512V8.87329V8.87146V8.86963V8.8678V8.86597V8.86414V8.86231V8.86048V8.85864V8.85681V8.85498V8.85315V8.85132V8.84949V8.84766V8.84583V8.844V8.84216V8.84033V8.8385V8.83667V8.83484V8.83301V8.83118V8.82935V8.82752V8.82569V8.82385V8.82202V8.82019V8.81836V8.81653V8.8147V8.81287V8.81104V8.80921V8.80737V8.80554V8.80371V8.80188V8.80005V8.79822V8.79639V8.79456V8.79273V8.79089V8.78906V8.78723V8.7854V8.78357V8.78174V8.77991V8.77808V8.77625V8.77442V8.77258V8.77075V8.76892V8.76709V8.76526V8.76343V8.7616V8.75977V8.75794V8.7561V8.75427V8.75244V8.75061V8.74878V8.74695V8.74512V8.74329V8.74146V8.73963V8.73779V8.73596V8.73413V8.7323V8.73047V8.72864V8.72681V8.72498V8.72315V8.72131V8.71948V8.71765V8.71582V8.71399V8.71216V8.71033V8.7085V8.70667V8.70484V8.703V8.70117V8.69934V8.69751V8.69568V8.69385V8.69202V8.69019V8.68836V8.68652V8.68469V8.68286V8.68103V8.6792V8.67737V8.67554V8.67371V8.67188V8.67005V8.66821V8.66638V8.66455V8.66272V8.66089V8.65906V8.65723V8.6554V8.65357V8.65173V8.6499V8.64807V8.64624V8.64441V8.64258V8.64075V8.63892V8.63709V8.63526V8.63342V8.63159V8.62976V8.62793V8.6261V8.62427V8.62244V8.62061V8.61878V8.61694V8.61511V8.61328V8.61145V8.60962V8.60779V8.60596V8.60413V8.6023V8.60047V8.59863V8.5968V8.59497V8.59314V8.59131V8.58948V8.58765V8.58582V8.58399V8.58215V8.58032V8.57849V8.57666V8.57483V8.573V8.57117V8.56934V8.56751V8.56568V8.56384V8.56201V8.56018V8.55835V8.55652V8.55469V8.55286V8.55103V8.5492V8.54736V8.54553V8.5437V8.54187V8.54004V8.53821V8.53638V8.53455V8.53272V8.53089V8.52905V8.52722V8.52539V8.52356V8.52173V8.5199V8.51807V8.51624V8.51441V8.51257V8.51074V8.50891V8.50708V8.50525V8.50342V8.50159V8.49976V8.49793V8.4961V8.49426V8.49243V8.4906V8.48877V8.48694V8.48511V8.48328V8.48145V8.47962V8.47778V8.47595V8.47412V8.47229V8.47046V8.46863V8.4668V8.46497V8.46314V8.46131V8.45947V8.45764V8.45581V8.45398V8.45215V8.45032V8.44849V8.44666V8.44483V8.44299V8.44116V8.43933V8.4375V8.43567V8.43384V8.43201V8.43018V8.42835V8.42652V8.42468V8.42285V8.42102V8.41919V8.41736V8.41553V8.4137V8.41187V8.41004V8.4082V8.40637V8.40454V8.40271V8.40088V8.39905V8.39722V8.39539V8.39356V8.39173V8.38989V8.38806V8.38623V8.3844V8.38257V8.38074V8.37891V8.37708V8.37525V8.37341V8.37158V8.36975V8.36792V8.36609V8.36426V8.36243V8.3606V8.35877V8.35694V8.3551V8.35327V8.35144V8.34961V8.34778V8.34595V8.34412V8.34229V8.34046V8.33862V8.33679V8.33496V8.33313V8.3313V8.32947V8.32764V8.32581V8.32398V8.32214V8.32031V8.31848V8.31665V8.31482V8.31299V8.31116V8.30933V8.3075V8.30567V8.30383V8.302V8.30017V8.29834V8.29651V8.29468V8.29285V8.29102V8.28919V8.28735V8.28552V8.28369V8.28186V8.28003V8.2782V8.27637V8.27454V8.27271V8.27088V8.26904V8.26721V8.26538V8.26355V8.26172V8.25989V8.25806V8.25623V8.2544V8.25256V8.25073V8.2489V8.24707V8.24524V8.24341V8.24158V8.23975V8.23792V8.23609V8.23425V8.23242V8.23059V8.22876V8.22693V8.2251V8.22327V8.22144V8.21961V8.21777V8.21594V8.21411V8.21228V8.21045V8.20862V8.20679V8.20496V8.20313V8.2013V8.19946V8.19763V8.1958V8.19397V8.19214V8.19031V8.18848V8.18665V8.18482V8.18298V8.18115V8.17932V8.17749V8.17566V8.17383V8.172V8.17017V8.16834V8.16651V8.16467V8.16284V8.16101V8.15918V8.15735V8.15552V8.15369V8.15186V8.15003V8.14819V8.14636V8.14453V8.1427V8.14087V8.13904V8.13721V8.13538V8.13355V8.13172V8.12988V8.12805V8.12622V8.12439V8.12256V8.12073V8.1189V8.11707V8.11524V8.1134V8.11157V8.10974V8.10791V8.10608V8.10425V8.10242V8.10059V8.09876V8.09693V8.09509V8.09326V8.09143V8.0896V8.08777V8.08594V8.08411V8.08228V8.08045V8.07861V8.07678V8.07495V8.07312V8.07129V8.06946V8.06763V8.0658V8.06397V8.06214V8.0603V8.05847V8.05664V8.05481V8.05298V8.05115V8.04932V8.04749V8.04566V8.04382V8.04199V8.04016V8.03833V8.0365V8.03467V8.03284V8.03101V8.02918V8.02735V8.02551V8.02368V8.02185V8.02002V8.01819V8.01636V8.01453V8.0127V8.01087V8.00903V8.0072V8.00537V8.00354V8.00171V7.99988V7.99805V7.99622V7.99439V7.99256V7.99072V7.98889V7.98706V7.98523V7.9834V7.98157V7.97974V7.97791V7.97608V7.97424V7.97241V7.97058V7.96875ZM15.9763 21.6815L15.9688 21.681L15.9612 21.6815C14.6189 21.7833 13.5277 22.1882 12.6955 22.9031C11.8786 23.6048 11.3196 24.5979 11.0133 25.8741C10.0269 25.9417 9.04 25.9506 8.05242 25.9009C7.95334 25.8615 7.86498 25.807 7.78691 25.7373C7.68367 18.1978 7.66302 10.6549 7.72488 3.10851C7.77796 2.93338 7.88442 2.8187 8.04904 2.75622C13.3284 2.74587 18.6078 2.75626 23.8872 2.78739C23.9854 2.82677 24.0731 2.88099 24.1506 2.95021C24.2539 10.4919 24.2745 18.037 24.2126 25.5857C24.1952 25.6936 24.1444 25.7772 24.057 25.8413C23.5015 25.9089 22.9418 25.9389 22.3777 25.9313L21.6135 25.9001L20.9237 25.8719C20.6173 24.5968 20.0584 23.6044 19.242 22.9031C18.4098 22.1882 17.3186 21.7833 15.9763 21.6815ZM6.18109 7.06875C6.17092 13.3065 6.18142 19.5441 6.2125 25.7817L6.21255 25.7919L6.21463 25.8018C6.30637 26.2389 6.48599 26.5962 6.75741 26.8676C7.02883 27.139 7.38608 27.3186 7.82321 27.4104L7.83242 27.4123L7.84183 27.4125L9.46683 27.4437L11.0129 27.4735C11.0519 27.6471 11.0984 27.8189 11.1521 27.989C9.49827 28.3597 7.84127 28.7152 6.18117 29.0555C6.01468 29.0415 5.90484 28.9898 5.83574 28.913C5.76448 28.8339 5.7224 28.7124 5.72499 28.5327L5.72516 28.5212L5.7227 28.5099C4.26315 21.8266 2.81564 15.1409 1.38017 8.45309C1.37136 8.36372 1.38497 8.29356 1.41476 8.2377C1.44363 8.18358 1.49175 8.13525 1.56586 8.09483C3.0705 7.77019 4.56295 7.42816 6.04322 7.06875H6.04346H6.04394H6.04443H6.04492H6.04541H6.0459H6.04639H6.04687H6.04736H6.04785H6.04834H6.04883H6.04932H6.0498H6.05029H6.05078H6.05127H6.05176H6.05225H6.05273H6.05322H6.05371H6.0542H6.05469H6.05518H6.05566H6.05615H6.05664H6.05713H6.05762H6.0581H6.05859H6.05908H6.05957H6.06006H6.06055H6.06103H6.06152H6.06201H6.0625H6.06299H6.06348H6.06396H6.06445H6.06494H6.06543H6.06592H6.06641H6.06689H6.06738H6.06787H6.06836H6.06885H6.06934H6.06982H6.07031H6.0708H6.07129H6.07178H6.07227H6.07275H6.07324H6.07373H6.07422H6.07471H6.07519H6.07568H6.07617H6.07666H6.07715H6.07764H6.07812H6.07861H6.0791H6.07959H6.08008H6.08057H6.08105H6.08154H6.08203H6.08252H6.08301H6.0835H6.08398H6.08447H6.08496H6.08545H6.08594H6.08643H6.08691H6.0874H6.08789H6.08838H6.08887H6.08935H6.08984H6.09033H6.09082H6.09131H6.0918H6.09228H6.09277H6.09326H6.09375H6.09424H6.09473H6.09521H6.0957H6.09619H6.09668H6.09717H6.09766H6.09814H6.09863H6.09912H6.09961H6.1001H6.10059H6.10107H6.10156H6.10205H6.10254H6.10303H6.10352H6.104H6.10449H6.10498H6.10547H6.10596H6.10644H6.10693H6.10742H6.10791H6.1084H6.10889H6.10937H6.10986H6.11035H6.11084H6.11133H6.11182H6.1123H6.11279H6.11328H6.11377H6.11426H6.11475H6.11523H6.11572H6.11621H6.1167H6.11719H6.11768H6.11816H6.11865H6.11914H6.11963H6.12012H6.1206H6.12109H6.12158H6.12207H6.12256H6.12305H6.12353H6.12402H6.12451H6.125H6.12549H6.12598H6.12646H6.12695H6.12744H6.12793H6.12842H6.12891H6.12939H6.12988H6.13037H6.13086H6.13135H6.13184H6.13232H6.13281H6.1333H6.13379H6.13428H6.13477H6.13525H6.13574H6.13623H6.13672H6.13721H6.13769H6.13818H6.13867H6.13916H6.13965H6.14014H6.14062H6.14111H6.1416H6.14209H6.14258H6.14307H6.14355H6.14404H6.14453H6.14502H6.14551H6.146H6.14648H6.14697H6.14746H6.14795H6.14844H6.14893H6.14941H6.1499H6.15039H6.15088H6.15137H6.15186H6.15234H6.15283H6.15332H6.15381H6.1543H6.15479H6.15527H6.15576H6.15625H6.15674H6.15723H6.15771H6.1582H6.15869H6.15918H6.15967H6.16016H6.16064H6.16113H6.16162H6.16211H6.1626H6.16309H6.16357H6.16406H6.16455H6.16504H6.16553H6.16602H6.1665H6.16699H6.16748H6.16797H6.16846H6.16895H6.16943H6.16992H6.17041H6.1709H6.17139H6.17188H6.17236H6.17285H6.17334H6.17383H6.17432H6.17481H6.17529H6.17578H6.17627H6.17676H6.17725H6.17773H6.17822H6.17871H6.1792H6.17969H6.18018H6.18066H6.18109ZM14.1457 23.7106C14.5945 23.4706 15.06 23.2984 15.5425 23.1936C16.5753 23.1817 17.406 23.4211 18.0434 23.9029C18.6807 24.3846 19.1352 25.1167 19.4008 26.1097C19.465 27.23 19.2381 28.1178 18.732 28.7842C18.2259 29.4506 17.4307 29.9088 16.3323 30.1501C15.315 30.162 14.4973 29.9253 13.8704 29.4489C13.2429 28.972 12.796 28.2468 12.536 27.2626C12.4481 26.5005 12.5395 25.8269 12.8061 25.2385C13.0727 24.6498 13.5175 24.1402 14.1457 23.7106Z" fill="#501414" stroke="#501414" stroke-width="0.2"/>
<path opacity="0.939" d="M17.4054 5.61875L17.3867 5.6189L17.3692 5.62586C17.1933 5.69597 17.0438 5.81168 16.921 5.96994L16.9137 5.97937L16.9088 5.99025C16.805 6.22121 16.7769 6.43804 16.8456 6.63184C16.9144 6.82568 17.0729 6.97604 17.2989 7.08939L17.3186 7.09926L17.3406 7.09995C18.676 7.1417 20.0115 7.1417 21.3469 7.09995L21.3674 7.09931L21.386 7.09061C21.5636 7.00774 21.6952 6.87608 21.7781 6.69855L21.7788 6.69889L21.7827 6.68673C21.8568 6.45533 21.8623 6.24439 21.7812 6.06362C21.7 5.88236 21.5398 5.74938 21.3197 5.65769L21.3024 5.65048L21.2837 5.65003C19.9911 5.61875 18.6983 5.60833 17.4054 5.61875Z" fill="#501414" stroke="#501414" stroke-width="0.2"/>
<path opacity="0.95" d="M10.281 9.86876L10.2482 9.86885L10.2218 9.88833C10.0951 9.98192 9.97575 10.0906 9.86353 10.214L9.84978 10.2291L9.84307 10.2484C9.75978 10.4876 9.74949 10.7073 9.82969 10.8985C9.90997 11.09 10.0735 11.2353 10.3018 11.3408L10.3212 11.3498L10.3426 11.35C13.9892 11.3917 17.6358 11.3917 21.2824 11.35L21.2957 11.3498L21.3086 11.3462C21.482 11.297 21.6197 11.2118 21.7093 11.0839C21.7977 10.9576 21.8308 10.8015 21.819 10.6245C21.8282 10.4637 21.7989 10.3188 21.7249 10.1955C21.6498 10.0704 21.5338 9.97583 21.3848 9.90881L21.3656 9.90019L21.3446 9.90001C17.6568 9.86876 13.9689 9.85832 10.281 9.86876Z" fill="#501414" stroke="#501414" stroke-width="0.2"/>
<path opacity="0.947" d="M10.281 14.1188L10.2475 14.1189L10.2209 14.139C9.91343 14.372 9.73276 14.6206 9.7457 14.8859C9.75864 15.151 9.96252 15.3816 10.2911 15.585L10.3148 15.5997L10.3426 15.6C13.9684 15.6417 17.5941 15.6417 21.2199 15.6L21.2279 15.5999L21.2357 15.5986C21.4277 15.5655 21.583 15.4897 21.6862 15.3607C21.7883 15.233 21.8282 15.0672 21.8189 14.8755C21.8283 14.7142 21.7991 14.5691 21.7249 14.4455C21.6498 14.3204 21.5338 14.2258 21.3848 14.1588L21.3656 14.1502L21.3446 14.15C17.6568 14.1188 13.9689 14.1083 10.281 14.1188Z" fill="#501414" stroke="#501414" stroke-width="0.2"/>
<path opacity="0.891" d="M29.2844 16.3688L29.2612 16.3681L29.2401 16.3776C29.0228 16.4758 28.8659 16.6147 28.7856 16.8C28.7057 16.9844 28.7088 17.1989 28.7792 17.4349L28.7842 17.4517L28.7947 17.4659C28.9683 17.6996 29.1666 17.8446 29.3924 17.8697C29.6181 17.8948 29.8437 17.7969 30.0651 17.6072L30.0844 17.5906L30.0934 17.5669C30.2274 17.2154 30.247 16.9145 30.099 16.6958C29.9514 16.4775 29.6636 16.3807 29.2844 16.3688Z" fill="#501414" stroke="#501414" stroke-width="0.2"/>
<path opacity="0.945" d="M10.2183 18.3688L10.1802 18.3689L10.1518 18.3945C10.0444 18.4912 9.94609 18.6005 9.85686 18.7221L9.84759 18.7347L9.84263 18.7496C9.75158 19.0225 9.74553 19.2648 9.85282 19.4605C9.96024 19.6564 10.1674 19.7802 10.4453 19.8472L10.456 19.8498L10.467 19.85C12.9057 19.8917 15.3443 19.8917 17.783 19.85L17.783 19.8501L17.7884 19.8498C18.0227 19.833 18.2074 19.7218 18.3344 19.5225L18.3351 19.5229L18.3408 19.5107C18.4424 19.2907 18.4739 19.0816 18.4183 18.89C18.3626 18.698 18.2244 18.5409 18.0215 18.415L17.9978 18.4004L17.97 18.4C15.3862 18.3688 12.8023 18.3583 10.2183 18.3688Z" fill="#501414" stroke="#501414" stroke-width="0.2"/>
<path opacity="0.926" d="M17.5373 25.0564L17.4961 25.0539L17.4652 25.0812C16.7864 25.679 16.1212 26.3025 15.4695 26.9517C15.2188 26.7013 14.9448 26.481 14.6477 26.2908L14.625 26.2762L14.598 26.2751C14.2382 26.2597 13.9567 26.3328 13.7961 26.532C13.6354 26.7312 13.6239 27.0215 13.7158 27.3693L13.7214 27.3904L13.7353 27.4073C14.1248 27.881 14.5565 28.3127 15.0302 28.7022L15.0395 28.7099L15.0503 28.7151C15.3262 28.848 15.6079 28.8477 15.8866 28.7153L15.9022 28.7079L15.9145 28.6957L17.1176 27.4926L18.3207 26.2895L18.3375 26.2726L18.345 26.2501C18.4583 25.9064 18.4636 25.6133 18.3177 25.3977C18.1719 25.1821 17.898 25.0784 17.5373 25.0564Z" fill="#501414" stroke="#501414" stroke-width="0.2"/>
</g>
<defs>
<clipPath id="clip0_99_82">
<rect width="32" height="32" fill="white" transform="translate(0 0.5)"/>
</clipPath>
</defs>
</svg>
