<svg width="32" height="33" viewBox="0 0 32 33" fill="none" xmlns="http://www.w3.org/2000/svg">
<path opacity="0.922" d="M17.3987 3.4566L17.3618 3.45799L17.3279 3.47246C16.5957 3.78443 16.0356 4.28733 15.6519 4.97544C14.6673 4.2423 13.5525 3.95406 12.318 4.11437L12.254 4.12268L12.207 4.1668C12.0188 4.34325 11.8938 4.54858 11.8938 4.78146C11.8938 5.01433 12.0188 5.21967 12.207 5.39611L12.2665 5.45192L12.3481 5.45016C13.6222 5.42267 14.6699 5.87777 15.5067 6.82047L15.5327 6.84979L15.5679 6.86711C15.7717 6.96757 15.9803 7.00889 16.1815 6.95674C16.3836 6.90434 16.5434 6.76664 16.667 6.57899L16.6866 6.54933L16.6947 6.51475C16.7421 6.3133 16.8013 6.11536 16.8723 5.92091C17.1443 5.3424 17.5672 4.92081 18.1471 4.65019L18.2346 4.60934L18.257 4.51536C18.3292 4.21294 18.3229 3.92603 18.1548 3.7178C17.9858 3.50863 17.7072 3.44501 17.3987 3.4566Z" fill="#501414" stroke="#501414" stroke-width="0.4"/>
<path opacity="0.922" d="M26.7779 4.769L26.7388 4.76965L26.7029 4.78498C25.9696 5.09742 25.4089 5.60137 25.0251 6.29108C24.0417 5.58016 22.9291 5.29123 21.6969 5.42641L21.6306 5.43369L21.582 5.47932C21.3938 5.65576 21.2688 5.8611 21.2688 6.09397C21.2688 6.32684 21.3938 6.53218 21.582 6.70862L21.6407 6.76365L21.7211 6.76271C22.987 6.74782 24.0363 7.20342 24.8833 8.13478L24.9067 8.16049L24.9373 8.17681C25.087 8.2564 25.2438 8.2977 25.4048 8.2907C25.5659 8.28369 25.7182 8.22889 25.8596 8.13628L25.9248 8.09353L25.9439 8.01789C26.1064 7.37378 26.4207 6.82319 26.8885 6.36245C27.1792 6.25873 27.4179 6.08335 27.5986 5.83744L27.6269 5.79904L27.6347 5.75205C27.6818 5.47144 27.6545 5.20858 27.4879 5.01822C27.3221 4.8287 27.0645 4.76421 26.7779 4.769Z" fill="#501414" stroke="#501414" stroke-width="0.4"/>
<path opacity="0.919" d="M2.8977 5.26911L2.84362 5.27143L2.79809 5.3007C2.6142 5.41893 2.47778 5.57328 2.42473 5.77033C2.37192 5.9665 2.41114 6.1702 2.5076 6.36881L2.538 6.43141L2.6007 6.46161C3.40841 6.85071 3.88909 7.48412 4.05328 8.37998L4.06277 8.43177L4.09653 8.47217C4.22622 8.62738 4.38306 8.737 4.5691 8.77422C4.75497 8.8114 4.94232 8.77077 5.12269 8.67806L5.15728 8.66027L5.18269 8.63082C5.99647 7.68754 7.02239 7.2335 8.27661 7.26263L8.31612 7.26354L8.35301 7.24936C8.5413 7.17699 8.67681 7.04148 8.74918 6.85319L8.74964 6.85337L8.75374 6.83997C8.81195 6.64982 8.81968 6.46161 8.75198 6.28861C8.68402 6.11494 8.55065 5.98367 8.37847 5.8879L8.34053 5.86679L8.29725 5.86332C7.09949 5.76722 6.01609 6.06063 5.05519 6.74186C4.79097 6.33774 4.47177 5.97706 4.09811 5.66015L4.09819 5.66006L4.09278 5.65578C3.74373 5.37986 3.34251 5.25008 2.8977 5.26911Z" fill="#501414" stroke="#501414" stroke-width="0.4"/>
<path opacity="0.911" d="M10.4689 10.0188L10.4336 10.0187L10.4005 10.0308C10.086 10.145 9.89355 10.3825 9.83435 10.7149L9.82487 10.7681L9.84349 10.8189C10.2037 11.8008 10.5905 12.7729 11.0037 13.7352L11.0076 13.7442L11.0123 13.7528C11.114 13.9372 11.2699 14.0644 11.4708 14.1281L11.4873 14.1334L11.5045 14.1357C11.7291 14.166 11.9404 14.1367 12.1101 14.0133C12.2795 13.89 12.3732 13.6979 12.4153 13.4745L12.4256 13.4198L12.4062 13.3677C12.0251 12.3442 11.6176 11.3306 11.1836 10.3269L11.1639 10.2813L11.1251 10.2502C10.9341 10.0972 10.7131 10.019 10.4689 10.0188Z" fill="#501414" stroke="#501414" stroke-width="0.4"/>
<path opacity="0.911" d="M21.2945 10.0192L21.2321 10.015L21.1785 10.0472C21.0926 10.0986 20.9973 10.1464 20.8918 10.1904L20.8188 10.2209L20.7863 10.293C20.3546 11.2536 19.947 12.2255 19.5637 13.2086L19.5573 13.2248L19.5539 13.2419C19.5145 13.4383 19.5426 13.6299 19.6343 13.8096L19.6467 13.8338L19.665 13.8538C19.8223 14.0257 20.0074 14.1415 20.221 14.1567C20.4345 14.172 20.6342 14.0837 20.8144 13.9359L20.8521 13.9049L20.8714 13.86C21.2801 12.9051 21.6766 11.9452 22.0608 10.9802L22.0715 10.9534L22.0742 10.9246C22.0968 10.6791 22.055 10.4522 21.9076 10.2816C21.7608 10.1115 21.5419 10.0356 21.2945 10.0192Z" fill="#501414" stroke="#501414" stroke-width="0.4"/>
<path opacity="0.958" d="M15.9214 10.2068L15.8851 10.2041L15.8501 10.2143C15.6282 10.2792 15.4528 10.4151 15.33 10.6134L15.3033 10.6565L15.3003 10.707C15.2582 11.4231 15.2582 12.1394 15.3003 12.8555L15.3046 12.9277L15.3541 12.9805C15.5305 13.1687 15.7359 13.2937 15.9688 13.2937C16.2016 13.2937 16.407 13.1687 16.5834 12.9805L16.6329 12.9277L16.6372 12.8555C16.6793 12.1394 16.6793 11.4231 16.6372 10.707L16.6341 10.655L16.6061 10.6112C16.4494 10.3656 16.2144 10.2291 15.9214 10.2068Z" fill="#501414" stroke="#501414" stroke-width="0.4"/>
<path opacity="0.896" d="M25.0892 13.9648L25.0188 13.9435L24.9514 13.9729C24.8354 14.0234 24.7122 14.0747 24.5819 14.1268L24.5438 14.1421L24.5148 14.1711L24.5126 14.1733L24.5103 14.1756L24.5081 14.1779L24.5058 14.1801L24.5035 14.1824L24.5013 14.1846L24.499 14.1869L24.4968 14.1891L24.4945 14.1914L24.4922 14.1937L24.49 14.1959L24.4877 14.1982L24.4855 14.2004L24.4832 14.2027L24.481 14.205L24.4787 14.2072L24.4764 14.2095L24.4742 14.2117L24.4719 14.214L24.4697 14.2162L24.4674 14.2185L24.4651 14.2208L24.4629 14.223L24.4606 14.2253L24.4584 14.2275L24.4561 14.2298L24.4539 14.2321L24.4516 14.2343L24.4493 14.2366L24.4471 14.2388L24.4448 14.2411L24.4426 14.2433L24.4403 14.2456L24.438 14.2479L24.4358 14.2501L24.4335 14.2524L24.4313 14.2546L24.429 14.2569L24.4268 14.2592L24.4245 14.2614L24.4222 14.2637L24.42 14.2659L24.4177 14.2682L24.4155 14.2704L24.4132 14.2727L24.4109 14.275L24.4087 14.2772L24.4064 14.2795L24.4042 14.2817L24.4019 14.284L24.3997 14.2863L24.3974 14.2885L24.3951 14.2908L24.3929 14.293L24.3906 14.2953L24.3884 14.2975L24.3861 14.2998L24.3838 14.3021L24.3816 14.3043L24.3793 14.3066L24.3771 14.3088L24.3748 14.3111L24.3726 14.3134L24.3703 14.3156L24.368 14.3179L24.3658 14.3201L24.3635 14.3224L24.3613 14.3246L24.359 14.3269L24.3567 14.3292L24.3545 14.3314L24.3522 14.3337L24.35 14.3359L24.3477 14.3382L24.3455 14.3405L24.3432 14.3427L24.3409 14.345L24.3387 14.3472L24.3364 14.3495L24.3342 14.3517L24.3319 14.354L24.3296 14.3563L24.3274 14.3585L24.3251 14.3608L24.3229 14.363L24.3206 14.3653L24.3184 14.3676L24.3161 14.3698L24.3138 14.3721L24.3116 14.3743L24.3093 14.3766L24.3071 14.3788L24.3048 14.3811L24.3025 14.3834L24.3003 14.3856L24.298 14.3879L24.2958 14.3901L24.2935 14.3924L24.2913 14.3947L24.289 14.3969L24.2867 14.3992L24.2845 14.4014L24.2822 14.4037L24.28 14.4059L24.2777 14.4082L24.2754 14.4105L24.2732 14.4127L24.2709 14.415L24.2687 14.4172L24.2664 14.4195L24.2642 14.4218L24.2619 14.424L24.2596 14.4263L24.2574 14.4285L24.2551 14.4308L24.2529 14.433L24.2506 14.4353L24.2483 14.4376L24.2461 14.4398L24.2438 14.4421L24.2416 14.4443L24.2393 14.4466L24.2371 14.4489L24.2348 14.4511L24.2325 14.4534L24.2303 14.4556L24.228 14.4579L24.2258 14.4601L24.2235 14.4624L24.2212 14.4647L24.219 14.4669L24.2167 14.4692L24.2145 14.4714L24.2122 14.4737L24.21 14.476L24.2077 14.4782L24.2054 14.4805L24.2032 14.4827L24.2009 14.485L24.1987 14.4872L24.1964 14.4895L24.1941 14.4918L24.1919 14.494L24.1896 14.4963L24.1874 14.4985L24.1851 14.5008L24.1829 14.5031L24.1806 14.5053L24.1783 14.5076L24.1761 14.5098L24.1738 14.5121L24.1716 14.5143L24.1693 14.5166L24.167 14.5189L24.1648 14.5211L24.1625 14.5234L24.1603 14.5256L24.158 14.5279L24.1558 14.5302L24.1535 14.5324L24.1512 14.5347L24.149 14.5369L24.1467 14.5392L24.1445 14.5414L24.1422 14.5437L24.1399 14.546L24.1377 14.5482L24.1354 14.5505L24.1332 14.5527L24.1309 14.555L24.1287 14.5573L24.1264 14.5595L24.1241 14.5618L24.1219 14.564L24.1196 14.5663L24.1174 14.5685L24.1151 14.5708L24.1128 14.5731L24.1106 14.5753L24.1083 14.5776L24.1061 14.5798L24.1038 14.5821L24.1016 14.5844L24.0993 14.5866L24.097 14.5889L24.0948 14.5911L24.0925 14.5934L24.0903 14.5956L24.088 14.5979L24.0857 14.6002L24.0835 14.6024L24.0812 14.6047L24.079 14.6069L24.0767 14.6092L24.0745 14.6115L24.0722 14.6137L24.0699 14.616L24.0677 14.6182L24.0654 14.6205L24.0632 14.6227L24.0609 14.625L24.0586 14.6273L24.0564 14.6295L24.0541 14.6318L24.0519 14.634L24.0496 14.6363L24.0474 14.6385L24.0451 14.6408L24.0428 14.6431L24.0406 14.6453L24.0383 14.6476L24.0361 14.6498L24.0338 14.6521L24.0315 14.6544L24.0293 14.6566L24.027 14.6589L24.0248 14.6611L24.0225 14.6634L24.0203 14.6656L24.018 14.6679L24.0157 14.6702L24.0135 14.6724L24.0112 14.6747L24.009 14.6769L24.0067 14.6792L24.0045 14.6815L24.0022 14.6837L23.9999 14.686L23.9977 14.6882L23.9954 14.6905L23.9932 14.6927L23.9909 14.695L23.9886 14.6973L23.9864 14.6995L23.9841 14.7018L23.9819 14.704L23.9796 14.7063L23.9774 14.7086L23.9751 14.7108L23.9728 14.7131L23.9706 14.7153L23.9683 14.7176L23.9661 14.7198L23.9638 14.7221L23.9615 14.7244L23.9593 14.7266L23.957 14.7289L23.9548 14.7311L23.9525 14.7334L23.9503 14.7357L23.948 14.7379L23.9457 14.7402L23.9435 14.7424L23.9412 14.7447L23.939 14.7469L23.9367 14.7492L23.9344 14.7515L23.9322 14.7537L23.9299 14.756L23.9277 14.7582L23.9254 14.7605L23.9232 14.7628L23.9209 14.765L23.9186 14.7673L23.9164 14.7695L23.9141 14.7718L23.9119 14.774L23.9096 14.7763L23.9073 14.7786L23.9051 14.7808L23.9028 14.7831L23.9006 14.7853L23.8983 14.7876L23.8961 14.7899L23.8938 14.7921L23.8915 14.7944L23.8893 14.7966L23.887 14.7989L23.8848 14.8011L23.8825 14.8034L23.8802 14.8057L23.878 14.8079L23.8757 14.8102L23.8735 14.8124L23.8712 14.8147L23.869 14.817L23.8667 14.8192L23.8644 14.8215L23.8622 14.8237L23.8599 14.826L23.8577 14.8282L23.8554 14.8305L23.8531 14.8328L23.8509 14.835L23.8486 14.8373L23.8464 14.8395L23.8441 14.8418L23.8419 14.844L23.8396 14.8463L23.8373 14.8486L23.8351 14.8508L23.8328 14.8531L23.8306 14.8553L23.8283 14.8576L23.826 14.8599L23.8238 14.8621L23.8215 14.8644L23.8193 14.8666L23.817 14.8689L23.8148 14.8711L23.8125 14.8734L23.8102 14.8757L23.808 14.8779L23.8057 14.8802L23.8035 14.8824L23.8012 14.8847L23.799 14.887L23.7967 14.8892L23.7944 14.8915L23.7922 14.8937L23.7899 14.896L23.7877 14.8982L23.7854 14.9005L23.7831 14.9028L23.7809 14.905L23.7786 14.9073L23.7764 14.9095L23.7741 14.9118L23.7719 14.9141L23.7696 14.9163L23.7673 14.9186L23.7651 14.9208L23.7628 14.9231L23.7606 14.9253L23.7583 14.9276L23.756 14.9299L23.7538 14.9321L23.7515 14.9344L23.7493 14.9366L23.747 14.9389L23.7448 14.9412L23.7425 14.9434L23.7402 14.9457L23.738 14.9479L23.7357 14.9502L23.7335 14.9524L23.7312 14.9547L23.7289 14.957L23.7267 14.9592L23.7244 14.9615L23.7222 14.9637L23.7199 14.966L23.7177 14.9683L23.7154 14.9705L23.7131 14.9728L23.7109 14.975L23.7086 14.9773L23.7064 14.9795L23.7041 14.9818L23.7018 14.9841L23.6996 14.9863L23.6973 14.9886L23.6951 14.9908L23.6928 14.9931L23.6906 14.9954L23.6883 14.9976L23.686 14.9999L23.6838 15.0021L23.6815 15.0044L23.6793 15.0066L23.677 15.0089L23.6747 15.0112L23.6725 15.0134L23.6702 15.0157L23.668 15.0179L23.6657 15.0202L23.6635 15.0225L23.6612 15.0247L23.6589 15.027L23.6567 15.0292L23.6544 15.0315L23.6522 15.0337L23.6499 15.036L23.6476 15.0383L23.6454 15.0405L23.6431 15.0428L23.6409 15.045L23.6386 15.0473L23.6364 15.0496L23.6341 15.0518L23.6318 15.0541L23.6296 15.0563L23.6273 15.0586L23.6251 15.0608L23.6228 15.0631L23.6205 15.0654L23.6183 15.0676L23.616 15.0699L23.6138 15.0721L23.6115 15.0744L23.6093 15.0767L23.607 15.0789L23.6047 15.0812L23.6025 15.0834L23.6002 15.0857L23.598 15.0879L23.5957 15.0902L23.5934 15.0925L23.5912 15.0947L23.5889 15.097L23.5867 15.0992L23.5844 15.1015L23.5822 15.1038L23.5799 15.106L23.5776 15.1083L23.5754 15.1105L23.5731 15.1128L23.5709 15.115L23.5686 15.1173L23.5663 15.1196L23.5641 15.1218L23.5618 15.1241L23.5596 15.1263L23.5573 15.1286L23.5551 15.1309L23.5528 15.1331L23.5505 15.1354L23.5483 15.1376L23.546 15.1399L23.5438 15.1421L23.5415 15.1444L23.5392 15.1467L23.537 15.1489L23.5347 15.1512L23.5325 15.1534L23.5302 15.1557L23.528 15.158L23.5257 15.1602L23.5234 15.1625L23.5212 15.1647L23.5189 15.167L23.5167 15.1692L23.5144 15.1715L23.5121 15.1738L23.5099 15.176L23.5076 15.1783L23.5054 15.1805L23.5031 15.1828L23.5009 15.1851L23.4986 15.1873L23.4963 15.1896L23.4941 15.1918L23.4918 15.1941L23.4896 15.1963L23.4873 15.1986L23.485 15.2009L23.4828 15.2031L23.4805 15.2054L23.4783 15.2076L23.476 15.2099L23.4738 15.2122L23.4715 15.2144L23.4692 15.2167L23.467 15.2189L23.4647 15.2212L23.4625 15.2234L23.4602 15.2257L23.4579 15.228L23.4557 15.2302L23.4534 15.2325L23.4512 15.2347L23.4489 15.237L23.4467 15.2393L23.4444 15.2415L23.4421 15.2438L23.4399 15.246L23.4376 15.2483L23.4354 15.2505L23.4331 15.2528L23.4308 15.2551L23.4286 15.2573L23.4263 15.2596L23.4241 15.2618L23.4218 15.2641L23.4196 15.2664L23.4173 15.2686L23.415 15.2709L23.4128 15.2731L23.4105 15.2754L23.4083 15.2776L23.406 15.2799L23.4037 15.2822L23.4015 15.2844L23.3992 15.2867L23.397 15.2889L23.3947 15.2912L23.3925 15.2935L23.3902 15.2957L23.3879 15.298L23.3857 15.3002L23.3834 15.3025L23.3812 15.3047L23.3789 15.307L23.3766 15.3093L23.3744 15.3115L23.3721 15.3138L23.3699 15.316L23.3676 15.3183L23.3654 15.3206L23.3631 15.3228L23.3608 15.3251L23.3586 15.3273L23.331 15.3549L23.3158 15.3909C23.2571 15.5298 23.2035 15.6693 23.1548 15.8094L23.1317 15.876L23.1555 15.9424C23.2508 16.2088 23.4011 16.4224 23.633 16.5151C23.8652 16.608 24.1207 16.5564 24.3721 16.4282L24.4003 16.4138L24.4227 16.3914L24.4249 16.3892L24.4272 16.3869L24.4294 16.3846L24.4317 16.3824L24.434 16.3801L24.4362 16.3779L24.4385 16.3756L24.4407 16.3734L24.443 16.3711L24.4453 16.3688L24.4475 16.3666L24.4498 16.3643L24.452 16.3621L24.4543 16.3598L24.4565 16.3575L24.4588 16.3553L24.4611 16.353L24.4633 16.3508L24.4656 16.3485L24.4678 16.3463L24.4701 16.344L24.4724 16.3417L24.4746 16.3395L24.4769 16.3372L24.4791 16.335L24.4814 16.3327L24.4836 16.3304L24.4859 16.3282L24.4882 16.3259L24.4904 16.3237L24.4927 16.3214L24.4949 16.3192L24.4972 16.3169L24.4995 16.3146L24.5017 16.3124L24.504 16.3101L24.5062 16.3079L24.5085 16.3056L24.5107 16.3033L24.513 16.3011L24.5153 16.2988L24.5175 16.2966L24.5198 16.2943L24.522 16.2921L24.5243 16.2898L24.5266 16.2875L24.5288 16.2853L24.5311 16.283L24.5333 16.2808L24.5356 16.2785L24.5378 16.2762L24.5401 16.274L24.5424 16.2717L24.5446 16.2695L24.5469 16.2672L24.5491 16.265L24.5514 16.2627L24.5537 16.2604L24.5559 16.2582L24.5582 16.2559L24.5604 16.2537L24.5627 16.2514L24.5649 16.2491L24.5672 16.2469L24.5695 16.2446L24.5717 16.2424L24.574 16.2401L24.5762 16.2379L24.5785 16.2356L24.5808 16.2333L24.583 16.2311L24.5853 16.2288L24.5875 16.2266L24.5898 16.2243L24.592 16.222L24.5943 16.2198L24.5966 16.2175L24.5988 16.2153L24.6011 16.213L24.6033 16.2108L24.6056 16.2085L24.6079 16.2062L24.6101 16.204L24.6124 16.2017L24.6146 16.1995L24.6169 16.1972L24.6191 16.1949L24.6214 16.1927L24.6237 16.1904L24.6259 16.1882L24.6282 16.1859L24.6304 16.1837L24.6327 16.1814L24.635 16.1791L24.6372 16.1769L24.6395 16.1746L24.6417 16.1724L24.644 16.1701L24.6462 16.1678L24.6485 16.1656L24.6508 16.1633L24.653 16.1611L24.6553 16.1588L24.6575 16.1566L24.6598 16.1543L24.6621 16.152L24.6643 16.1498L24.6666 16.1475L24.6688 16.1453L24.6711 16.143L24.6733 16.1407L24.6756 16.1385L24.6779 16.1362L24.6801 16.134L24.6824 16.1317L24.6846 16.1295L24.6869 16.1272L24.6892 16.1249L24.6914 16.1227L24.6937 16.1204L24.6959 16.1182L24.6982 16.1159L24.7004 16.1136L24.7027 16.1114L24.705 16.1091L24.7072 16.1069L24.7095 16.1046L24.7117 16.1024L24.714 16.1001L24.7163 16.0978L24.7185 16.0956L24.7208 16.0933L24.723 16.0911L24.7253 16.0888L24.7275 16.0865L24.7298 16.0843L24.7321 16.082L24.7343 16.0798L24.7366 16.0775L24.7388 16.0753L24.7411 16.073L24.7434 16.0707L24.7456 16.0685L24.7479 16.0662L24.7501 16.064L24.7524 16.0617L24.7546 16.0594L24.7569 16.0572L24.7592 16.0549L24.7614 16.0527L24.7637 16.0504L24.7659 16.0482L24.7682 16.0459L24.7705 16.0436L24.7727 16.0414L24.775 16.0391L24.7772 16.0369L24.7795 16.0346L24.7817 16.0323L24.784 16.0301L24.7863 16.0278L24.7885 16.0256L24.7908 16.0233L24.793 16.0211L24.7953 16.0188L24.7976 16.0165L24.7998 16.0143L24.8021 16.012L24.8043 16.0098L24.8066 16.0075L24.8088 16.0052L24.8111 16.003L24.8134 16.0007L24.8156 15.9985L24.8179 15.9962L24.8201 15.994L24.8224 15.9917L24.8247 15.9894L24.8269 15.9872L24.8292 15.9849L24.8314 15.9827L24.8337 15.9804L24.8359 15.9781L24.8382 15.9759L24.8405 15.9736L24.8427 15.9714L24.845 15.9691L24.8472 15.9669L24.8495 15.9646L24.8518 15.9623L24.854 15.9601L24.8563 15.9578L24.8585 15.9556L24.8608 15.9533L24.863 15.951L24.8653 15.9488L24.8676 15.9465L24.8698 15.9443L24.8721 15.942L24.8743 15.9398L24.8766 15.9375L24.8789 15.9352L24.8811 15.933L24.8834 15.9307L24.8856 15.9285L24.8879 15.9262L24.8901 15.924L24.8924 15.9217L24.8947 15.9194L24.8969 15.9172L24.8992 15.9149L24.9014 15.9127L24.9037 15.9104L24.906 15.9081L24.9082 15.9059L24.9105 15.9036L24.9127 15.9014L24.915 15.8991L24.9172 15.8969L24.9195 15.8946L24.9218 15.8923L24.924 15.8901L24.9263 15.8878L24.9285 15.8856L24.9308 15.8833L24.933 15.881L24.9353 15.8788L24.9376 15.8765L24.9398 15.8743L24.9421 15.872L24.9443 15.8698L24.9466 15.8675L24.9489 15.8652L24.9511 15.863L24.9534 15.8607L24.9556 15.8585L24.9579 15.8562L24.9601 15.8539L24.9624 15.8517L24.9647 15.8494L24.9669 15.8472L24.9692 15.8449L24.9714 15.8427L24.9737 15.8404L24.976 15.8381L24.9782 15.8359L24.9805 15.8336L24.9827 15.8314L24.985 15.8291L24.9872 15.8268L24.9895 15.8246L24.9918 15.8223L24.994 15.8201L24.9963 15.8178L24.9985 15.8156L25.0008 15.8133L25.0031 15.811L25.0053 15.8088L25.0076 15.8065L25.0098 15.8043L25.0121 15.802L25.0143 15.7997L25.0166 15.7975L25.0189 15.7952L25.0211 15.793L25.0234 15.7907L25.0256 15.7885L25.0279 15.7862L25.0302 15.7839L25.0324 15.7817L25.0347 15.7794L25.0369 15.7772L25.0392 15.7749L25.0414 15.7726L25.0437 15.7704L25.046 15.7681L25.0482 15.7659L25.0505 15.7636L25.0527 15.7614L25.055 15.7591L25.0573 15.7568L25.0595 15.7546L25.0618 15.7523L25.064 15.7501L25.0663 15.7478L25.0685 15.7455L25.0708 15.7433L25.0731 15.741L25.0753 15.7388L25.0776 15.7365L25.0798 15.7343L25.0821 15.732L25.0844 15.7297L25.0866 15.7275L25.0889 15.7252L25.0911 15.723L25.0934 15.7207L25.0956 15.7185L25.0979 15.7162L25.1002 15.7139L25.1024 15.7117L25.1047 15.7094L25.1069 15.7072L25.1092 15.7049L25.1115 15.7026L25.1137 15.7004L25.116 15.6981L25.1182 15.6959L25.1205 15.6936L25.1227 15.6914L25.125 15.6891L25.1273 15.6868L25.1295 15.6846L25.1318 15.6823L25.134 15.6801L25.1363 15.6778L25.1385 15.6755L25.1408 15.6733L25.1431 15.671L25.1453 15.6688L25.1476 15.6665L25.1498 15.6643L25.1521 15.662L25.1544 15.6597L25.1566 15.6575L25.1589 15.6552L25.1611 15.653L25.1634 15.6507L25.1656 15.6484L25.1679 15.6462L25.1702 15.6439L25.1724 15.6417L25.1747 15.6394L25.1769 15.6372L25.1792 15.6349L25.1815 15.6326L25.1837 15.6304L25.186 15.6281L25.1882 15.6259L25.1905 15.6236L25.1927 15.6213L25.195 15.6191L25.1973 15.6168L25.1995 15.6146L25.2018 15.6123L25.204 15.6101L25.2063 15.6078L25.2086 15.6055L25.2108 15.6033L25.2131 15.601L25.2153 15.5988L25.2176 15.5965L25.2198 15.5942L25.2221 15.592L25.2244 15.5897L25.2266 15.5875L25.2289 15.5852L25.2311 15.583L25.2334 15.5807L25.2357 15.5784L25.2379 15.5762L25.2402 15.5739L25.2424 15.5717L25.2447 15.5694L25.2469 15.5671L25.2492 15.5649L25.2515 15.5626L25.2537 15.5604L25.256 15.5581L25.2582 15.5559L25.2605 15.5536L25.2628 15.5513L25.265 15.5491L25.2673 15.5468L25.2695 15.5446L25.2718 15.5423L25.274 15.54L25.2763 15.5378L25.2786 15.5355L25.2808 15.5333L25.2831 15.531L25.2853 15.5288L25.2876 15.5265L25.2899 15.5242L25.2921 15.522L25.2944 15.5197L25.2966 15.5175L25.2989 15.5152L25.3011 15.5129L25.3034 15.5107L25.3057 15.5084L25.3079 15.5062L25.3102 15.5039L25.3124 15.5017L25.3147 15.4994L25.317 15.4971L25.3192 15.4949L25.3215 15.4926L25.3237 15.4904L25.326 15.4881L25.3282 15.4858L25.3305 15.4836L25.3328 15.4813L25.335 15.4791L25.3373 15.4768L25.3395 15.4746L25.3418 15.4723L25.3441 15.47L25.3463 15.4678L25.3486 15.4655L25.3508 15.4633L25.3531 15.461L25.3553 15.4587L25.3576 15.4565L25.3599 15.4542L25.3621 15.452L25.3644 15.4497L25.3666 15.4475L25.3689 15.4452L25.3712 15.4429L25.3734 15.4407L25.3757 15.4384L25.3779 15.4362L25.3802 15.4339L25.3824 15.4316L25.3847 15.4294L25.387 15.4271L25.3892 15.4249L25.3915 15.4226L25.3937 15.4204L25.396 15.4181L25.3983 15.4158L25.4005 15.4136L25.4028 15.4113L25.405 15.4091L25.4073 15.4068L25.4095 15.4045L25.4118 15.4023L25.4141 15.4L25.4163 15.3978L25.4186 15.3955L25.4208 15.3933L25.4231 15.391L25.4254 15.3887L25.4276 15.3865L25.4299 15.3842L25.4321 15.382L25.4344 15.3797L25.4366 15.3774L25.4389 15.3752L25.4412 15.3729L25.4434 15.3707L25.4457 15.3684L25.4479 15.3662L25.4502 15.3639L25.4525 15.3616L25.4547 15.3594L25.457 15.3571L25.4592 15.3549L25.4615 15.3526L25.4637 15.3503L25.466 15.3481L25.4683 15.3458L25.4705 15.3436L25.4728 15.3413L25.475 15.3391L25.4773 15.3368L25.4796 15.3345L25.4818 15.3323L25.4841 15.33L25.4863 15.3278L25.4886 15.3255L25.4908 15.3232L25.4931 15.321L25.4954 15.3187L25.4976 15.3165L25.4999 15.3142L25.5021 15.312L25.5044 15.3097L25.5067 15.3074L25.5089 15.3052L25.5112 15.3029L25.5134 15.3007L25.5157 15.2984L25.5179 15.2961L25.5202 15.2939L25.5225 15.2916L25.5247 15.2894L25.527 15.2871L25.5292 15.2849L25.5315 15.2826L25.5338 15.2803L25.536 15.2781L25.5383 15.2758L25.5405 15.2736L25.5428 15.2713L25.545 15.269L25.5473 15.2668L25.5496 15.2645L25.5518 15.2623L25.5541 15.26L25.5563 15.2578L25.5586 15.2555L25.5609 15.2532L25.5631 15.251L25.5654 15.2487L25.5676 15.2465L25.5699 15.2442L25.5721 15.2419L25.5744 15.2397L25.5767 15.2374L25.5789 15.2352L25.602 15.2121L25.6165 15.1829C25.7459 14.9231 25.7973 14.6602 25.6957 14.4259C25.5942 14.1917 25.3673 14.0489 25.0892 13.9648Z" fill="#501414" stroke="#501414" stroke-width="0.4"/>
<path opacity="0.897" d="M6.63815 14.0194L6.57119 14.0255L6.52151 14.0708C6.36344 14.2149 6.25677 14.3857 6.22146 14.5835C6.18636 14.7801 6.22579 14.9809 6.31907 15.1789L6.33392 15.2104L6.35857 15.235L7.51482 16.3913L7.53923 16.4157L7.5704 16.4305C7.69874 16.4915 7.82975 16.5461 7.9634 16.5943L8.02465 16.6164L8.08716 16.5982C8.36251 16.518 8.58716 16.3771 8.68865 16.1429C8.78935 15.9105 8.74222 15.647 8.61853 15.3836L8.60365 15.3519L8.57892 15.3272L7.42267 14.171L7.39445 14.1427L7.35756 14.1275C7.12806 14.0328 6.88726 13.9968 6.63815 14.0194Z" fill="#501414" stroke="#501414" stroke-width="0.4"/>
<path opacity="0.927" d="M14.8253 14.5822L14.8152 14.5831L14.8052 14.5851C14.2871 14.6868 13.7634 14.802 13.234 14.9307L13.2259 14.9327L13.218 14.9353C9.85772 16.0547 7.7459 18.3481 6.89952 21.7961L6.8841 21.859L6.90837 21.9189C6.94456 22.0083 6.97225 22.1005 6.99144 22.1958L7.00248 22.2506L7.04037 22.2918C7.19866 22.4637 7.38431 22.5797 7.59781 22.595C7.81173 22.6103 8.01112 22.5214 8.19024 22.3727L8.23855 22.3326L8.25527 22.2721C8.80181 20.2949 9.71908 18.7937 10.9979 17.7524C12.274 16.7134 13.9263 16.1191 15.9688 15.9818C18.0112 16.1191 19.6635 16.7134 20.9396 17.7524C22.2184 18.7937 23.1357 20.2949 23.6822 22.2721L23.7039 22.3506L23.7743 22.3916C24.0329 22.5424 24.2999 22.6133 24.5446 22.5186C24.7884 22.4243 24.9401 22.1922 25.0338 21.9061L25.0512 21.8531L25.0386 21.7988C24.7014 20.3384 24.0741 19.02 23.1577 17.8458L23.158 17.8455L23.1492 17.8357C20.9401 15.36 18.1589 14.2736 14.8253 14.5822Z" fill="#501414" stroke="#501414" stroke-width="0.4"/>
<path opacity="0.913" d="M5.3946 20.1857C5.54642 20.2465 5.70374 20.2464 5.85556 20.1857L5.87349 20.1785L5.88971 20.168C6.14183 20.0053 6.33138 19.7985 6.3478 19.5357C6.36418 19.2735 6.2027 19.0434 5.97359 18.8479L5.95169 18.8292L5.92541 18.8174C4.93685 18.3753 3.93027 17.9873 2.90569 17.6536L2.83051 17.6291L2.75891 17.6626C2.50115 17.7834 2.30064 17.9552 2.23747 18.2C2.17455 18.4438 2.26532 18.693 2.43011 18.9275L2.46279 18.974L2.51504 18.9964C3.46984 19.4051 4.42969 19.8015 5.3946 20.1857ZM5.3946 20.1857C5.39465 20.1858 5.3947 20.1858 5.39476 20.1858L5.46875 20L5.39444 20.1857C5.39449 20.1857 5.39455 20.1857 5.3946 20.1857Z" fill="#501414" stroke="#501414" stroke-width="0.4"/>
<path opacity="0.912" d="M28.867 17.6451L28.8128 17.6388L28.7629 17.6608C27.8613 18.0592 26.9468 18.4437 26.0195 18.8143L25.9901 18.826L25.9657 18.8463L25.872 18.9245L25.7782 19.0026L25.7392 19.0351L25.7204 19.0823C25.6035 19.3763 25.5627 19.6704 25.7138 19.897C25.8654 20.1245 26.1524 20.1979 26.4674 20.2L26.5065 20.2003L26.5427 20.1858C27.5077 19.8016 28.4676 19.4051 29.4225 18.9964L29.4842 18.97L29.5174 18.9117C29.687 18.6147 29.7729 18.3091 29.6401 18.0519C29.5081 17.7961 29.2095 17.6851 28.867 17.6451Z" fill="#501414" stroke="#501414" stroke-width="0.4"/>
<path opacity="0.931" d="M2.27114 22.5191L2.21077 22.5222L2.16219 22.5581C1.95331 22.7129 1.80735 22.9048 1.77716 23.1388C1.74716 23.3712 1.83768 23.5974 1.99657 23.808L2.05243 23.8821L2.14506 23.8873C2.99545 23.9349 3.77355 24.1943 4.48291 24.6666L4.50115 24.6787L4.52159 24.6866C6.06813 25.2849 7.54686 25.1356 8.93712 24.2404C9.70758 23.9225 10.4797 23.9037 11.2633 24.1837C11.7332 24.4287 12.2126 24.6578 12.7013 24.8709L12.7179 24.8782L12.7355 24.8823C13.5282 25.0686 14.3266 25.0901 15.1289 24.947L15.1479 24.9436L15.1659 24.9366C15.724 24.7206 16.2689 24.4694 16.8007 24.1831C17.5374 23.9176 18.2695 23.9168 19.0052 24.1808C19.911 24.752 20.827 25.0438 21.7506 25.0438C22.6739 25.0438 23.5894 24.7521 24.4942 24.1811C25.1014 23.9684 25.7181 23.9304 26.3483 24.0671C26.8921 24.2787 27.4214 24.5233 27.9363 24.8011L27.949 24.808L27.9626 24.8129C28.5186 25.0162 29.092 25.0823 29.6803 25.0112L29.7096 25.0076L29.7367 24.9957C29.8787 24.9333 29.9989 24.8398 30.0949 24.7172L30.1202 24.6849L30.1308 24.6452C30.219 24.3135 30.1536 24.0061 29.9341 23.7461L29.8883 23.6918L29.8185 23.6786C29.4502 23.6088 29.0799 23.5469 28.7074 23.4929C28.166 23.282 27.6389 23.0382 27.1262 22.7616L27.108 22.7518L27.0881 22.7459C26.2568 22.4992 25.4122 22.456 24.557 22.616L24.542 22.6188L24.5276 22.6239C23.8962 22.8453 23.288 23.1172 22.7033 23.4397C22.0657 23.6289 21.4304 23.6286 20.7928 23.4385L19.4332 22.7587L19.4181 22.7512L19.402 22.7463C18.4057 22.443 17.4068 22.443 16.4105 22.7463L16.3914 22.7521L16.3738 22.7616C15.8589 23.0394 15.3296 23.284 14.7858 23.4956C14.1566 23.6321 13.5409 23.5945 12.9346 23.3826C11.5664 22.4603 10.091 22.269 8.52819 22.8111L8.50759 22.8183L8.48902 22.8297C8.05008 23.0995 7.58746 23.3212 7.10102 23.495C6.46715 23.633 5.847 23.5943 5.23634 23.3788C4.76654 23.1339 4.28732 22.9049 3.7987 22.6918L3.78548 22.686L3.77158 22.6822C3.28058 22.5477 2.78017 22.4933 2.27114 22.5191Z" fill="#501414" stroke="#501414" stroke-width="0.4"/>
<path opacity="0.931" d="M5.33388 27.2063L5.23223 27.2114L5.17646 27.2965C5.127 27.372 5.06622 27.4417 4.99322 27.5057L4.95163 27.5421L4.93466 27.5947C4.8651 27.8104 4.85408 28.0226 4.9375 28.2122C5.02148 28.4031 5.18531 28.5351 5.39119 28.6217L5.42289 28.635L5.45723 28.637C5.73373 28.653 6.00657 28.6913 6.27584 28.752L6.75432 28.9912L7.2543 29.2412L7.26911 29.2486L7.28495 29.2535C8.55352 29.6438 9.75162 29.4743 10.8627 28.7482C11.3557 28.6282 11.8401 28.6478 12.3203 28.807C13.0365 29.2523 13.7634 29.4809 14.4982 29.4809C15.2335 29.4809 15.9618 29.2521 16.6806 28.8064C17.2053 28.6257 17.7273 28.6253 18.2539 28.8054C19.1714 29.4149 20.1772 29.6082 21.2595 29.3832L21.2725 29.3805L21.285 29.3761C21.8398 29.1814 22.3788 28.9541 22.902 28.6943C23.2032 28.6593 23.5042 28.66 23.8054 28.6966C24.227 28.8108 24.6195 28.9882 24.9834 29.2291L25.0013 29.241L25.0213 29.2488C25.3806 29.3885 25.7533 29.4659 26.1385 29.4806C26.3733 29.5129 26.5946 29.485 26.7661 29.3525C26.9411 29.2172 27.0215 29.0061 27.0429 28.7678L27.0434 28.7678L27.0437 28.7551C27.0476 28.6053 27.0169 28.4636 26.9399 28.3405C26.8629 28.2173 26.7491 28.1279 26.6126 28.0671L26.5828 28.0539L26.5504 28.0508C26.2936 28.026 26.039 27.9873 25.7865 27.9347C25.2423 27.654 24.6765 27.4244 24.0894 27.246L24.0781 27.2426L24.0665 27.2405C23.0659 27.0611 22.143 27.256 21.3095 27.8237C20.7715 28.0514 20.2322 28.0704 19.6821 27.8814C18.5613 27.1615 17.359 27.0121 16.0929 27.4352L16.0627 27.4453L16.0371 27.4642C15.3316 27.9876 14.5718 28.1241 13.7387 27.8783C13.0117 27.4339 12.2751 27.2061 11.5313 27.2061C10.7857 27.2061 10.0473 27.435 9.3186 27.8815C8.81108 28.065 8.30775 28.0643 7.80019 27.8792C7.4107 27.6744 7.01362 27.4865 6.6091 27.3156L6.59133 27.3081L6.57245 27.3041C6.16451 27.2183 5.75152 27.1857 5.33388 27.2063Z" fill="#501414" stroke="#501414" stroke-width="0.4"/>
</svg>
