<svg width="32" height="33" viewBox="0 0 32 33" fill="none" xmlns="http://www.w3.org/2000/svg">
<g clip-path="url(#clip0_129_136)">
<path opacity="0.97" fill-rule="evenodd" clip-rule="evenodd" d="M5.28125 0.46875C5.82292 0.46875 6.36456 0.46875 6.90625 0.46875C9.41456 0.924211 11.0916 2.36171 11.9375 4.78125C12.016 5.09051 12.0785 5.40301 12.125 5.71875C12.1667 7.73956 12.1667 9.76044 12.125 11.7812C11.8256 12.5301 11.2735 12.8113 10.4688 12.625C10.0833 12.4896 9.82294 12.2292 9.6875 11.8438C9.607 9.88756 9.56538 7.92919 9.5625 5.96875C9.13719 4.10591 7.9705 3.12674 6.0625 3.03125C4.41969 3.09119 3.29469 3.88286 2.6875 5.40625C2.1864 7.43506 2.86348 8.92469 4.71875 9.875C5.26813 10.0453 5.83063 10.1494 6.40625 10.1875C7.20856 10.5291 7.46894 11.1228 7.1875 11.9688C6.94531 12.429 6.55994 12.679 6.03125 12.7188C2.57664 12.4511 0.555806 10.6178 -0.03125 7.21875C-0.03125 6.78125 -0.03125 6.34375 -0.03125 5.90625C0.453043 2.83861 2.22388 1.02611 5.28125 0.46875Z" fill="#501414"/>
<path opacity="0.96" fill-rule="evenodd" clip-rule="evenodd" d="M15.5937 0.46875C15.8437 0.46875 16.0937 0.46875 16.3437 0.46875C16.7802 0.603237 17.0614 0.894903 17.1875 1.34375C17.2292 2.13542 17.2292 2.92708 17.1875 3.71875C16.8865 4.46828 16.3344 4.74953 15.5312 4.5625C15.0477 4.35645 14.7664 3.99187 14.6875 3.46875C14.6337 2.73687 14.6545 2.0077 14.75 1.28125C14.9026 0.868023 15.1838 0.597189 15.5937 0.46875Z" fill="#501414"/>
<path opacity="0.97" fill-rule="evenodd" clip-rule="evenodd" d="M25.3438 0.46875C25.698 0.46875 26.0521 0.46875 26.4063 0.46875C29.5416 0.895712 31.3958 2.66654 31.9688 5.78125C31.9688 6.34375 31.9688 6.90625 31.9688 7.46875C31.2289 10.6873 29.2081 12.4373 25.9063 12.7188C25.1146 12.6354 24.6771 12.1979 24.5938 11.4062C24.6576 10.8326 24.9493 10.4263 25.4688 10.1875C27.4095 10.1927 28.6908 9.28644 29.3125 7.46875C29.6615 5.72197 29.0885 4.37823 27.5938 3.4375C25.866 2.68304 24.3556 2.98513 23.0625 4.34375C22.5828 4.99145 22.3328 5.72062 22.3125 6.53125C22.2917 8.30206 22.2708 10.0729 22.25 11.8438C21.9084 12.551 21.3563 12.8114 20.5938 12.625C20.0613 12.4253 19.7801 12.0398 19.75 11.4688C19.7083 9.80206 19.7083 8.13544 19.75 6.46875C20.0359 2.98527 21.9005 0.985267 25.3438 0.46875Z" fill="#501414"/>
<path opacity="0.964" fill-rule="evenodd" clip-rule="evenodd" d="M15.5937 6.71858C16.3741 6.58231 16.9054 6.87396 17.1875 7.59358C17.2292 8.9894 17.2292 10.3853 17.1875 11.7811C16.9773 12.3402 16.5711 12.6527 15.9687 12.7186C15.2297 12.6565 14.8026 12.2607 14.6875 11.5311C14.6294 10.1954 14.6502 8.86208 14.75 7.53108C14.9026 7.11783 15.1839 6.84702 15.5937 6.71858Z" fill="#501414"/>
<path opacity="0.974" fill-rule="evenodd" clip-rule="evenodd" d="M31.9688 15.6563C31.9688 15.948 31.9688 16.2396 31.9688 16.5313C31.7315 17.0258 31.3357 17.307 30.7812 17.375C20.9062 17.4167 11.0312 17.4167 1.15625 17.375C0.579766 17.3376 0.183932 17.0564 -0.03125 16.5313C-0.03125 16.2396 -0.03125 15.948 -0.03125 15.6563C0.129882 15.2558 0.421549 14.9954 0.84375 14.875C10.9271 14.8333 21.0104 14.8333 31.0938 14.875C31.5159 14.9954 31.8076 15.2558 31.9688 15.6563Z" fill="#501414"/>
<path opacity="0.974" fill-rule="evenodd" clip-rule="evenodd" d="M31.9688 20.7188C31.9688 20.9688 31.9688 21.2188 31.9688 21.4688C31.7851 22.0367 31.3893 22.3388 30.7812 22.375C20.9062 22.4167 11.0312 22.4167 1.15625 22.375C0.579766 22.3376 0.183932 22.0564 -0.03125 21.5313C-0.03125 21.2396 -0.03125 20.948 -0.03125 20.6563C0.129882 20.2558 0.421549 19.9954 0.84375 19.875C10.9271 19.8333 21.0104 19.8333 31.0938 19.875C31.5426 20.0011 31.8342 20.2823 31.9688 20.7188Z" fill="#501414"/>
<path opacity="0.964" fill-rule="evenodd" clip-rule="evenodd" d="M10.5313 24.8436C11.3092 24.7061 11.8405 24.9978 12.125 25.7186C12.1667 26.8436 12.1667 27.9686 12.125 29.0936C12.0165 29.5146 11.7561 29.7959 11.3438 29.9373C10.3676 30.1326 9.79471 29.7471 9.62502 28.7811C9.56721 27.7366 9.58802 26.6949 9.68752 25.6561C9.84014 25.2428 10.1214 24.972 10.5313 24.8436Z" fill="#501414"/>
<path opacity="0.968" fill-rule="evenodd" clip-rule="evenodd" d="M16.4063 32.4688C16.1146 32.4688 15.823 32.4688 15.5313 32.4688C15.0061 32.2536 14.7249 31.8577 14.6875 31.2812C14.6458 29.5104 14.6458 27.7396 14.6875 25.9688C14.7936 25.2271 15.2208 24.8521 15.9688 24.8438C16.5756 24.857 16.9819 25.1486 17.1875 25.7188C17.2292 27.6771 17.2292 29.6354 17.1875 31.5938C17.0671 32.0159 16.8067 32.3076 16.4063 32.4688Z" fill="#501414"/>
<path opacity="0.964" fill-rule="evenodd" clip-rule="evenodd" d="M20.7188 24.8436C21.4967 24.7061 22.0279 24.9978 22.3125 25.7186C22.3542 26.8436 22.3542 27.9686 22.3125 29.0936C22.204 29.5146 21.9436 29.7959 21.5313 29.9373C20.5551 30.1326 19.9822 29.7471 19.8125 28.7811C19.7558 27.7369 19.7766 26.6952 19.875 25.6561C20.0276 25.2428 20.3089 24.972 20.7188 24.8436Z" fill="#501414"/>
</g>
<defs>
<clipPath id="clip0_129_136">
<rect width="32" height="32" fill="white" transform="translate(0 0.5)"/>
</clipPath>
</defs>
</svg>
