<svg width="32" height="33" viewBox="0 0 32 33" fill="none" xmlns="http://www.w3.org/2000/svg">
<g clip-path="url(#clip0_129_125)">
<path opacity="0.94" fill-rule="evenodd" clip-rule="evenodd" d="M9.84376 0.46875C10.8021 0.46875 11.7604 0.46875 12.7188 0.46875C12.7188 1.57292 12.7188 2.67708 12.7188 3.78125C15.7605 3.77083 18.8021 3.78125 21.8438 3.8125C22.8542 4.82292 23.8646 5.83333 24.875 6.84375C24.9063 14.2812 24.9167 21.7188 24.9063 29.1562C23.9479 29.1562 22.9896 29.1562 22.0313 29.1562C22.0313 28.8229 22.0313 28.4896 22.0313 28.1562C22.6563 28.1562 23.2813 28.1562 23.9063 28.1562C23.9167 21.1979 23.9063 14.2396 23.875 7.28125C23.0521 6.45833 22.2292 5.63542 21.4063 4.8125C18.5105 4.78125 15.6147 4.77083 12.7188 4.78125C12.7188 12.5729 12.7188 20.3646 12.7188 28.1562C15.5313 28.1562 18.3438 28.1562 21.1563 28.1562C21.1563 28.4896 21.1563 28.8229 21.1563 29.1562C18.3438 29.1562 15.5313 29.1562 12.7188 29.1562C12.7188 30.2604 12.7188 31.3646 12.7188 32.4688C11.7604 32.4688 10.8021 32.4688 9.84376 32.4688C9.84376 29.9896 9.84376 27.5104 9.84376 25.0312C8.90626 25.0312 7.96876 25.0312 7.03126 25.0312C7.03126 24.0729 7.03126 23.1146 7.03126 22.1562C7.96876 22.1562 8.90626 22.1562 9.84376 22.1562C9.84376 21.8646 9.84376 21.5729 9.84376 21.2812C8.90626 21.2812 7.96876 21.2812 7.03126 21.2812C7.03126 20.3229 7.03126 19.3646 7.03126 18.4062C7.96876 18.4062 8.90626 18.4062 9.84376 18.4062C9.86457 17.1764 9.84376 15.9472 9.78126 14.7188C8.87163 14.4121 7.96538 14.0996 7.06251 13.7812C7.03126 12.2814 7.02082 10.7814 7.03126 9.28125C7.96876 8.98956 8.90626 8.69794 9.84376 8.40625C9.84376 7.17706 9.84376 5.94792 9.84376 4.71875C10.1771 4.71875 10.5104 4.71875 10.8438 4.71875C10.8438 13.6562 10.8438 22.5938 10.8438 31.5312C11.1354 31.5312 11.4271 31.5312 11.7188 31.5312C11.7188 21.4896 11.7188 11.4479 11.7188 1.40625C11.4271 1.40625 11.1354 1.40625 10.8438 1.40625C10.8438 2.21875 10.8438 3.03125 10.8438 3.84375C10.5104 3.84375 10.1771 3.84375 9.84376 3.84375C9.84376 2.71875 9.84376 1.59375 9.84376 0.46875ZM17.8438 8.78125C19.5786 8.68437 20.6515 9.47606 21.0625 11.1562C21.1096 13.0469 20.1929 14.1094 18.3125 14.3438C16.7876 14.2145 15.8709 13.402 15.5625 11.9062C15.4944 10.2561 16.2549 9.21437 17.8438 8.78125ZM9.65626 9.46875C9.71876 9.46875 9.78126 9.46875 9.84376 9.46875C9.86457 10.8652 9.84376 12.2611 9.78126 13.6562C9.20482 13.4432 8.62151 13.2557 8.03126 13.0938C8.01045 12.0721 8.03132 11.0513 8.09376 10.0312C8.62551 9.85419 9.14632 9.66669 9.65626 9.46875ZM17.8438 11.0938C18.1563 11.0938 18.4688 11.0938 18.7813 11.0938C18.7813 11.3854 18.7813 11.6771 18.7813 11.9688C18.4688 11.9688 18.1563 11.9688 17.8438 11.9688C17.8438 11.6771 17.8438 11.3854 17.8438 11.0938ZM8.03126 19.4062C8.63545 19.4062 9.23957 19.4062 9.84376 19.4062C9.84376 19.6979 9.84376 19.9896 9.84376 20.2812C9.23957 20.2812 8.63545 20.2812 8.03126 20.2812C8.03126 19.9896 8.03126 19.6979 8.03126 19.4062ZM8.03126 23.1562C8.63545 23.1562 9.23957 23.1562 9.84376 23.1562C9.84376 23.4479 9.84376 23.7396 9.84376 24.0312C9.23957 24.0312 8.63545 24.0312 8.03126 24.0312C8.03126 23.7396 8.03126 23.4479 8.03126 23.1562Z" fill="#501414" stroke="#501414" stroke-width="0.4"/>
<path opacity="0.938" fill-rule="evenodd" clip-rule="evenodd" d="M16.9062 5.65625C17.2188 5.65625 17.5312 5.65625 17.8438 5.65625C17.8438 5.98958 17.8438 6.32292 17.8438 6.65625C17.5312 6.65625 17.2188 6.65625 16.9062 6.65625C16.9062 6.32292 16.9062 5.98958 16.9062 5.65625Z" fill="#501414" stroke="#501414" stroke-width="0.4"/>
<path opacity="0.938" fill-rule="evenodd" clip-rule="evenodd" d="M18.7812 5.65625C19.0938 5.65625 19.4062 5.65625 19.7188 5.65625C19.7188 5.98958 19.7188 6.32292 19.7188 6.65625C19.4062 6.65625 19.0938 6.65625 18.7812 6.65625C18.7812 6.32292 18.7812 5.98958 18.7812 5.65625Z" fill="#501414" stroke="#501414" stroke-width="0.4"/>
<path opacity="0.95" fill-rule="evenodd" clip-rule="evenodd" d="M17.9687 18.2812C19.3125 18.2605 20.0625 18.9168 20.2187 20.25C20.2217 20.7209 20.0654 21.1271 19.75 21.4687C19.747 22.4313 19.7054 23.3896 19.625 24.3437C19.1427 25.134 18.4657 25.3528 17.5937 25C17.33 24.8405 17.1321 24.6217 17 24.3437C16.9196 23.3896 16.8779 22.4313 16.875 21.4687C16.2531 20.6397 16.2531 19.8063 16.875 18.9687C17.18 18.6345 17.5446 18.4054 17.9687 18.2812ZM18.1562 19.2812C17.9954 19.3675 17.8391 19.4717 17.6875 19.5937C17.283 20.0955 17.3247 20.5539 17.8125 20.9687C17.8333 21.8854 17.8542 22.802 17.875 23.7187C17.8852 23.8547 17.9372 23.9693 18.0312 24.0625C18.4122 24.2418 18.6517 24.1272 18.75 23.7187C18.7708 22.802 18.7917 21.8854 18.8125 20.9687C19.0538 20.788 19.1892 20.5485 19.2187 20.25C19.1309 19.6308 18.7767 19.3079 18.1562 19.2812Z" fill="#501414" stroke="#501414" stroke-width="0.4"/>
</g>
<defs>
<clipPath id="clip0_129_125">
<rect width="32" height="32" fill="white" transform="translate(0 0.5)"/>
</clipPath>
</defs>
</svg>
