<svg width="32" height="32" viewBox="0 0 32 32" fill="none" xmlns="http://www.w3.org/2000/svg">
<path d="M22.3797 22.9951C21.549 22.9753 20.7381 22.9753 19.9074 22.9951C19.7294 22.9951 19.6898 22.9555 19.6898 22.7775C19.6898 21.3139 19.6898 19.8305 19.6898 18.3669C19.6898 18.0307 19.67 17.6944 19.5711 17.378C19.2745 16.3495 18.0877 15.9737 17.2373 16.666C16.7824 17.022 16.6044 17.5164 16.6044 18.1098C16.6044 19.4943 16.6044 20.8788 16.6044 22.2633C16.6044 22.4413 16.5846 22.6193 16.6044 22.8171C16.6241 22.9753 16.545 23.0149 16.4066 22.9951C15.5561 22.9951 14.7254 22.9951 13.8749 22.9951C13.7167 22.9951 13.6771 22.9555 13.6771 22.7973C13.6969 21.5513 13.6969 20.3052 13.6969 19.0394C13.6969 17.4967 13.6969 15.9539 13.6771 14.431C13.6771 14.253 13.7167 14.2134 13.8749 14.2134C14.7254 14.2134 15.5561 14.2134 16.4066 14.2134C16.5648 14.2134 16.6044 14.253 16.6044 14.4112C16.6044 14.7277 16.6044 15.0441 16.6044 15.4199C16.6637 15.3606 16.6835 15.3408 16.7032 15.321C17.4746 14.1936 18.5624 13.8772 19.848 14.075C21.3314 14.3123 22.2808 15.3408 22.5181 16.9231C22.5775 17.2989 22.5973 17.6747 22.5973 18.0505C22.5973 19.6327 22.5973 21.1953 22.5973 22.7775C22.5973 22.9358 22.5577 22.9951 22.3797 22.9951Z" fill="white" fill-opacity="0.75"/>
<path d="M12.0949 18.6048C12.0949 19.9893 12.0949 21.3738 12.0949 22.7583C12.0949 22.9363 12.0554 22.9956 11.8774 22.9956C11.0467 22.9758 10.216 22.9956 9.38529 22.9956C9.22706 22.9956 9.1875 22.9561 9.1875 22.7978C9.1875 20.009 9.1875 17.2005 9.1875 14.4117C9.1875 14.2733 9.22706 14.2139 9.38529 14.2139C10.2358 14.2139 11.0862 14.2139 11.9367 14.2139C12.1147 14.2139 12.1345 14.2733 12.1345 14.4315C12.0949 15.816 12.0949 17.2005 12.0949 18.6048Z" fill="white" fill-opacity="0.75"/>
<path d="M12.2334 11.9193C12.0356 12.7104 11.2246 13.1654 10.2951 13.0071C9.30613 12.8489 8.75233 11.8797 9.10834 10.9304C9.34568 10.337 9.91926 9.981 10.6511 10.0008C11.7587 9.981 12.4905 10.871 12.2334 11.9193Z" fill="white" fill-opacity="0.75"/>
</svg>
