<svg width="32" height="33" viewBox="0 0 32 33" fill="none" xmlns="http://www.w3.org/2000/svg">
<path fill-rule="evenodd" clip-rule="evenodd" d="M23.6704 16.5845C23.4859 16.0104 22.9456 15.5578 22.2602 15.4032C21.0082 15.1162 16 15.1162 16 15.1162C16 15.1162 10.9918 15.1162 9.7397 15.3922C9.06754 15.5468 8.514 16.0104 8.32949 16.5845C8 17.6333 8 19.8082 8 19.8082C8 19.8082 8 21.9941 8.32949 23.0319C8.514 23.6059 9.05436 24.0586 9.7397 24.2131C11.0049 24.5002 16 24.5002 16 24.5002C16 24.5002 21.0082 24.5002 22.2602 24.2242C22.9456 24.0696 23.4859 23.617 23.6704 23.0429C23.9999 21.9941 23.9999 19.8192 23.9999 19.8192C23.9999 19.8192 24.0131 17.6333 23.6704 16.5845ZM20.4033 20.8709V21.066C20.4033 21.3116 20.412 21.4995 20.4292 21.6223C20.4465 21.7451 20.481 21.8391 20.5413 21.8896C20.5931 21.9474 20.6794 21.9763 20.8001 21.9763C20.9554 21.9763 21.0589 21.9258 21.1193 21.8246C21.1796 21.7235 21.2055 21.5573 21.2141 21.3188L22.1026 21.3622C22.1112 21.3983 22.1112 21.4417 22.1112 21.4995C22.1112 21.8535 21.9991 22.1208 21.7662 22.2943C21.5333 22.4677 21.2055 22.5544 20.7829 22.5544C20.274 22.5544 19.9203 22.4171 19.7133 22.1497C19.5063 21.8824 19.4028 21.4706 19.4028 20.907V20.2351C19.4028 19.657 19.5063 19.238 19.7219 18.9706C19.9376 18.7033 20.2998 18.5732 20.8087 18.5732C21.1624 18.5732 21.4384 18.631 21.6282 18.7394C21.8179 18.8478 21.9473 19.0212 22.0249 19.2452C22.1026 19.4764 22.1371 19.7943 22.1371 20.1989V20.8564H20.4033V20.8709ZM20.5327 19.2524C20.481 19.3102 20.4465 19.3969 20.4292 19.5198C20.412 19.6426 20.4033 19.8304 20.4033 20.0833V20.3579H21.1624V20.0833C21.1624 19.8377 21.1538 19.6498 21.1365 19.5198C21.1193 19.3897 21.0761 19.303 21.0244 19.2524C20.9726 19.2018 20.8864 19.1729 20.7829 19.1729C20.6621 19.1657 20.5845 19.1946 20.5327 19.2524ZM15.4178 22.5102V18.6592H14.3827V21.7155C14.3482 21.7877 14.2878 21.8455 14.2016 21.8889C14.1153 21.9394 14.0291 21.9611 13.9428 21.9611C13.8393 21.9611 13.7617 21.925 13.7185 21.8527C13.6754 21.7805 13.6495 21.6577 13.6495 21.4843V18.6592H12.6145V21.5348C12.6145 21.8961 12.6835 22.1562 12.8301 22.3224C12.9767 22.4886 13.201 22.5753 13.5029 22.5753C13.9428 22.5753 14.2792 22.3946 14.4948 22.0406H14.5207L14.607 22.5102H15.4178ZM12.9249 17.9372H11.8985V22.5035H10.8893V17.9372H9.86284V17.2363H12.9249V17.9372ZM18.5402 18.7462C18.6782 18.8546 18.7817 19.028 18.8421 19.2736C18.9025 19.5121 18.9283 19.8516 18.937 20.2924V20.8993C18.937 21.4701 18.8507 21.8964 18.6868 22.1637C18.5229 22.4311 18.2728 22.5683 17.9192 22.5683C17.7208 22.5683 17.5483 22.525 17.3844 22.4527C17.2205 22.3733 17.0997 22.2721 17.0221 22.1421H16.9962L16.8927 22.5033H16.0388V17.041H17.0394V19.0713H17.048C17.1342 18.9268 17.2636 18.804 17.4275 18.7173C17.5914 18.6233 17.7725 18.58 17.9623 18.58C18.2038 18.58 18.4022 18.6378 18.5402 18.7462ZM17.8502 21.499C17.876 21.34 17.8933 21.1233 17.8933 20.8415H17.9019V20.3357C17.9019 20.0395 17.8933 19.8083 17.8674 19.6421C17.8415 19.4832 17.807 19.3675 17.7466 19.2953C17.6949 19.2303 17.6086 19.1941 17.5051 19.1941C17.4103 19.1941 17.3154 19.2303 17.2291 19.2953C17.1429 19.3675 17.0825 19.4543 17.048 19.5554V21.7374C17.0911 21.8025 17.1515 21.853 17.2205 21.8892C17.2895 21.9253 17.3671 21.9397 17.4534 21.9397C17.5569 21.9397 17.6431 21.9036 17.7121 21.8386C17.7725 21.7736 17.8243 21.658 17.8502 21.499Z" fill="white" fill-opacity="0.75"/>
<path d="M15.0296 13.6593C14.8226 13.5437 14.676 13.363 14.5897 13.1102C14.5035 12.8645 14.4603 12.5321 14.4603 12.1275V11.5712C14.4603 11.1593 14.5121 10.827 14.607 10.5741C14.7105 10.3212 14.8657 10.1406 15.0727 10.025C15.2884 9.90936 15.5644 9.85156 15.9094 9.85156C16.2458 9.85156 16.5218 9.90936 16.7288 10.025C16.9359 10.1406 17.0825 10.3284 17.1774 10.5741C17.2723 10.8197 17.324 11.1521 17.324 11.5712V12.1275C17.324 12.5394 17.2809 12.8645 17.186 13.1174C17.0911 13.363 16.9445 13.5509 16.7375 13.6665C16.5305 13.7821 16.2458 13.8399 15.8922 13.8399C15.5299 13.8327 15.2366 13.7749 15.0296 13.6593ZM16.1941 13.0524C16.2544 12.9295 16.2803 12.72 16.2803 12.4382V11.2388C16.2803 10.9643 16.2544 10.7619 16.1941 10.6319C16.1337 10.5018 16.0388 10.444 15.8922 10.444C15.7542 10.444 15.6507 10.5091 15.5989 10.6319C15.5385 10.7619 15.5126 10.9643 15.5126 11.2388V12.4382C15.5126 12.72 15.5385 12.9295 15.5989 13.0524C15.6507 13.1752 15.7542 13.2402 15.9008 13.2402C16.0388 13.2402 16.1337 13.1824 16.1941 13.0524Z" fill="white" fill-opacity="0.75"/>
<path d="M12.511 12.0621L11.3379 8.5H12.3643L12.7784 10.1112C12.8819 10.5086 12.9595 10.8482 13.0112 11.13H13.0371C13.0716 10.9277 13.1493 10.5953 13.27 10.1185L13.7013 8.5H14.7277L13.5374 12.0621V13.7672H12.5196V12.0621H12.511Z" fill="white" fill-opacity="0.75"/>
<path d="M20.6622 9.92285V13.7739H19.8514L19.7651 13.3043H19.7393C19.5236 13.6583 19.1872 13.8389 18.7473 13.8389C18.4454 13.8389 18.2212 13.7522 18.0745 13.5861C17.9279 13.4199 17.8589 13.1598 17.8589 12.7985V9.92285H18.894V12.7479C18.894 12.9213 18.9198 13.0442 18.963 13.1164C19.0061 13.1887 19.0837 13.2248 19.1872 13.2248C19.2735 13.2248 19.3597 13.2031 19.446 13.1525C19.5322 13.1092 19.5926 13.0514 19.6271 12.9791V9.92285H20.6622Z" fill="white" fill-opacity="0.75"/>
</svg>
